<?xml version="1.0" encoding="utf-8"?>
<!-- Generator: Adobe Illustrator 21.0.0, SVG Export Plug-In . SVG Version: 6.00 Build 0)  -->
<svg version="1.1" id="Capa_1" xmlns="http://www.w3.org/2000/svg" xmlns:xlink="http://www.w3.org/1999/xlink" x="0px" y="0px"
	 viewBox="0 0 480 480" style="enable-background:new 0 0 480 480;" xml:space="preserve">
<style type="text/css">
	.st0{fill:url(#SVGID_1_);}
</style>
<linearGradient id="SVGID_1_" gradientUnits="userSpaceOnUse" x1="2.9002" y1="454.7542" x2="447.7148" y2="9.9397">
	<stop  offset="0" style="stop-color:#FF303E"/>
	<stop  offset="1" style="stop-color:#0082BE"/>
</linearGradient>
<path class="st0" d="M408,296c-32.9,0-60.7,22.2-69.2,52.4l-63.6-31.8c3.1-9,4.9-18.6,4.9-28.6c0-21.4-7.7-41-20.4-56.3l102.8-104
	c12.4,10.2,28.3,16.3,45.6,16.3c39.7,0,72-32.3,72-72S447.7,0,408,0s-72,32.3-72,72c0,16.6,5.7,31.9,15.2,44.2l-103,104.2
	C233,207.7,213.4,200,192,200c-16.4,0-31.7,4.6-44.8,12.4l-47.6-95.2c17.2-11.5,28.5-31,28.5-53.2c0-35.3-28.7-64-64-64S0,28.7,0,64
	s28.7,64,64,64c7.4,0,14.6-1.3,21.2-3.7L134,222c-18.4,16.1-30,39.7-30,66c0,21.4,7.7,41,20.4,56.3l-48.6,48.6
	c-7.8-5.6-17.4-8.9-27.8-8.9c-26.5,0-48,21.5-48,48s21.5,48,48,48s48-21.5,48-48c0-10.4-3.3-19.9-8.9-27.8l48.6-48.6
	C151,368.3,170.6,376,192,376c32.8,0,61.4-18.1,76.6-44.8l67.6,33.8c0,1-0.1,2-0.1,3c0,39.7,32.3,72,72,72s72-32.3,72-72
	C480,328.3,447.7,296,408,296z M408,16c30.9,0,56,25.1,56,56s-25.1,56-56,56s-56-25.1-56-56S377.1,16,408,16z M64,112
	c-26.5,0-48-21.5-48-48s21.5-48,48-48s48,21.5,48,48S90.5,112,64,112z M48,464c-17.6,0-32-14.4-32-32s14.4-32,32-32s32,14.4,32,32
	S65.6,464,48,464z M192,360c-39.7,0-72-32.3-72-72s32.3-72,72-72s72,32.3,72,72S231.7,360,192,360z M408,424c-30.9,0-56-25.1-56-56
	s25.1-56,56-56s56,25.1,56,56S438.9,424,408,424z M264,0c-22.1,0-40,17.9-40,40s17.9,40,40,40s40-17.9,40-40S286.1,0,264,0z M264,64
	c-13.2,0-24-10.8-24-24s10.8-24,24-24s24,10.8,24,24S277.2,64,264,64z M184,96c-22.1,0-40,17.9-40,40s17.9,40,40,40s40-17.9,40-40
	S206.1,96,184,96z M184,160c-13.2,0-24-10.8-24-24s10.8-24,24-24s24,10.8,24,24S197.2,160,184,160z M52,272c-19.8,0-36,16.2-36,36
	s16.2,36,36,36s36-16.2,36-36S71.8,272,52,272z M52,328c-11,0-20-9-20-20s9-20,20-20s20,9,20,20S63,328,52,328z M24,176
	c-13.2,0-24,10.8-24,24s10.8,24,24,24s24-10.8,24-24S37.2,176,24,176z M24,208c-4.4,0-8-3.6-8-8s3.6-8,8-8s8,3.6,8,8
	S28.4,208,24,208z M360,192c-26.5,0-48,21.5-48,48s21.5,48,48,48s48-21.5,48-48S386.5,192,360,192z M360,272c-17.6,0-32-14.4-32-32
	s14.4-32,32-32s32,14.4,32,32S377.6,272,360,272z M248,384c-26.5,0-48,21.5-48,48s21.5,48,48,48s48-21.5,48-48S274.5,384,248,384z
	 M248,464c-17.6,0-32-14.4-32-32s14.4-32,32-32s32,14.4,32,32S265.6,464,248,464z M448,152c-17.6,0-32,14.4-32,32s14.4,32,32,32
	s32-14.4,32-32S465.6,152,448,152z M448,200c-8.8,0-16-7.2-16-16s7.2-16,16-16s16,7.2,16,16S456.8,200,448,200z"/>
</svg>
