<?xml version="1.0" encoding="utf-8"?>
<!-- Generator: Adobe Illustrator 21.0.0, SVG Export Plug-In . SVG Version: 6.00 Build 0)  -->
<svg version="1.1" id="Capa_1" xmlns="http://www.w3.org/2000/svg" xmlns:xlink="http://www.w3.org/1999/xlink" x="0px" y="0px"
	 viewBox="0 0 480 480" style="enable-background:new 0 0 480 480;" xml:space="preserve">
<style type="text/css">
	.st0{fill:url(#SVGID_1_);}
</style>
<linearGradient id="SVGID_1_" gradientUnits="userSpaceOnUse" x1="96.9575" y1="364.2725" x2="456.2725" y2="4.9575">
	<stop  offset="0" style="stop-color:#FF303E"/>
	<stop  offset="1" style="stop-color:#0082BE"/>
</linearGradient>
<path class="st0" d="M434.3,378.3L400,412.7l-18.3-18.3l-11.3,11.3l24,24c1.6,1.6,3.6,2.3,5.7,2.3s4.1-0.8,5.7-2.3l40-40
	L434.3,378.3z M272,336c4.4,0,8-3.6,8-8v-16h192c4.4,0,8-3.6,8-8V32c0-4.4-3.6-8-8-8h-24V8c0-4.4-3.6-8-8-8h-96c-4.4,0-8,3.6-8,8v16
	h-24c-4.4,0-8,3.6-8,8v72h-72V64h40c4.4,0,8-3.6,8-8V8c0-4.4-3.6-8-8-8h-96c-4.4,0-8,3.6-8,8v48c0,4.4,3.6,8,8,8h40v40h-72V32
	c0-4.4-3.6-8-8-8h-24V8c0-4.4-3.6-8-8-8H8C3.6,0,0,3.6,0,8v48c0,4.4,3.6,8,8,8h96c4.4,0,8-3.6,8-8V40h16v72c0,4.4,3.6,8,8,8h80v24
	h-40c-4.4,0-8,3.6-8,8v48c0,4.4,3.6,8,8,8h40v24H112v-16c0-4.4-3.6-8-8-8H64v-24h40c4.4,0,8-3.6,8-8v-48c0-4.4-3.6-8-8-8H8
	c-4.4,0-8,3.6-8,8v48c0,4.4,3.6,8,8,8h40v24H8c-4.4,0-8,3.6-8,8v48c0,4.4,3.6,8,8,8h96c4.4,0,8-3.6,8-8v-16h104v24h-40
	c-4.4,0-8,3.6-8,8v48c0,4.4,3.6,8,8,8h40v40h-40c-4.4,0-8,3.6-8,8v48c0,4.4,3.6,8,8,8h96c4.4,0,8-3.6,8-8v-16h56.5
	c4,35.9,34.5,64,71.5,64c39.7,0,72-32.3,72-72s-32.3-72-72-72c-37,0-67.5,28.1-71.5,64H280v-16c0-4.4-3.6-8-8-8h-40v-40H272z M96,48
	H16V16h80V48z M16,168v-32h80v32H16z M96,256H16v-32h80V256z M408,352c30.9,0,56,25.1,56,56s-25.1,56-56,56s-56-25.1-56-56
	S377.1,352,408,352z M352,16h80v32h-80V16z M312,120c4.4,0,8-3.6,8-8V40h16v16c0,4.4,3.6,8,8,8h96c4.4,0,8-3.6,8-8V40h16v256H280
	v-16c0-4.4-3.6-8-8-8h-40v-64h40c4.4,0,8-3.6,8-8v-48c0-4.4-3.6-8-8-8h-40v-24H312z M184,48V16h80v32H184z M184,192v-32h80v32H184z
	 M264,392v32h-80v-32H264z M184,320v-32h80v32H184z"/>
</svg>
