<svg id="Слой_1" data-name="Слой 1" xmlns="http://www.w3.org/2000/svg" xmlns:xlink="http://www.w3.org/1999/xlink" viewBox="0 0 255 305"><defs><style>.cls-1{opacity:0.2;}.cls-2{fill:url(#Degradado_sin_nombre_379);}.cls-3{fill:url(#Degradado_sin_nombre_379-2);}.cls-4{fill:url(#Degradado_sin_nombre_379-3);}.cls-5{fill:url(#Degradado_sin_nombre_379-4);}.cls-6{fill:url(#Degradado_sin_nombre_379-5);}.cls-7{fill:url(#Degradado_sin_nombre_379-6);}.cls-8{fill:url(#Degradado_sin_nombre_379-7);}.cls-9{fill:url(#Degradado_sin_nombre_379-8);}</style><linearGradient id="Degradado_sin_nombre_379" x1="-4091.61" y1="284.07" x2="-4091.61" y2="36.36" gradientTransform="matrix(-1, 0, 0, 1, -4027.97, 0)" gradientUnits="userSpaceOnUse"><stop offset="0" stop-color="#fff"/><stop offset="1" stop-color="#254168" stop-opacity="0"/></linearGradient><linearGradient id="Degradado_sin_nombre_379-2" x1="-4326.42" y1="110.15" x2="-4099.01" y2="274.62" xlink:href="#Degradado_sin_nombre_379"/><linearGradient id="Degradado_sin_nombre_379-3" x1="-4155.46" y1="-84.38" x2="-4155.46" y2="482.46" xlink:href="#Degradado_sin_nombre_379"/><linearGradient id="Degradado_sin_nombre_379-4" x1="-4155.46" y1="296.91" x2="-4155.46" y2="306.46" xlink:href="#Degradado_sin_nombre_379"/><linearGradient id="Degradado_sin_nombre_379-5" x1="-4113.66" y1="236.89" x2="-4113.66" y2="74.74" xlink:href="#Degradado_sin_nombre_379"/><linearGradient id="Degradado_sin_nombre_379-6" x1="-4267.37" y1="123.04" x2="-4118.51" y2="230.7" xlink:href="#Degradado_sin_nombre_379"/><linearGradient id="Degradado_sin_nombre_379-7" x1="-4155.45" y1="-4.3" x2="-4155.45" y2="366.75" xlink:href="#Degradado_sin_nombre_379"/><linearGradient id="Degradado_sin_nombre_379-8" x1="-4155.45" y1="245.23" x2="-4155.45" y2="251.6" xlink:href="#Degradado_sin_nombre_379"/></defs><title>cube transparent</title><g class="cls-1"><polygon class="cls-2" points="-0.21 77.04 127.49 150.76 127.49 298.21 -0.21 224.49 -0.21 77.04"/><polygon class="cls-3" points="255.18 77.04 255.18 224.49 127.49 298.21 127.49 150.76 255.18 77.04"/><polygon class="cls-4" points="-0.21 77.04 127.49 3.31 255.18 77.04 127.49 150.76 -0.21 77.04"/><polygon class="cls-5" points="127.49 301.69 127.48 301.69 127.49 301.69 127.49 301.69"/><polygon class="cls-6" points="43.9 101.37 127.49 149.63 127.49 246.14 43.9 197.88 43.9 101.37"/><polygon class="cls-7" points="211.07 101.37 211.07 197.88 127.48 246.14 127.48 149.63 211.07 101.37"/><polygon class="cls-8" points="43.9 101.36 127.48 53.11 211.07 101.37 127.48 149.63 43.9 101.36"/><polygon class="cls-9" points="127.48 248.42 127.48 248.42 127.49 248.42 127.48 248.42"/></g></svg>