<svg id="Слой_1" data-name="Слой 1" xmlns="http://www.w3.org/2000/svg" xmlns:xlink="http://www.w3.org/1999/xlink" viewBox="0 0 262 429"><defs><style>.cls-1{fill:url(#Degradado_sin_nombre_379);}.cls-2{fill:url(#Degradado_sin_nombre_379-2);}.cls-3{fill:url(#Degradado_sin_nombre_379-3);}.cls-4{fill:url(#Degradado_sin_nombre_379-4);}.cls-5{fill:url(#Degradado_sin_nombre_379-5);}.cls-6{fill:url(#Degradado_sin_nombre_379-6);}.cls-7{fill:url(#Degradado_sin_nombre_379-7);}.cls-8{fill:url(#Degradado_sin_nombre_379-8);}.cls-9{fill:url(#Degradado_sin_nombre_379-9);}.cls-10{fill:url(#Degradado_sin_nombre_379-10);}.cls-11{fill:url(#Degradado_sin_nombre_379-11);}.cls-12{fill:url(#Degradado_sin_nombre_379-12);}.cls-13{fill:url(#Degradado_sin_nombre_379-13);}.cls-14{fill:url(#Degradado_sin_nombre_379-14);}.cls-15{fill:url(#Degradado_sin_nombre_379-15);}.cls-16{fill:url(#Degradado_sin_nombre_379-16);}.cls-17{fill:url(#Degradado_sin_nombre_379-17);}.cls-18{fill:url(#Degradado_sin_nombre_379-18);}.cls-19{fill:url(#Degradado_sin_nombre_379-19);}.cls-20{fill:url(#Degradado_sin_nombre_379-20);}.cls-21{fill:url(#Degradado_sin_nombre_379-21);}.cls-22{fill:url(#Degradado_sin_nombre_379-22);}.cls-23{fill:url(#Degradado_sin_nombre_379-23);}.cls-24{fill:url(#Degradado_sin_nombre_379-24);}.cls-25{fill:url(#Degradado_sin_nombre_379-25);}.cls-26{fill:url(#Degradado_sin_nombre_379-26);}.cls-27{fill:url(#Degradado_sin_nombre_379-27);}.cls-28{fill:url(#Degradado_sin_nombre_379-28);}.cls-29{fill:url(#Degradado_sin_nombre_379-29);}.cls-30{fill:url(#Degradado_sin_nombre_379-30);}.cls-31{fill:url(#Degradado_sin_nombre_379-31);}.cls-32{fill:url(#Degradado_sin_nombre_379-32);}.cls-33,.cls-34,.cls-35,.cls-36,.cls-37,.cls-38,.cls-40,.cls-41,.cls-42,.cls-43,.cls-44{fill:none;stroke-miterlimit:10;stroke-width:1px;}.cls-33{stroke:url(#Degradado_sin_nombre_379-33);}.cls-34{stroke:url(#Degradado_sin_nombre_405);}.cls-35{stroke:url(#Degradado_sin_nombre_405-2);}.cls-36{stroke:url(#Degradado_sin_nombre_405-3);}.cls-37{stroke:url(#Degradado_sin_nombre_379-34);}.cls-38{stroke:url(#Degradado_sin_nombre_379-35);}.cls-39{fill:#fff;}.cls-40{stroke:url(#Degradado_sin_nombre_379-36);}.cls-41{stroke:url(#Degradado_sin_nombre_379-37);}.cls-42{stroke:url(#Degradado_sin_nombre_379-38);}.cls-43{stroke:url(#Degradado_sin_nombre_379-39);}.cls-44{stroke:url(#Degradado_sin_nombre_379-40);}</style><linearGradient id="Degradado_sin_nombre_379" x1="-2584.84" y1="294" x2="-2584.84" y2="202.9" gradientTransform="matrix(-1, 0, 0, 1, -2407.97, 0)" gradientUnits="userSpaceOnUse"><stop offset="0" stop-color="#fff"/><stop offset="1" stop-color="#254168" stop-opacity="0"/></linearGradient><linearGradient id="Degradado_sin_nombre_379-2" x1="-2671.19" y1="230.04" x2="-2587.56" y2="290.52" xlink:href="#Degradado_sin_nombre_379"/><linearGradient id="Degradado_sin_nombre_379-3" x1="-2608.32" y1="158.5" x2="-2608.32" y2="366.96" xlink:href="#Degradado_sin_nombre_379"/><linearGradient id="Degradado_sin_nombre_379-4" x1="-2608.32" y1="298.88" x2="-2608.32" y2="302.07" xlink:href="#Degradado_sin_nombre_379"/><linearGradient id="Degradado_sin_nombre_379-5" x1="-2592.95" y1="276.65" x2="-2592.95" y2="217.01" xlink:href="#Degradado_sin_nombre_379"/><linearGradient id="Degradado_sin_nombre_379-6" x1="-2649.47" y1="234.78" x2="-2594.73" y2="274.37" xlink:href="#Degradado_sin_nombre_379"/><linearGradient id="Degradado_sin_nombre_379-7" x1="-2608.32" y1="187.95" x2="-2608.32" y2="324.4" xlink:href="#Degradado_sin_nombre_379"/><linearGradient id="Degradado_sin_nombre_379-8" x1="-2608.31" y1="280.09" x2="-2608.31" y2="281.68" xlink:href="#Degradado_sin_nombre_379"/><linearGradient id="Degradado_sin_nombre_379-9" x1="-2602.44" y1="219.27" x2="-2602.44" y2="105.7" xlink:href="#Degradado_sin_nombre_379"/><linearGradient id="Degradado_sin_nombre_379-10" x1="-2645.87" y1="152.14" x2="-2578.61" y2="200.78" xlink:href="#Degradado_sin_nombre_379"/><linearGradient id="Degradado_sin_nombre_379-11" x1="-2608.31" y1="109.51" x2="-2608.31" y2="161.63" xlink:href="#Degradado_sin_nombre_379"/><linearGradient id="Degradado_sin_nombre_379-12" x1="-2608.31" y1="225.67" x2="-2608.31" y2="226.47" xlink:href="#Degradado_sin_nombre_379"/><linearGradient id="Degradado_sin_nombre_379-13" x1="-287.69" y1="3359.92" x2="-287.69" y2="3246.35" gradientTransform="matrix(0.52, 0.85, 0.85, -0.52, -2536.61, 2263.62)" xlink:href="#Degradado_sin_nombre_379"/><linearGradient id="Degradado_sin_nombre_379-14" x1="-331.11" y1="3292.79" x2="-263.86" y2="3341.43" gradientTransform="matrix(0.52, 0.85, 0.85, -0.52, -2536.61, 2263.62)" xlink:href="#Degradado_sin_nombre_379"/><linearGradient id="Degradado_sin_nombre_379-15" x1="-293.56" y1="3250.16" x2="-293.56" y2="3302.27" gradientTransform="matrix(0.52, 0.85, 0.85, -0.52, -2536.61, 2263.62)" xlink:href="#Degradado_sin_nombre_379"/><linearGradient id="Degradado_sin_nombre_379-16" x1="-293.56" y1="3366.25" x2="-293.56" y2="3367.19" gradientTransform="matrix(0.52, 0.85, 0.85, -0.52, -2536.61, 2263.62)" xlink:href="#Degradado_sin_nombre_379"/><linearGradient id="Degradado_sin_nombre_379-17" x1="-2584.83" y1="158.17" x2="-2584.83" y2="67.07" xlink:href="#Degradado_sin_nombre_379"/><linearGradient id="Degradado_sin_nombre_379-18" x1="-2671.19" y1="94.2" x2="-2587.56" y2="154.69" xlink:href="#Degradado_sin_nombre_379"/><linearGradient id="Degradado_sin_nombre_379-19" x1="-2608.31" y1="22.66" x2="-2608.31" y2="231.13" xlink:href="#Degradado_sin_nombre_379"/><linearGradient id="Degradado_sin_nombre_379-20" x1="-2608.31" y1="163.05" x2="-2608.31" y2="166.24" xlink:href="#Degradado_sin_nombre_379"/><linearGradient id="Degradado_sin_nombre_379-21" x1="-2592.94" y1="140.81" x2="-2592.94" y2="81.18" xlink:href="#Degradado_sin_nombre_379"/><linearGradient id="Degradado_sin_nombre_379-22" x1="-2649.47" y1="98.95" x2="-2594.73" y2="138.54" xlink:href="#Degradado_sin_nombre_379"/><linearGradient id="Degradado_sin_nombre_379-23" x1="-2608.31" y1="52.12" x2="-2608.31" y2="188.57" xlink:href="#Degradado_sin_nombre_379"/><linearGradient id="Degradado_sin_nombre_379-24" x1="-2608.31" y1="143.86" x2="-2608.31" y2="146.25" xlink:href="#Degradado_sin_nombre_379"/><linearGradient id="Degradado_sin_nombre_379-25" x1="-2474.33" y1="364.11" x2="-2474.33" y2="273.01" xlink:href="#Degradado_sin_nombre_379"/><linearGradient id="Degradado_sin_nombre_379-26" x1="-2560.69" y1="300.15" x2="-2477.06" y2="360.63" xlink:href="#Degradado_sin_nombre_379"/><linearGradient id="Degradado_sin_nombre_379-27" x1="-2497.81" y1="228.61" x2="-2497.81" y2="437.07" xlink:href="#Degradado_sin_nombre_379"/><linearGradient id="Degradado_sin_nombre_379-28" x1="-2497.81" y1="368.99" x2="-2497.81" y2="372.18" xlink:href="#Degradado_sin_nombre_379"/><linearGradient id="Degradado_sin_nombre_379-29" x1="-2482.44" y1="346.76" x2="-2482.44" y2="287.12" xlink:href="#Degradado_sin_nombre_379"/><linearGradient id="Degradado_sin_nombre_379-30" x1="-2538.97" y1="304.89" x2="-2484.23" y2="344.48" xlink:href="#Degradado_sin_nombre_379"/><linearGradient id="Degradado_sin_nombre_379-31" x1="-2497.81" y1="258.06" x2="-2497.81" y2="394.52" xlink:href="#Degradado_sin_nombre_379"/><linearGradient id="Degradado_sin_nombre_379-32" x1="-2497.81" y1="350.2" x2="-2497.81" y2="351.79" xlink:href="#Degradado_sin_nombre_379"/><linearGradient id="Degradado_sin_nombre_379-33" x1="-2659.89" y1="360.74" x2="-2526" y2="360.74" xlink:href="#Degradado_sin_nombre_379"/><linearGradient id="Degradado_sin_nombre_405" x1="-2511.38" y1="376.92" x2="-2418.63" y2="376.92" gradientTransform="matrix(-1, 0, 0, 1, -2407.97, 0)" gradientUnits="userSpaceOnUse"><stop offset="0" stop-color="#254168" stop-opacity="0"/><stop offset="1" stop-color="#fff"/></linearGradient><linearGradient id="Degradado_sin_nombre_405-2" x1="-2528.82" y1="352.47" x2="-2436.07" y2="352.47" xlink:href="#Degradado_sin_nombre_405"/><linearGradient id="Degradado_sin_nombre_405-3" x1="-2462.88" y1="355.43" x2="-2438.85" y2="355.43" xlink:href="#Degradado_sin_nombre_405"/><linearGradient id="Degradado_sin_nombre_379-34" x1="-2649.59" y1="78.9" x2="-2650.12" y2="21.32" xlink:href="#Degradado_sin_nombre_379"/><linearGradient id="Degradado_sin_nombre_379-35" x1="-2631.53" y1="69.69" x2="-2632.06" y2="12.11" xlink:href="#Degradado_sin_nombre_379"/><linearGradient id="Degradado_sin_nombre_379-36" x1="-2635.71" y1="372.6" x2="-2521.03" y2="372.6" xlink:href="#Degradado_sin_nombre_379"/><linearGradient id="Degradado_sin_nombre_379-37" x1="-2517.75" y1="423.86" x2="-2520.98" y2="363.91" xlink:href="#Degradado_sin_nombre_379"/><linearGradient id="Degradado_sin_nombre_379-38" x1="-2561.61" y1="211.91" x2="-2514.15" y2="211.91" xlink:href="#Degradado_sin_nombre_379"/><linearGradient id="Degradado_sin_nombre_379-39" x1="-2583.62" y1="196.31" x2="-2551.78" y2="196.31" xlink:href="#Degradado_sin_nombre_379"/><linearGradient id="Degradado_sin_nombre_379-40" x1="-2595.8" y1="184.24" x2="-2548.34" y2="184.24" xlink:href="#Degradado_sin_nombre_379"/></defs><title>cubes and arrows</title><polygon class="cls-1" points="153.39 217.86 200.35 244.97 200.35 299.2 153.39 272.08 153.39 217.86"/><polygon class="cls-2" points="247.31 217.86 247.31 272.08 200.35 299.2 200.35 244.97 247.31 217.86"/><polygon class="cls-3" points="153.39 217.86 200.35 190.75 247.31 217.86 200.35 244.97 153.39 217.86"/><polygon class="cls-4" points="200.35 300.48 200.35 300.48 200.35 300.48 200.35 300.48"/><polygon class="cls-5" points="169.61 226.81 200.35 244.55 200.35 280.05 169.61 262.3 169.61 226.81"/><polygon class="cls-6" points="231.09 226.81 231.09 262.3 200.35 280.05 200.35 244.55 231.09 226.81"/><polygon class="cls-7" points="169.61 226.81 200.35 209.06 231.09 226.81 200.35 244.55 169.61 226.81"/><polygon class="cls-8" points="200.35 280.89 200.34 280.89 200.35 280.89 200.35 280.89"/><polygon class="cls-9" points="188.6 124.35 200.34 131.13 200.34 225.75 188.6 218.97 188.6 124.35"/><polygon class="cls-10" points="212.08 124.35 212.08 218.97 200.34 225.75 200.34 131.13 212.08 124.35"/><polygon class="cls-11" points="188.6 124.35 200.34 117.57 212.08 124.35 200.34 131.13 188.6 124.35"/><polygon class="cls-12" points="200.34 226.07 200.34 226.07 200.34 226.07 200.34 226.07"/><polygon class="cls-13" points="102.09 320.15 101.75 306.6 182.48 257.24 182.82 270.79 102.09 320.15"/><polygon class="cls-14" points="89.84 300.12 170.57 250.76 182.48 257.24 101.75 306.6 89.84 300.12"/><polygon class="cls-15" points="102.09 320.15 90.19 313.67 89.84 300.12 101.75 306.6 102.09 320.15"/><polygon class="cls-16" points="182.75 257.07 182.75 257.07 182.75 257.07 182.75 257.07"/><polygon class="cls-17" points="153.38 82.03 200.35 109.14 200.35 163.37 153.38 136.25 153.38 82.03"/><polygon class="cls-18" points="247.31 82.03 247.31 136.25 200.34 163.36 200.34 109.14 247.31 82.03"/><polygon class="cls-19" points="153.38 82.03 200.34 54.91 247.31 82.03 200.34 109.14 153.38 82.03"/><polygon class="cls-20" points="200.34 164.64 200.34 164.64 200.35 164.64 200.34 164.64"/><polygon class="cls-21" points="169.6 90.97 200.34 108.72 200.34 144.22 169.6 126.47 169.6 90.97"/><polygon class="cls-22" points="231.08 90.97 231.08 126.47 200.34 144.22 200.34 108.72 231.08 90.97"/><polygon class="cls-23" points="169.6 90.97 200.34 73.23 231.08 90.97 200.34 108.72 169.6 90.97"/><polygon class="cls-24" points="200.34 145.05 200.34 145.05 200.34 145.05 200.34 145.05"/><polygon class="cls-25" points="42.88 287.97 89.84 315.08 89.84 369.31 42.88 342.2 42.88 287.97"/><polygon class="cls-26" points="136.81 287.97 136.81 342.2 89.84 369.31 89.84 315.08 136.81 287.97"/><polygon class="cls-27" points="42.88 287.97 89.84 260.86 136.81 287.97 89.84 315.08 42.88 287.97"/><polygon class="cls-28" points="89.84 370.59 89.84 370.59 89.84 370.59 89.84 370.59"/><polygon class="cls-29" points="59.1 296.92 89.84 314.67 89.84 350.16 59.1 332.41 59.1 296.92"/><polygon class="cls-30" points="120.58 296.92 120.58 332.41 89.84 350.16 89.84 314.67 120.58 296.92"/><polygon class="cls-31" points="59.1 296.92 89.84 279.17 120.58 296.92 89.84 314.67 59.1 296.92"/><polygon class="cls-32" points="89.84 351 89.84 351 89.84 351 89.84 351"/><polyline class="cls-33" points="118.28 344.57 168.94 374.06 208.01 351 251.67 376.92"/><line class="cls-34" x1="103.17" y1="351.71" x2="10.9" y2="402.13"/><line class="cls-35" x1="120.61" y1="327.26" x2="28.34" y2="377.68"/><line class="cls-36" x1="54.67" y1="349" x2="31.12" y2="361.87"/><line class="cls-37" x1="241.89" y1="78.9" x2="241.89" y2="21.32"/><line class="cls-38" x1="223.83" y1="69.69" x2="223.83" y2="12.11"/><polygon class="cls-39" points="261.85 378.46 253.54 383.26 245.22 378.46 253.54 373.66 261.85 378.46"/><polygon class="cls-39" points="235.8 379.13 227.49 383.93 219.17 379.13 227.49 374.33 235.8 379.13"/><polygon class="cls-39" points="93.11 420.15 84.79 424.95 76.48 420.15 84.79 415.35 93.11 420.15"/><polygon class="cls-39" points="16.77 403.56 8.46 408.36 0.15 403.56 8.46 398.76 16.77 403.56"/><polygon class="cls-39" points="33.4 378.83 25.09 383.63 16.77 378.83 25.09 374.03 33.4 378.83"/><polygon class="cls-39" points="36.65 363.63 28.34 368.43 20.03 363.63 28.34 358.83 36.65 363.63"/><polyline class="cls-40" points="113.33 355.75 167.57 389.29 206.58 365.98 227.49 378.46"/><polyline class="cls-41" points="99.69 363.63 139.62 389.29 81.21 421.9"/><line class="cls-42" x1="153.39" y1="225.75" x2="106.43" y2="198.08"/><line class="cls-43" x1="175.4" y1="205.54" x2="144.07" y2="187.07"/><line class="cls-44" x1="187.58" y1="198.08" x2="140.62" y2="170.4"/><polygon class="cls-39" points="237.81 14.26 245.97 18.97 245.97 28.39 237.81 23.68 237.81 14.26"/><polygon class="cls-39" points="143.55 167.98 151.72 172.7 151.72 182.12 143.55 177.41 143.55 167.98"/><polygon class="cls-39" points="143.55 182.17 151.72 186.88 151.72 196.31 143.55 191.6 143.55 182.17"/><polygon class="cls-39" points="108.87 194.92 117.03 199.63 117.03 209.06 108.87 204.35 108.87 194.92"/><polygon class="cls-39" points="219.74 4.05 227.91 8.76 227.91 18.19 219.74 13.47 219.74 4.05"/></svg>