<?xml version="1.0" encoding="utf-8"?>
<!-- Generator: Adobe Illustrator 21.0.0, SVG Export Plug-In . SVG Version: 6.00 Build 0)  -->
<svg version="1.1" id="Capa_1" xmlns="http://www.w3.org/2000/svg" xmlns:xlink="http://www.w3.org/1999/xlink" x="0px" y="0px"
	 viewBox="0 0 480 480" style="enable-background:new 0 0 480 480;" xml:space="preserve">
<style type="text/css">
	.st0{fill:url(#SVGID_1_);}
</style>
<linearGradient id="SVGID_1_" gradientUnits="userSpaceOnUse" x1="95.9126" y1="407.9127" x2="391.9127" y2="111.9126">
	<stop  offset="0" style="stop-color:#FF303E"/>
	<stop  offset="1" style="stop-color:#0082BE"/>
</linearGradient>
<path class="st0" d="M456,312h-8v-64c0-2.6-1.3-5.1-3.5-6.6s-4.9-1.8-7.4-0.9L270.5,304H192c-22.1,0-40,17.9-40,40v32
	c0,19.3,13.8,35.5,32,39.2V456c0,13.2,10.8,24,24,24h16c13.2,0,24-10.8,24-24v-40h22.5l166.6,63.5c0.9,0.4,1.9,0.5,2.8,0.5
	c1.6,0,3.2-0.5,4.5-1.4c2.2-1.5,3.5-4,3.5-6.6v-64h8c13.2,0,24-10.8,24-24v-48C480,322.8,469.2,312,456,312z M232,456
	c0,4.4-3.6,8-8,8h-16c-4.4,0-8-3.6-8-8v-40h32V456z M264,400h-24h-48c-13.2,0-24-10.8-24-24v-32c0-13.2,10.8-24,24-24h72V400z
	 M432,320v80v60.4l-152-57.9v-85l152-57.9V320z M464,384c0,4.4-3.6,8-8,8h-8v-64h8c4.4,0,8,3.6,8,8V384z M287.3,131
	c-0.1-1-0.2-2-0.3-3c-0.4-3.9-1-7.8-1.8-11.7c-0.2-1.2-0.5-2.4-0.8-3.6c-0.7-3.2-1.5-6.5-2.5-9.6c-0.2-0.8-0.4-1.7-0.7-2.5
	c-1.2-3.8-2.6-7.4-4.1-11.1c-0.4-1-0.8-2-1.2-2.9c-1.5-3.5-3.2-7-5-10.4c0-0.1-0.1-0.1-0.2-0.2C246.6,30.8,198.8,0,144,0
	S41.4,30.8,17.1,76c0,0.1-0.1,0.1-0.2,0.2c-1.8,3.4-3.4,6.9-5,10.4c-0.4,1-0.8,1.9-1.2,2.9c-1.5,3.6-2.9,7.3-4.1,11.1
	c-0.3,0.8-0.5,1.7-0.7,2.5c-0.9,3.2-1.8,6.4-2.5,9.6c-0.3,1.2-0.5,2.4-0.8,3.6c-0.8,3.9-1.4,7.8-1.8,11.7c-0.1,1-0.2,2-0.3,3
	c-0.4,4.3-0.7,8.6-0.7,13s0.3,8.6,0.7,13c0.1,1,0.2,2,0.3,3c0.4,3.9,1,7.8,1.8,11.7c0.2,1.2,0.5,2.4,0.8,3.6
	c0.7,3.2,1.5,6.5,2.5,9.6c0.2,0.8,0.4,1.7,0.7,2.5c1.2,3.8,2.6,7.4,4.1,11.1c0.4,1,0.8,2,1.2,2.9c1.5,3.5,3.2,7,5,10.4
	c0,0.1,0.1,0.1,0.2,0.2c24.3,45.2,72.1,76,126.9,76s102.6-30.8,126.9-76c0-0.1,0.1-0.1,0.2-0.2c1.8-3.4,3.4-6.9,5-10.4
	c0.4-1,0.8-1.9,1.2-2.9c1.5-3.6,2.9-7.3,4.1-11.1c0.3-0.8,0.5-1.7,0.7-2.5c0.9-3.2,1.8-6.4,2.5-9.6c0.3-1.2,0.5-2.4,0.8-3.6
	c0.8-3.9,1.4-7.8,1.8-11.7c0.1-1,0.2-2,0.3-3c0.4-4.3,0.7-8.6,0.7-13S287.7,135.4,287.3,131z M124.3,17.7
	c-10.3,12.2-24,31.1-35,54.3h-51C57.8,43.4,88.7,23.2,124.3,17.7z M16.5,133.5c0.2-2.2,0.4-4.4,0.7-6.6c0.3-1.9,0.5-3.8,0.9-5.7
	c0.4-2.3,0.9-4.7,1.5-7c0.4-1.7,0.9-3.5,1.3-5.2c0.6-2.3,1.4-4.5,2.1-6.7c0.6-1.8,1.2-3.5,1.9-5.3c0.8-2,1.7-4,2.6-6
	c0.5-1,1-2,1.5-3.1h53.5c-5.5,14.8-9.2,31-10.2,48h-56C16.5,135.2,16.5,134.4,16.5,133.5z M27.6,196.9c-0.9-2-1.8-4-2.6-6
	c-0.7-1.7-1.3-3.5-1.9-5.3c-0.8-2.2-1.5-4.5-2.1-6.7c-0.5-1.7-0.9-3.4-1.3-5.2c-0.6-2.3-1.1-4.6-1.5-7c-0.3-1.9-0.6-3.8-0.9-5.7
	c-0.3-2.2-0.6-4.4-0.7-6.6c-0.1-0.8-0.1-1.6-0.1-2.5h56c1,17,4.7,33.2,10.2,48H29.1C28.6,199,28.1,198,27.6,196.9z M38.3,216h51.1
	c10.9,23.2,24.7,42.1,35,54.3C88.7,264.8,57.8,244.6,38.3,216z M136,259.2c-8.4-10.2-19.4-25.1-28.7-43.2H136V259.2z M136,200H99.9
	c-6-14.7-10.5-31-11.6-48H136V200z M136,136H88.3c1.1-17,5.5-33.3,11.6-48H136V136z M136,72h-28.7c9.3-18.1,20.3-33,28.7-43.2V72z
	 M249.7,72h-51.1c-10.9-23.2-24.7-42.1-35-54.3C199.3,23.2,230.2,43.4,249.7,72z M152,28.8c8.4,10.2,19.4,25.1,28.7,43.2H152V28.8z
	 M152,88h36.1c6,14.7,10.5,31,11.6,48H152V88z M152,152h47.7c-1.1,17-5.5,33.3-11.6,48H152V152z M152,216h28.7
	c-9.3,18.1-20.3,33-28.7,43.2V216z M163.7,270.3c10.3-12.2,24.1-31.1,35-54.3h51.1C230.2,244.6,199.3,264.8,163.7,270.3z
	 M271.5,154.5c-0.2,2.2-0.4,4.4-0.7,6.6c-0.3,1.9-0.5,3.8-0.9,5.7c-0.4,2.3-0.9,4.6-1.5,7c-0.4,1.7-0.9,3.5-1.3,5.2
	c-0.6,2.3-1.4,4.5-2.1,6.7c-0.6,1.8-1.2,3.5-1.9,5.3c-0.8,2-1.7,4-2.6,6c-0.5,1-1,2-1.5,3.1h-53.5c5.5-14.8,9.2-31,10.2-48h56
	C271.5,152.8,271.5,153.6,271.5,154.5z M215.6,136c-1-17-4.7-33.2-10.2-48h53.5c0.5,1,1,2,1.5,3.1c0.9,2,1.8,4,2.6,6
	c0.7,1.7,1.3,3.5,1.9,5.3c0.8,2.2,1.5,4.5,2.1,6.7c0.5,1.7,0.9,3.5,1.3,5.2c0.6,2.3,1.1,4.6,1.5,7c0.3,1.9,0.6,3.8,0.9,5.7
	c0.3,2.2,0.6,4.4,0.7,6.6c0.1,0.8,0.1,1.6,0.1,2.5L215.6,136L215.6,136z M304,136h16v16h-16V136z M336,136h16v16h-16V136z M368,136
	h16v16h-16V136z M400,136h16v16h-16V136z M400,168h16v16h-16V168z M400,200h16v16h-16V200z M120,352h16v16h-16V352z M88,352h16v16
	H88V352z M56,352h16v16H56V352z M56,320h16v16H56V320z M56,288h16v16H56V288z"/>
</svg>
