<svg xmlns="http://www.w3.org/2000/svg" viewBox="0 0 740 324.03"><defs><style>.cls-1{fill:#fff;}</style></defs><title>Avezor software short logo</title><g id="Color_on_black" data-name="Color on black"><path class="cls-1" d="M133.47,316.71H96.77q-27,0-40.29-13.31-15.12-15.11-15.11-39.93V211.3q0-15.46-6.11-21.59-6.84-6.83-18.71-6.83H0V141.15H16.55q11.87,0,18.71-6.84,6.11-6.11,6.11-21.59V60.57q0-24.83,15.11-39.93Q69.79,7.33,96.77,7.32h36.7V49.41H114.4q-15.48,0-20.51,5-5.76,6.12-5.76,23V126q0,11.87-4.67,20t-9,10.79A61.24,61.24,0,0,1,63.31,162a61.65,61.65,0,0,1,11.15,5.21q4.31,2.7,9,10.79t4.67,20v48.57q0,16.91,5.76,23,5,5,20.51,5h19.07Z"/><path class="cls-1" d="M376.65,290.09H324.49l-15.11-45.33h-91L202.9,290.09H150.73L243.91,33.94h39.21Zm-80.58-87.42-31.3-93.18L232.4,202.67Z"/><path class="cls-1" d="M573.8,214.54q0,36.34-26.62,57t-68.35,20.68q-30.58,0-52.89-7.73t-40.65-26.08l32.38-32.38q21.58,21.59,61.52,21.59,22.3,0,34-8.27t11.69-23.74q0-13.31-7.92-21.23-6.83-6.48-23-8.63l-30.58-4.68q-32.38-4.67-49.65-21.23-18.35-18-18.35-50.37,0-34.89,24.11-56.3t65.12-21.41q51.8,0,82.74,29.86l-31.66,31.3q-18-17.62-52.52-17.63-19.08,0-29.14,9.17a30,30,0,0,0-10.07,23.2q0,11.52,7.2,18.35,8.26,7.55,23.38,9.71l30.58,4.68q32.73,4.68,48.92,20.15Q573.8,178.93,573.8,214.54Z"/><path class="cls-1" d="M740,182.88H723.45q-11.87,0-18.71,6.83-6.12,6.12-6.11,21.59v52.17q0,24.82-15.11,39.93-13.32,13.3-40.29,13.31h-36.7V274.62H625.6q15.47,0,20.51-5,5.74-6.11,5.76-23V198q0-11.87,4.67-20t9-10.79A61.46,61.46,0,0,1,676.69,162a61.06,61.06,0,0,1-11.15-5.22q-4.31-2.7-9-10.79t-4.67-20V77.48q0-16.91-5.76-23-5.05-5-20.51-5H606.53V7.32h36.7q27,0,40.29,13.31,15.12,15.11,15.11,39.93v52.16q0,15.47,6.11,21.59,6.83,6.84,18.71,6.84H740Z"/></g></svg>