<svg xmlns="http://www.w3.org/2000/svg" xmlns:xlink="http://www.w3.org/1999/xlink" width="212" height="42" viewBox="0 0 212 42">
    <defs>
        <path id="a" d="M.129.126H32.99V32.98H.13z"/>
    </defs>
    <g fill="none" fill-rule="evenodd">
        <g transform="translate(19.5 .024)">
            <mask id="b" fill="#fff">
                <use xlink:href="#a"/>
            </mask>
            <path fill="#E23E57" d="M23.024 7.343c-2.449 0-4.468 2.035-4.455 4.489.014 2.409 2.044 4.424 4.455 4.42 2.444-.003 4.493-2.069 4.46-4.496-.033-2.428-2.04-4.413-4.46-4.413M9.478 31.311l4.3-3.14c.626-.457 1.246-.921 1.887-1.356.29-.197.335-.347.115-.647A2184.01 2184.01 0 0 1 7.63 14.96c-.256-.355-.408-.288-.7-.073-2.129 1.568-4.27 3.12-6.415 4.682-1.37-5.226.849-13.043 7.614-17.149 6.639-4.03 15.704-2.637 20.79 3.29 5.39 6.28 5.439 15.293.081 21.558-5.316 6.216-13.878 7.016-19.522 4.043" mask="url(#b)"/>
        </g>
        <path fill="#38364D" d="M32.786 25.666a.665.665 0 0 1-.183.948c-3.048 2.218-6.098 4.434-9.149 6.65-3.636 2.64-7.277 5.274-10.905 7.924-.402.294-.6.375-.958-.124a2777.805 2777.805 0 0 0-11.395-15.7c-.323-.443-.285-.584.406-1.073 1.89-1.341 3.09-2.391 4.935-3.603.608-.399.667-.228.889.08 1.566 2.164 3.157 4.31 4.692 6.497.351.5.567.493 1.021.16 4.595-3.36 9.205-6.7 13.805-10.053.323-.235.527-.451.872.033 1.969 2.766 3.974 5.506 5.966 8.256l.004.005z"/>
        <text font-family="AvenirNext-Medium, Avenir Next" font-size="20" font-weight="400">
            <tspan x="65" y="28" fill="#3F3D56">Turn</tspan> <tspan x="105.1" y="28" fill="#E23E57" font-family="AvenirNext-Bold, Avenir Next" font-weight="bold">Key</tspan> <tspan x="141.98" y="28" fill="#3F3D56"> Lender</tspan>
        </text>
    </g>
</svg>
