<svg xmlns="http://www.w3.org/2000/svg" width="20" height="21" viewBox="0 0 20 21">
    <path fill="#E23E57" fill-rule="evenodd" d="M19.96 16.283a.968.968 0 0 1-.296.847l-2.812 2.795a1.583 1.583 0 0 1-.497.36 2.05 2.05 0 0 1-.602.19 2.09 2.09 0 0 0-.127.012c-.07.007-.162.01-.275.01-.268 0-.701-.046-1.3-.138-.599-.091-1.332-.317-2.198-.677-.867-.36-1.85-.9-2.95-1.62-1.099-.72-2.269-1.708-3.509-2.965-.986-.974-1.804-1.906-2.452-2.795-.648-.89-1.17-1.712-1.564-2.467C.983 9.079.687 8.395.49 7.78a10.914 10.914 0 0 1-.402-1.589c-.07-.444-.099-.794-.084-1.048.014-.254.02-.395.02-.423a2.06 2.06 0 0 1 .19-.604c.1-.205.22-.37.36-.498L3.386.803a.93.93 0 0 1 .676-.296c.184 0 .346.052.487.158.14.106.26.237.359.392L7.17 5.356c.127.226.162.473.106.741a1.32 1.32 0 0 1-.36.678L5.88 7.812a.353.353 0 0 0-.074.138.523.523 0 0 0-.031.159c.056.296.183.635.38 1.016.17.34.43.752.782 1.24.353.486.853 1.047 1.501 1.683.635.65 1.198 1.154 1.692 1.514.493.36.905.625 1.236.794.331.17.585.272.761.307l.264.053c.029 0 .075-.01.138-.032a.353.353 0 0 0 .137-.074l1.205-1.228c.254-.226.55-.34.888-.34.24 0 .43.043.57.128h.022l4.08 2.414c.296.184.472.417.529.699z"/>
</svg>
