<svg id="Слой_1" data-name="Слой 1" xmlns="http://www.w3.org/2000/svg" viewBox="0 0 45 45"><defs><style>.cls-1{fill:#48a93b;}.cls-2{fill:#fff;}</style></defs><title>call button</title><circle class="cls-1" cx="22.5" cy="22.5" r="22"/><path class="cls-2" d="M29,26.54a1.75,1.75,0,0,0-2.65,0c-.62.61-1.24,1.23-1.85,1.85a.36.36,0,0,1-.51.09c-.4-.22-.83-.4-1.21-.63a19.21,19.21,0,0,1-4.63-4.21A11,11,0,0,1,16.5,21a.38.38,0,0,1,.09-.49c.62-.6,1.22-1.21,1.83-1.83a1.76,1.76,0,0,0,0-2.71L17,14.49c-.5-.5-1-1-1.5-1.5a1.76,1.76,0,0,0-2.65,0c-.62.61-1.22,1.24-1.86,1.85a3,3,0,0,0-.95,2,8.62,8.62,0,0,0,.67,3.71,22.54,22.54,0,0,0,4,6.66,24.76,24.76,0,0,0,8.2,6.41A11.86,11.86,0,0,0,27.43,35a3.33,3.33,0,0,0,2.86-1.09c.53-.59,1.13-1.13,1.69-1.7a1.77,1.77,0,0,0,0-2.69Z"/><path class="cls-2" d="M28,22.39l1.92-.33A8.62,8.62,0,0,0,22.64,15l-.27,1.93A6.66,6.66,0,0,1,28,22.39Z"/><path class="cls-2" d="M31,14a14.15,14.15,0,0,0-8.12-4l-.27,1.93A12.35,12.35,0,0,1,33.08,22.06L35,21.73A14.26,14.26,0,0,0,31,14Z"/></svg>