<svg xmlns="http://www.w3.org/2000/svg" xmlns:xlink="http://www.w3.org/1999/xlink" width="571" height="291" viewBox="0 0 571 291">
    <defs>
        <filter id="a" width="198.1%" height="220%" x="-47.5%" y="-60%" filterUnits="objectBoundingBox">
            <feOffset dy="2" in="SourceAlpha" result="shadowOffsetOuter1"/>
            <feGaussianBlur in="shadowOffsetOuter1" result="shadowBlurOuter1" stdDeviation="2"/>
            <feColorMatrix in="shadowBlurOuter1" result="shadowMatrixOuter1" values="0 0 0 0 0 0 0 0 0 0 0 0 0 0 0 0 0 0 0.2 0"/>
            <feMerge>
                <feMergeNode in="shadowMatrixOuter1"/>
                <feMergeNode in="SourceGraphic"/>
            </feMerge>
        </filter>
        <path id="b" d="M.061.06H15.71v15.644H.06z"/>
        <filter id="d" width="198.1%" height="220%" x="-47.5%" y="-60%" filterUnits="objectBoundingBox">
            <feOffset dy="2" in="SourceAlpha" result="shadowOffsetOuter1"/>
            <feGaussianBlur in="shadowOffsetOuter1" result="shadowBlurOuter1" stdDeviation="2"/>
            <feColorMatrix in="shadowBlurOuter1" result="shadowMatrixOuter1" values="0 0 0 0 0 0 0 0 0 0 0 0 0 0 0 0 0 0 0.2 0"/>
            <feMerge>
                <feMergeNode in="shadowMatrixOuter1"/>
                <feMergeNode in="SourceGraphic"/>
            </feMerge>
        </filter>
        <path id="e" d="M.061.06H15.71v15.644H.06z"/>
        <filter id="g" width="198.1%" height="220%" x="-47.5%" y="-60%" filterUnits="objectBoundingBox">
            <feOffset dy="2" in="SourceAlpha" result="shadowOffsetOuter1"/>
            <feGaussianBlur in="shadowOffsetOuter1" result="shadowBlurOuter1" stdDeviation="2"/>
            <feColorMatrix in="shadowBlurOuter1" result="shadowMatrixOuter1" values="0 0 0 0 0 0 0 0 0 0 0 0 0 0 0 0 0 0 0.2 0"/>
            <feMerge>
                <feMergeNode in="shadowMatrixOuter1"/>
                <feMergeNode in="SourceGraphic"/>
            </feMerge>
        </filter>
        <path id="h" d="M.061.06H15.71v15.644H.06z"/>
        <filter id="j" width="198.1%" height="220%" x="-47.5%" y="-60%" filterUnits="objectBoundingBox">
            <feOffset dy="2" in="SourceAlpha" result="shadowOffsetOuter1"/>
            <feGaussianBlur in="shadowOffsetOuter1" result="shadowBlurOuter1" stdDeviation="2"/>
            <feColorMatrix in="shadowBlurOuter1" result="shadowMatrixOuter1" values="0 0 0 0 0 0 0 0 0 0 0 0 0 0 0 0 0 0 0.2 0"/>
            <feMerge>
                <feMergeNode in="shadowMatrixOuter1"/>
                <feMergeNode in="SourceGraphic"/>
            </feMerge>
        </filter>
        <path id="k" d="M.061.06H15.71v15.644H.06z"/>
        <filter id="m" width="198.1%" height="220%" x="-47.5%" y="-60%" filterUnits="objectBoundingBox">
            <feOffset dy="2" in="SourceAlpha" result="shadowOffsetOuter1"/>
            <feGaussianBlur in="shadowOffsetOuter1" result="shadowBlurOuter1" stdDeviation="2"/>
            <feColorMatrix in="shadowBlurOuter1" result="shadowMatrixOuter1" values="0 0 0 0 0 0 0 0 0 0 0 0 0 0 0 0 0 0 0.2 0"/>
            <feMerge>
                <feMergeNode in="shadowMatrixOuter1"/>
                <feMergeNode in="SourceGraphic"/>
            </feMerge>
        </filter>
        <path id="n" d="M.061.06H15.71v15.644H.06z"/>
    </defs>
    <g fill="none" fill-rule="evenodd">
        <path fill="#3F3D56" d="M133.01 26.343a18.968 18.968 0 0 0-1.237-4.742 2.146 2.146 0 0 0-1.09-1.344 2.243 2.243 0 0 0-1.082-.012l-5.552.85c-.465.022-.91.195-1.267.494-.724.761-.011 1.987-.034 3.038-.024 1.18-1.073 2.14-2.21 2.457a8.345 8.345 0 0 1-3.511-.044l-7.764-1.208a12.8 12.8 0 0 0 5.873-3.924c1.022-1.212 1.566-3.474.089-4.048a3.62 3.62 0 0 0-1.349-.108c-3.517.027-6.285-2.913-9.579-4.152a10.584 10.584 0 0 0-11.92 3.558l4.137.2c.389-.022.775.08 1.101.294.907.745-.22 2.177-.093 3.345.166 1.517 2.178 1.84 3.695 1.994 1.516.153 3.44 1.387 2.71 2.727-7.622 2.628-15.378-5.138-23.382-4.182-2.026.242-3.94 1.039-5.917 1.54-12.083 3.06-24.575-5.106-36.918-3.376a46.834 46.834 0 0 0-8.059 2.127c-1.68.553-3.432 1.15-4.653 2.43-1.22 1.281-1.685 3.471-.528 4.81a27.011 27.011 0 0 1-9.477-.901 5.316 5.316 0 0 1 2.73 4.684 56.178 56.178 0 0 0-14.404 4.397A24.286 24.286 0 0 0 6.3 41.223L0 45.276c2.128.536 3.229 3.442 1.991 5.257 2.207-.983 3.575-3.526 5.935-4.041 1.546-.338 3.12.295 4.586.89 1.467.595 3.079 1.172 4.597.725 1.519-.446 2.639-2.417 1.674-3.673a78.475 78.475 0 0 1 19.955-3.122 2.5 2.5 0 0 1 1.511.287c.88.612.649 1.931.601 3.002-.047 1.071.787 2.479 1.743 1.996-1.125.977-.164 2.815.916 3.842 1.079 1.027 2.38 2.444 1.719 3.78-.173.348-.465.627-.631.979-.49 1.038.288 2.249 1.205 2.938.917.69 2.04 1.172 2.677 2.126.637.955.348 2.627-.791 2.76l-3.238-4.116a8.442 8.442 0 0 0-2.187 4.15c3.433 2.81 3.95 8.53 1.075 11.911-1.469 1.728-3.558 2.778-5.381 4.125-1.823 1.348-3.51 3.267-3.506 5.536.008 3.92-.312 7.562 1.155 11.196a172.564 172.564 0 0 0 9.353 19.535c.925 1.657 2.12 3.473 3.995 3.758a230.99 230.99 0 0 1-6.397-17.59c1.235.005 2.662.104 3.386 1.105.6.83.47 1.957.657 2.964a9.187 9.187 0 0 0 1.17 2.752l11.31 20.173c.938 1.672 2.014 3.468 3.806 4.145 1.146.433 2.472.351 3.526.975.827.488 1.384 1.355 2.226 1.816 2.383 1.301 5.697-1.195 7.924.36.636.443 1.041 1.15 1.628 1.658 2.057 1.783 5.43.59 7.805 1.92 1.53.858 2.323 2.572 3.139 4.126 2.044 3.892 5.352 7.705 9.733 8.015 1.377.097 2.782-.164 4.128.142 1.345.307 2.67 1.482 2.453 2.846-.37 2.34.784 4.9.474 7.248-.564 4.276-6.623 6.155-7.143 10.437-.114.938.064 1.905-.159 2.823-.273 1.125-1.117 2.04-1.417 3.158-.568 2.119.948 4.227 2.614 5.652 1.665 1.426 3.652 2.655 4.562 4.65.963 2.109.49 4.568.803 6.865.683 5.015 5.01 8.733 9.463 11.13 1.356.73 2.813 1.438 3.691 2.705 1.146 1.654 1.032 3.834 1.415 5.81.937 4.84 5.006 8.827 5.122 13.755.082 3.503-1.863 6.68-3.025 9.986a23.312 23.312 0 0 0 1.9 19.314c.869 1.469 1.908 2.854 2.523 4.447 1.097 2.842.741 6.073 1.753 8.947 1.337 3.8 5.012 6.938 4.66 10.951 1.669 3.469 5.353 5.173 9.057 6.206l6.64 1.85c1.27.354 2.6.711 3.894.455 1.294-.257 2.53-1.333 2.496-2.654-3.256-.735-6.616-1.516-9.3-3.503-2.684-1.986-4.522-5.523-3.504-8.705.472-1.476 1.477-3.18.522-4.4-.547-.697-1.547-.88-2.164-1.517-.962-.993-.631-2.662.06-3.86.692-1.198 1.692-2.269 1.97-3.624a3.783 3.783 0 0 0-1.77-3.933 9.386 9.386 0 0 0 3.287-2.111c.864-.989 1.263-2.512.583-3.635 2.019.256 4.402.382 5.728-1.164 1.058-1.235.985-3.08.567-4.653-.418-1.572-1.125-3.099-1.147-4.726 4.657.221 9.324.063 13.956-.474a9.058 9.058 0 0 0-4.243-5.32c2.097-.355 4.008-2.87 4.67-4.893.664-2.024.495-4.228.085-6.318a3.394 3.394 0 0 1-.063-1.656c.236-.753.976-1.213 1.66-1.607l10.412-5.986a6.065 6.065 0 0 0 1.664-1.23c1.091-1.283.93-3.22.371-4.809-.558-1.59-1.453-3.084-1.668-4.754-.644-4.998 4.7-8.583 6.503-13.287.707-1.846.851-3.852.988-5.825.147-2.119.158-4.58-1.466-5.945-1.558-1.308-3.992-1.016-5.621-2.234-1.494-1.116-2.01-3.283-3.642-4.185-1.483-.818-3.341-.298-4.99-.683-2.903-.678-4.73-4.027-7.694-4.337-1.673-.175-3.566.643-4.937-.332-1.208-.86-1.257-2.587-1.487-4.053a11.31 11.31 0 0 0-9.123-9.163c-1.725-.277-3.602-.172-5.07-1.12-1.485-.962-2.166-2.76-3.333-4.091-1.881-2.145-4.843-2.907-7.618-3.56l-11.288-2.656c-2.003-.472-4.586-.722-5.661 1.035a8.129 8.129 0 0 0-.67 2.109 6.524 6.524 0 0 1-6.134 4.623 7.256 7.256 0 0 0-4.278-3.314c-1.145-.32-2.37-.355-3.462-.825a4.873 4.873 0 0 1-2.11-6.752 6.064 6.064 0 0 0-1.033-7.289c-1.92-1.725-4.697-2.142-7.27-1.97-.675-1.472.453-3.133 1.667-4.203 1.215-1.07 2.69-2.123 2.954-3.72.416-2.515-2.787-4.424-5.22-3.674-2.432.75-3.985 3.115-5.011 5.446-.59 1.338-1.09 2.747-2.019 3.875-.928 1.128-2.424 1.936-3.84 1.574-2.002-.513-2.776-2.895-3.219-4.917-.595-2.712-1.193-5.462-1.068-8.236.124-2.774 1.058-5.623 3.102-7.5 3.33-3.061 8.437-2.761 12.93-2.273-1.061-1.198-.799-3.216.337-4.343a4.928 4.928 0 0 1 4.47-1.1 6.159 6.159 0 0 1 3.463 2.074c1.277 1.558 1.64 3.663 2.606 5.432.965 1.77 3.135 3.278 4.911 2.329 1.535-.82 1.778-2.95 1.396-4.649-.381-1.698-1.192-3.35-1.054-5.086.264-3.312 3.693-5.305 6.719-6.67 3.026-1.363 6.49-3.198 6.97-6.485a5.92 5.92 0 0 1 .36-1.885 3.695 3.695 0 0 1 1.354-1.276c8.832-5.843 17.81-11.757 27.904-14.95.525-.166.587.018 1.122-.112.749-.433.252-1.632-.466-2.115-.718-.483-1.678-.854-1.86-1.7-.134-.623.232-1.234.328-1.864.233-1.546-1.615-2.975-3.05-2.356-.811-1.075.793-2.325 2.09-2.682a56.718 56.718 0 0 1 11.929-1.951c.465-.074.942.007 1.357.231.678.47.591 1.548.111 2.219-.48.67-1.227 1.091-1.825 1.659a4.993 4.993 0 0 0-1.293 5.018c2.106 1.072 4.396 2.176 6.728 1.798 2.333-.377 4.403-3.001 3.307-5.097-1.021-1.951-4.088-2.391-4.616-4.53-.617-2.504 2.924-4.731 2.126-7.184-.35-1.074-1.419-1.706-2.24-2.482a6.74 6.74 0 0 1-1.471-7.468 8.48 8.48 0 0 1-7.444-2.332c-1.78-1.8-3.2-4.637-5.73-4.556-2.32.073-4.318 2.783-6.487 1.957-.534-.204-1.096-.618-1.613-.375a1.335 1.335 0 0 0-.602 1c-.552 2.639.397 5.645-1.04 7.926-1.563 2.481-5.179 2.825-7.074 5.063-1.029 1.215-1.427 2.851-2.373 4.132-.946 1.28-2.953 2.095-4.087.979a5.645 5.645 0 0 0-1.53-6.859 15.025 15.025 0 0 0-3.381-1.646 20.042 20.042 0 0 1-3.777-2.107 3.722 3.722 0 0 1-1.386-1.485 3.388 3.388 0 0 1 .095-2.349 9.595 9.595 0 0 1 7.633-6.334c1.51-.206 3.27-.133 4.27-1.286.528-.61.806-1.532 1.574-1.78a2.32 2.32 0 0 1 1.454.18l5.64 1.987c.628.284 1.321.4 2.008.333a1.363 1.363 0 0 0 1.178-1.433c-.18-.938-1.621-1.388-1.49-2.334.073-.306.238-.583.472-.794a20.15 20.15 0 0 1 15.991-6.322c.712 1.17-.414 2.556-1.35 3.555-.937 1-1.69 2.785-.557 3.554.464.237.98.353 1.501.338a13.1 13.1 0 0 1 3.997 1.214c1.949.849 3.86 1.778 5.734 2.787-.165-1.237-.323-2.54.145-3.697.469-1.157 1.8-2.064 2.962-1.614 1.12.435 1.695 1.92 2.889 2.056 1.592.182 2.22-2.174 1.555-3.633-.665-1.46-1.981-2.683-2.091-4.283-.074-1.08.336-2.42-.526-3.074a2.343 2.343 0 0 0-1.016-.356l-21.514-3.964c-1.278-.235-3.123-.055-3.18 1.244-.032.726.615 1.443.329 2.11-.306.712-1.31.646-2.043.898-1.135.39-1.705 1.74-1.596 2.938.2 1.19.66 2.32 1.347 3.31-1.399-.585-3.518-.693-4.917-1.279zM116.094 8.322c-2.767-.839-5.811-.004-7.62 2.09-.352.426-.649 1.013-.353 1.473.423.66 1.502.4 2.297.164a6.285 6.285 0 0 1 3.629-.08c.747.235 1.415.65 2.165.876.744.285 1.599.17 2.223-.297.514-.481.547-1.229.548-1.902a1.447 1.447 0 0 0-.426-1.258c-.3-.16-.637-.25-.984-.266a3.466 3.466 0 0 1-1.984-1.062M123.86 6.003c-.614-.037-1.202.28-1.55.836a2.09 2.09 0 0 0-.155 1.885 6.554 6.554 0 0 0 2.852.204c.972-.166 1.758-.955 1.993-2.001a4.26 4.26 0 0 1-3.249-.68M150.204 2.292A32.425 32.425 0 0 0 143 4.727a5.384 5.384 0 0 1 3.457 5.41c-.097.441-.086.9.033 1.337.264.638 1.03.878 1.705 1.041 1.21.367 2.475.528 3.74.475a3.812 3.812 0 0 0 3.095-1.882 13.38 13.38 0 0 1 .644-1.514c1.616-2.449 6.415.512 8.15-1.855.61-.833.555-2.088 1.351-2.748.412-.288.89-.47 1.39-.528a98.034 98.034 0 0 1 10.554-1.496c1.679-.145 3.867-.745 3.881-2.422a29.366 29.366 0 0 0-18.65 2.497c-2.078 1.036-4.828 3.215-6.83 1.842-.75-.515-.713-1.9-1.745-2.478-1.055-.591-2.452-.35-3.571-.114z"/>
        <path fill="#3F3D56" d="M170.067 6.572l3.02.578a3.923 3.923 0 0 0-2.996 1.194 3.887 3.887 0 0 0-1.077 3.03c2.829.94 5.912.024 8.892.15 2.98.124 6.446 2.244 5.937 5.17-.154.884-.667 1.768-.4 2.625.187.601.72 1.028 1.02 1.581.626 1.154.126 2.613-.665 3.662-.79 1.048-1.854 1.885-2.548 3-1.726 2.77-.745 6.354.283 9.45a8.318 8.318 0 0 0 1.61 3.2c1.523 1.612 4.005 1.753 6.229 1.785 1.618.023 3.472-.056 4.495-1.305 1.336-1.63.402-4.172 1.282-6.085.799-1.737 2.834-2.483 4.678-3.011 3.378-.969 6.821-1.792 10.015-3.255 3.966-1.816 7.673-4.646 12.032-4.88 1.223-.066 2.476.078 3.654-.256 1.178-.333 2.297-1.347 2.208-2.564-.076-1.039-.96-1.802-1.649-2.585-.69-.783-1.232-1.988-.598-2.817l11.426-2.125c-.81-2.197-1.44-5.092.42-6.522.672-.516 1.571-.723 2.143-1.346.974-1.064.484-2.896-.64-3.8C237.712.54 236.191.33 234.75.212c-5.01-.414-10.05-.14-15.069.134l-29.437 1.606c-1.975.108-4.256-.057-6.068.614-1.534.568-2.624 1.611-4.378 1.977-3.238.677-6.802.219-9.732 2.03zM224.177 31.011a1.204 1.204 0 0 0-.84.182.99.99 0 0 0-.273.618 3.934 3.934 0 0 0 .621 2.923c.607.863 1.657 1.344 2.742 1.256 1.299-.159 2.256-1.217 3.45-1.733 1.84-.795 9.653-2.035 4.248-4.824-1.863-.961-3.066-.112-4.534.52a10.728 10.728 0 0 1-5.414 1.058zM273.827 4.795c-.697.25-1.28.695-1.659 1.267-.362.602-.121 1.348.547 1.695.26.083.536.122.813.114l2.835.074c1.204.032 2.708.257 3.032 1.275.24.756-.298 1.728.351 2.269.279.189.613.303.964.33.934.21 1.91.238 2.857.08 2.062-.485.978-1.59 1.628-2.573.994-1.506.822-.594 2.573-1.457 1.294-.637 2.965-1.793 1.885-3.416-1.877-2.824-13.056-.871-15.826.342zM327.302 3.287l-1.599.202c-3.605.455-7.23.914-10.703 1.937 1.503.562 3.08.927 4.687 1.087.885.041 1.764.16 2.626.353 1.534.431 3.08 1.546 4.561.975.919-.354 1.219-1.258 1.98-1.737.525-.331 2.518-.867 2.741-1.2 1.801-2.7-2.908-1.791-4.293-1.617zM334.954 10.452a28.425 28.425 0 0 0-5.579 4.231c-.71.692-1.435 1.552-1.371 2.56.086 1.338 1.463 2.115 2.656 2.638L335.493 22c.586-.856.05-2.037-.557-2.878-.606-.841-1.326-1.814-1.058-2.826.306-1.155 1.665-1.549 2.805-1.747 1.858-.325 6.87-.299 6.267-3.4-.71-3.653-6.131-1.776-7.996-.697zM333.322 216.12c-.45 1.393-.492 3.033.285 4.249.871 1.363 2.616 1.872 4.125 1.526 1.503-.428 2.842-1.35 3.83-2.637a14.262 14.262 0 0 0 2.203-3.618 29.827 29.827 0 0 0 1.632-6.398l1.465-8.234c.327-1.84.314-7.483-2.844-5.645-.863.503-2.86 4.468-3.765 5.592-1.63 2.027-1.845 3.993-2.703 6.448-1.075 3.075-3.235 5.638-4.228 8.718zM509.853 258.55a24.58 24.58 0 0 1-3.22-1.55 27.742 27.742 0 0 0-1.633 9l7.588-4.343c1.141-.654 2.435-1.562 2.41-2.888a.917.917 0 0 0-.42-.83 1.012 1.012 0 0 0-.531-.064c-1.125.095-2.151.655-3.213 1.044-1.06.39-2.302.596-3.276.018M549.194 260.463c-.826.21-1.633.482-2.414.811-1.728.823-2.903 2.385-4.457 3.469-1.488 1.037-3.279 1.606-5.037 2.16-.517.428-.28 1.29.282 1.665a3.688 3.688 0 0 0 1.988.418c1.827.038 3.75.055 5.35-.771a16.746 16.746 0 0 0 2.52-1.871c1.87-1.461 4.116-2.425 6.34-3.356a7.393 7.393 0 0 0 2.21-1.237c1.396-1.288 1.495-3.276-.52-3.714-1.628-.355-4.712 1.957-6.262 2.426zM566.47 249.15a6.392 6.392 0 0 0-1.867-5.15c-.02 1.897-.076 3.918-1.113 5.487-.738 1.117-1.895 1.872-2.704 2.937-.809 1.065-1.168 2.752-.22 3.687a3.49 3.49 0 0 0 2.108.747c1.888.229 4.074.356 5.399-1.049.723-.766 1.074-1.902 1.956-2.466.328-.142.622-.358.858-.632.364-.596-.214-1.382-.865-1.597-.651-.214-1.369-.113-2.023-.317-.655-.204-1.255-.962-.92-1.575M534.874 179.695a8.21 8.21 0 0 1-3.056.188c-1.696-.325-3.016-1.66-4.385-2.755-3.255-2.589-7.212-4.032-11.302-4.124-3.721-.074-7.477.98-11.131.245.239 1.387 1.375 2.427 2.588 3.045 1.212.618 2.55.93 3.768 1.535 1.951.98 3.499 2.661 4.359 4.736.392.956.64 1.997 1.234 2.833 1.214 1.707 3.517 2.082 5.55 1.942 2.649-.182 5.416-.978 7.88.053 1.887.789 3.236 2.512 4.81 3.853 1.575 1.34 3.793 2.335 5.6 1.368-3.854-1.304-6.449-5.073-6.405-9.304 1.773.17 6.88.105 6.605-3.042-.233-2.667-4.593-.86-6.115-.573zM511.884 199.934c.32-1.766 2.072-3.325 1.526-5.033-.377-1.182-1.74-1.766-2.975-1.795-1.235-.029-2.448.34-3.683.376a17.86 17.86 0 0 0-2.411.034c-2.45.405-3.961 2.986-6.271 3.904-1.404.558-2.982.451-4.443.837-3.315.876-5.413 4.024-7.73 6.562a27.561 27.561 0 0 1-14.005 8.207c-1.885.438-3.911.719-5.41 1.95-1.984 1.628-2.472 4.421-2.914 6.958A115.376 115.376 0 0 1 458 242.473l7.873 1.01c1.496.192 3.047.38 4.49-.065a13.014 13.014 0 0 0 2.953-1.581 29.392 29.392 0 0 1 11.519-4.178c2.061-.285 4.223-.337 6.157.433 1.935.77 3.595 2.517 3.757 4.601a4.82 4.82 0 0 1 4.834 1.182 8.458 8.458 0 0 1 2.308 4.629c.207 1.082.415 2.38 1.414 2.833.815.37 1.75-.028 2.643-.1 3.027-.244 5.538 3.303 8.513 2.692 3.19-.655 3.974-5.456 7.087-6.418 1.788-.553 4.295.12 5.151-1.552.755-1.473-.75-3.172-.595-4.822.19-2.03 2.575-2.892 4.412-3.759 6.336-2.987 9.342-11.555 6.272-17.875-1.819-3.744-5.398-6.691-6.059-10.804-.508-3.165.733-6.855-1.275-9.346-1.021-1.268-2.75-1.967-3.359-3.48-.382-.951-.229-2.03-.434-3.036-.206-1.006-1.08-2.057-2.067-1.797-2.868.757-3.784 9.66-5.32 11.823-2.333 3.288-7.125 1.122-6.39-2.929zM459.056 183.31c-.975-.244-2.04-.483-2.974-.136-.934.348-1.48 1.567-.73 2.172 5.866-.203 11.768-.405 17.584.304 6.701.816 13.333 2.837 20.064 2.242a112.996 112.996 0 0 0-11.704-2.414l-6.59-1.12a56.878 56.878 0 0 0-5.35-.735c-3.76-.276-6.604.608-10.3-.314zM464.632 162.239c-.488-.042-1.093-.078-1.345.35-.242.41.035.952-.095 1.41-.177.628-.982.789-1.616.703-.634-.085-1.32-.29-1.88.022a1.647 1.647 0 0 0-.617 1.85c.23.665.6 1.27 1.087 1.77a17.902 17.902 0 0 0 2.82 2.89c2.022 1.524 4.76 2.258 6.033 4.47.18.428.455.808.805 1.107.611.395 1.408.095 2.066-.212l2.306-1.077c.415-.152.786-.41 1.078-.748.527-.73.203-1.769-.239-2.555-.442-.787-1.008-1.601-.913-2.503.169-1.608 2.193-2.223 3.026-3.599.838-1.386.292-3.173.389-4.8.113-1.903 1.284-4.379-.6-5.8-1.6-1.209-3.13-.092-4.28 1.242-2.424 2.813-3.57 5.86-8.025 5.48zM478.424 134.47c.785 1.52 2.42 2.427 3.276 3.907.927 1.605.821 3.678 1.827 5.233 1.032 1.595 3.109 2.443 3.688 4.257.632 1.982-.802 4.39.34 6.121a2.52 2.52 0 0 0 3.724.346 2.788 2.788 0 0 0-.112-3.857c-.676-.624-1.648-.894-2.213-1.623a3.429 3.429 0 0 1-.573-1.412 9.354 9.354 0 0 1 .144-4.432c.15-.366.19-.77.11-1.16-.255-.747-1.256-.8-1.958-1.148-1.596-.788-1.557-3.067-1.278-4.841-.186 1.181-4.345-.828-4.78-1.498-.866-1.33-.395-3.894-.566-5.363-1.868.91-2.588 3.611-1.629 5.47zM437.774 157.428c-.767-.881-1.92-1.803-2.948-1.272-.783.406-.999 1.52-.692 2.363a5.17 5.17 0 0 0 1.672 2.047c2.14 1.813 4.445 3.45 6.313 5.557 3.342 3.772 5.112 8.862 8.746 12.336a4.87 4.87 0 0 0 2.754 1.531c1.06.101 2.248-.595 2.37-1.68.1-.893-.506-1.693-1.1-2.356-1.411-1.577-2.957-3.029-4.29-4.677a3.974 3.974 0 0 1-1.096-2.352c-.007-.887.78-1.816 1.618-1.596-1.018-.268-1.773-2.01-3.267-2.337-1.25-.274-1.551.52-3.037-.134-2.835-1.249-5.058-5.148-7.043-7.43zM503.603 74.014a24.77 24.77 0 0 1-2.488-.87c-2.188-.64-5.082.93-4.79 3.144.194 1.47 1.594 2.462 2.368 3.737 1.147 1.892.84 4.292.238 6.41a4.955 4.955 0 0 1-.827 1.824 6.319 6.319 0 0 1-1.96 1.378 26.068 26.068 0 0 0-7.671 6.368c-.23.239-.39.534-.463.853-.105.748.664 1.292 1.099 1.915.965 1.385.267 3.248.363 4.92-.03.482.197.944.6 1.222.581.288 1.27-.202 1.586-.76 1.047-1.854.258-4.828 2.222-5.722.371-.169.822-.24 1.07-.559.392-.505.013-1.254.212-1.859.3-.908 1.57-.948 2.545-.908 1.68.069 3.358-.15 4.96-.645a3.32 3.32 0 0 0 1.643-.93c.587-.716.535-1.733.417-2.643a35.273 35.273 0 0 0-4.332-12.92c1.724.216 3.6.402 5.09-.476.833-.492 1.832-1.963 1.419-2.964-.654-1.583-1.835-.25-3.3-.515zM290.498 98.708c.2 1.068.395 2.193.045 3.222-.35 1.028-1.454 1.888-2.495 1.573-.809-.245-1.276-1.056-1.85-1.675-3.192-3.44-10.393-1.449-12.365-5.705-.805-1.737-.258-3.818-.807-5.652a5.039 5.039 0 0 0-5.102-3.461 10.498 10.498 0 0 0-2.937.875 74.136 74.136 0 0 1-19.455 4.858 16.008 16.008 0 0 0-3.738.68c-2.741.991-4.614 3.529-5.947 6.118-1.333 2.589-2.317 5.392-4.104 7.692-1.878 2.418-4.51 4.11-6.964 5.941a7.1 7.1 0 0 0-2.298 2.405c-.532 1.09-.502 2.36-.46 3.572l.501 14.729c.065 1.894.146 3.857.995 5.552 1.06 2.117 3.155 3.504 4.609 5.374a10.515 10.515 0 0 1 2.187 6.722c-.031.975-.128 2.128.632 2.74.463.3 1.004.455 1.556.447l19.955 1.63c3.51.288 7.4.76 9.693 3.43 1.081 1.26 1.95 3.072 3.607 3.207.71.058 1.402-.233 2.113-.29 1.793-.141 3.368 1.218 4.362 2.714a12.025 12.025 0 0 1 1.937 7.726c-.163 1.708-.693 3.367-.807 5.079-.435 6.512 5.094 12.169 5.2 18.694.064 3.839-1.761 7.425-3.54 10.828 2.871 4.343.52 10.127 1.663 15.205 1.085 4.817 5.108 8.588 6.11 13.423.46 2.214.486 4.937 2.44 6.078a5.57 5.57 0 0 0 2.762.552 36.452 36.452 0 0 0 16.577-3.769c2.418-1.197 4.923-2.985 5.345-5.646.34-2.146-.75-4.547.36-6.416 1.307-2.203 4.657-2.029 6.58-3.722 3.12-2.748.687-7.99 1.952-11.947 1.136-3.558 5.049-5.448 6.988-8.641a15.34 15.34 0 0 0 1.624-4.395 62.592 62.592 0 0 0 1.652-11.207c.052-2.296.222-4.587.508-6.865 2.091-12.97 14.934-21.655 19.103-34.114.398-1.19.585-2.775-.475-3.449a3.04 3.04 0 0 0-2.02-.21l-9.198 1.157c-1.143.144-2.354.279-3.403-.195-1.05-.474-1.801-1.8-1.245-2.806 1.563-2.826-1.651-6.396-3.08-9.292a137.078 137.078 0 0 0-13.675-22.143 2.25 2.25 0 0 1-.6-1.3l2.611.087c-.88-3.158-2.335-6.613-5.408-7.768-1.73-.65-3.648-.425-5.495-.325-5.29.289-10.963-.509-16.2-1.317z"/>
        <path fill="#3F3D56" d="M306.797 28.377c1.385 1.468 2.938 3.024 4.942 3.28 3.54.451 6.086-3.2 7.707-6.372a3.119 3.119 0 0 0 3.257 2.88 6.44 6.44 0 0 0 2.45-.955 48.363 48.363 0 0 1 22.865-5.896 2.463 2.463 0 0 1 1.885-2.707c1.626-.321 3.09 1.08 3.874 2.536.784 1.456 1.273 3.143 2.518 4.233 1.246 1.09 3.657 1.042 4.15-.536.472-1.515-1.11-2.807-2.425-3.7-1.315-.893-2.7-2.546-1.815-3.864 6.716-1.483 13.474-2.972 20.346-3.266a8.54 8.54 0 0 0 3.425-.589c1.049-.513 1.882-1.677 1.6-2.807a7.766 7.766 0 0 1-8.094-3.045c9.536-.785 19.679-1.454 28.13 3.021 1.014 2.172-4.155 3.978-2.772 5.937.441.625 1.325.698 2.091.712 5.873.109 11.78.215 17.586-.669 2.122-.323 4.265-.78 6.396-.517 3.548.436 6.583 2.798 10.074 3.568 1.421.313 3.014.324 4.212-.5 1.198-.825 1.713-2.702.731-3.773 3.287-3.213 8.742-2.417 13.079-.879 4.336 1.538 8.444 4.02 13.033 4.362 3.291.246 6.628-.637 9.88-.076 2.044.353 3.946 1.26 5.943 1.817 3.778 1.053 7.774.83 11.696.882a82.137 82.137 0 0 1 29.204 5.787 8.688 8.688 0 0 1 3.246 1.913c.865.925 1.307 2.36.725 3.484l-9.608-1.4c.905 1.777 3.247 2.08 5.15 2.693 1.901.614 3.873 2.709 2.73 4.344-2.06-.654-3.928 1.4-4.97 3.291-1.04 1.891-2.309 4.156-4.469 4.27-1.934.104-4.273-1.538-5.533-.072a37.626 37.626 0 0 1 4.446 7.09c1.246 2.588 2.133 5.848.45 8.177a2.124 2.124 0 0 1-1.137.878c-1.374.348-2.268-1.33-3.254-2.347-1.242-1.28-3.12-1.644-4.803-2.244-1.682-.601-3.455-1.783-3.586-3.56-.082-1.107.503-2.135.934-3.157a12.131 12.131 0 0 0 .927-5.453c-.095-1.5-.516-3.061-1.597-4.11-1.08-1.048-2.945-1.38-4.105-.42-.54.448-.974 1.164-1.677 1.191-1.242.048-2.195-2.111-3.194-1.374a3.378 3.378 0 0 1-.461 2.264c-2.981 2.585-7.56 1.491-11.403 2.405a21.432 21.432 0 0 0-5.203 2.266 3.345 3.345 0 0 0-1.487 1.245c-.48.93.05 2.12.895 2.739a7.116 7.116 0 0 0 2.95 1.004c4.685.885 9.438 2.255 13.137 5.256 3.699 3.001 6.124 7.963 4.954 12.573l-9.24-8.805c.352 3.697.55 7.404.598 11.122.06.726-.04 1.456-.293 2.139-.658 1.451-2.443 1.94-4.008 2.26a3.14 3.14 0 0 0-2.107 1.466 3.124 3.124 0 0 0-.303 2.545c.556 1.807 1.942 3.216 3.21 4.62 1.27 1.403 2.518 2.999 2.684 4.881.166 1.883-1.258 4.005-3.148 3.874-1.433-.099-2.496-1.378-3.108-2.675-.61-1.297-.975-2.74-1.893-3.843-2.78-3.334-9.024-1.905-11.514-5.46a5.606 5.606 0 0 0-1.164 5.345c1.158-.723 2.744-.051 3.615 1 .87 1.051 1.28 2.399 1.964 3.579.923 1.593 2.39 3.005 2.52 4.84a15.78 15.78 0 0 0 .034 2.082c.23 1.112 1.171 1.91 1.825 2.84 1.52 2.162 1.445 5.133.465 7.586-.98 2.454-2.74 4.504-4.484 6.492-3.045 3.472-6.153 6.923-9.763 9.806-1.03.823-2.13 1.632-2.771 2.782-.642 1.15-.675 2.765.311 3.64-.705.035-1.97.381-2.676.416a61.893 61.893 0 0 1-.161-8.489c-2.784-1.333-5.782 2.238-5.422 5.297.359 3.06 2.577 5.514 4.157 8.161 1.155 1.936 2.013 4.193 1.628 6.412-.386 2.22-2.372 4.267-4.622 4.071-3.579-.311-5.076-5.435-8.62-6.022a1.452 1.452 0 0 0-.932.093c-.526.288-.618.99-.647 1.588-.145 2.933-.27 5.984.878 8.689 1.68 3.957 6.02 7.28 5.109 11.481-4.904-2.274-7.454-7.759-8.612-13.028-1.157-5.268-1.35-10.8-3.425-15.78-1.576 2.014-4.888.349-6.328-1.765-1.365-2.003-2.205-4.32-3.53-6.351-1.324-2.03-3.353-3.849-5.779-3.96-2.543-.118-4.75 1.623-6.69 3.268-1.595 1.353-3.233 2.759-4.165 4.629-1.357 2.72-1.002 5.928-1.067 8.966-.071 3.285-.77 6.75-3.014 9.155-2.244 2.405-6.387 3.242-8.863 1.075-1.292-1.131-1.918-2.822-2.476-4.444a217.127 217.127 0 0 1-6.702-23.865c-.416 1.843-2.039 4.219-3.589 3.133a3.207 3.207 0 0 1-.827-1.062c-2.891-4.889-8.246-7.82-13.657-9.578-5.41-1.758-11.103-2.578-16.454-4.51a41.72 41.72 0 0 1-8.535-4.241 6.68 6.68 0 0 0-.41 6.849c1.187 2.096 3.872 3.308 6.172 2.576 1.188-.379 2.19-1.201 3.37-1.608 1.179-.406 2.76-.206 3.276.926.494 1.085-.252 2.396.118 3.528.563 1.725 3.17 1.857 4.082 3.426.679 1.168.12 2.718-.848 3.66-.969.942-2.26 1.459-3.443 2.115-3.836 2.127-6.565 5.76-9.917 8.585-3.353 2.826-8.083 4.89-12.079 3.077.952-4.81-4.793-8.342-5.85-13.13-.347-1.577-.167-3.25-.664-4.787-.719-2.224-2.697-3.753-4.32-5.438a21.31 21.31 0 0 1-5.869-15.527c.088-1.98.453-3.99 0-5.92-.452-1.928-2.053-3.795-4.037-3.708-4.532.2-10.241.536-12.619-3.317-.848-1.375-1.218-3.39.01-4.443.865-.743 2.142-.673 3.279-.562l10.211 1.002c2.388.234 4.97.428 7.02-.818 2.049-1.245 2.937-4.55 1.039-6.015-1.387-1.07-3.87-1.013-4.274-2.715-.336-1.417 1.238-3.025.388-4.21-.61-.85-1.979-.614-2.809.023-.83.637-1.432 1.568-2.36 2.05-1.63.846-3.577.04-5.33-.506-1.753-.547-4.103-.594-4.953 1.03-.951 1.816.843 4.196-.1 6.016-1.248 2.406-5.474 1.036-7.226 3.106-2.01 2.375 1.368 5.916.69 8.95a5.599 5.599 0 0 1-5.503-.309 5.326 5.326 0 0 1-2.31-4.964c.168-1.365.881-2.758.403-4.047-.386-1.043-1.436-1.664-2.411-2.202l-9.923-5.469c-.922 1.705.243 3.818 1.7 5.098 1.456 1.28 3.28 2.245 4.238 3.93a5.15 5.15 0 0 1-1.946 6.8c-.287.197-.647.26-.984.17a1.369 1.369 0 0 1-.638-.855c-1.75-4.468-4.38-8.874-8.582-11.209-4.202-2.334-10.24-1.854-12.997 2.078-.654.934-1.094 1.999-1.664 2.986-3.03 5.247-9.524 7.731-15.592 7.569a3.103 3.103 0 0 1-1.7-.399c-.982-.675-.937-2.109-.787-3.288l.637-5.005c.128-1.005.313-2.115 1.11-2.743 1.125-.884 2.746-.326 4.178-.346a5.292 5.292 0 0 0 4.805-3.7 5.94 5.94 0 0 0-1.661-5.917c-.656-.614-1.537-1.386-1.19-2.215.28-.464.751-.78 1.287-.865 2.572-.745 5.289-.94 7.817-1.819 2.529-.879 4.981-2.676 5.58-5.28.184-.797.267-1.764.985-2.159.361-.152.748-.23 1.14-.232a5.531 5.531 0 0 0 4.753-5.762c1.212-.845 2.91-.224 4.082.675 1.172.898 2.207 2.085 3.634 2.472 2.658.722 5.227-1.626 7.982-1.637 1.159-.004 2.358.404 3.448.012 1.105-.397 1.765-1.494 2.613-2.304.848-.81 2.336-1.305 3.12-.432l-.668-4.926a9.731 9.731 0 0 0 7.903-1.425l-8.618-2.905a1.875 1.875 0 0 1-.806-.43c-.627-.673-.004-1.721.505-2.486 1.219-1.83 1.424-4.844-.58-5.755-1.369-.622-2.94.124-4.253.854l-6.29 3.499c-.2 1.192 1.262 1.868 2.168 2.671a3.62 3.62 0 0 1 .991 3.978 3.635 3.635 0 0 1-3.361 2.358 4.509 4.509 0 0 1 .809 3.83l-4.233.304c-.475.096-.968 0-1.372-.267-.453-.4-.392-1.104-.496-1.698-.254-1.436-1.663-2.442-3.1-2.7-1.439-.257-2.91.073-4.334.4a2.593 2.593 0 0 1-1.863-.043c-.34-.22-.6-.547-.737-.928-.624-1.51-.04-3.284.962-4.576 1.003-1.29 2.375-2.235 3.608-3.31a20.97 20.97 0 0 0 6.254-9.673c2.33-.974 4.741-2.297 7.071-3.27a21.688 21.688 0 0 1 11.632-2.248l7.89.15c2.336.045 4.735.102 6.895.99 2.16.888 4.058 2.81 4.208 5.135.091.535-.1 1.08-.506 1.441-.305.166-.65.244-.998.224-2.178.077-3.107.618-5.286.694zM243.69 52.486c.638-.566.885-1.42.64-2.21-1.555-.562-3.315-.25-4.544.804-.475.45-.884.957-1.217 1.507-1.054 1.61-1.985 3.534-1.375 5.333.1.397.367.739.74.949.274.103.569.146.863.126 1.16-.001 2.32-.068 3.472-.2.707-.08 1.529-.268 1.802-.885.36-.81-.51-1.727-.257-2.572.167-.378.42-.717.74-.994.324-.283.486-.692.438-1.103-.103-.397-.75-.622-.984-.277"/>
        <path fill="#3F3D56" d="M250.12 45.233a9.14 9.14 0 0 0-2.97-.187 1.292 1.292 0 0 0-.632.144c-.19.14-.327.34-.39.567a2.817 2.817 0 0 0 1.633 3.45c.357.081.698.22 1.013.407.84.654.304 1.99.463 3.045.179 1.184 1.321 2.178 1.112 3.357-.165.929-1.154 1.664-.995 2.594.167.974 1.399 1.267 2.38 1.345.57.1 1.156.033 1.688-.194a2.62 2.62 0 0 0 1.064-1.546 9.94 9.94 0 0 0 .497-3.731 3.547 3.547 0 0 0-.42-1.647 9.187 9.187 0 0 0-.98-1.126c-1.88-2.196.1-5.47-3.463-6.478z"/>
        <path stroke="#E23E57" stroke-width="2" d="M507 223s-149.767-86.028-214.244-69.728c0 0-136.646 14.716-152.483 47.09 0 0-43.437-135.834-59.273-140.362" opacity=".8"/>
        <path stroke="#E23E57" stroke-width="2" d="M140.273 200.348C165.386 133.298 391.62 59 391.62 59c-32.125 8.155-98.864 94.232-98.864 94.232S151.586 50.392 81 59.906c0 0 310.847 10.193 426 163.094" opacity=".8"/>
        <g filter="url(#a)" transform="translate(373 51)">
            <g transform="translate(9.286 .011)">
                <mask id="c" fill="#fff">
                    <use xlink:href="#b"/>
                </mask>
                <path fill="#E23E57" d="M10.964 3.497a2.136 2.136 0 0 0-2.121 2.137c.006 1.147.973 2.107 2.12 2.105 1.164-.001 2.14-.985 2.124-2.141a2.138 2.138 0 0 0-2.123-2.101M4.514 14.91l2.047-1.496c.298-.217.593-.438.898-.645.139-.094.16-.165.055-.308a1040.004 1040.004 0 0 1-3.88-5.337c-.122-.17-.195-.137-.334-.035-1.014.747-2.033 1.485-3.055 2.23-.652-2.49.405-6.211 3.626-8.166 3.161-1.92 7.478-1.256 9.9 1.566 2.567 2.99 2.59 7.282.039 10.266-2.532 2.96-6.61 3.34-9.297 1.925" mask="url(#c)"/>
            </g>
            <path fill="#FFF" d="M15.612 12.222a.317.317 0 0 1-.087.451 5367.757 5367.757 0 0 1-4.356 3.167c-1.732 1.257-3.466 2.511-5.193 3.774-.192.14-.286.178-.456-.06-1.798-2.5-3.611-4.988-5.426-7.476-.155-.211-.136-.278.192-.511.901-.639 1.473-1.139 2.35-1.715.29-.19.318-.11.424.037.746 1.031 1.503 2.053 2.235 3.094.167.238.27.235.486.077 2.187-1.6 4.383-3.19 6.573-4.788.154-.112.251-.215.415.016.938 1.317 1.893 2.622 2.842 3.932l.001.002z"/>
        </g>
        <g filter="url(#d)" transform="translate(277 145)">
            <g transform="translate(9.286 .011)">
                <mask id="f" fill="#fff">
                    <use xlink:href="#e"/>
                </mask>
                <path fill="#E23E57" d="M10.964 3.497a2.136 2.136 0 0 0-2.121 2.137c.006 1.147.973 2.107 2.12 2.105 1.164-.001 2.14-.985 2.124-2.141a2.138 2.138 0 0 0-2.123-2.101M4.514 14.91l2.047-1.496c.298-.217.593-.438.898-.645.139-.094.16-.165.055-.308a1040.004 1040.004 0 0 1-3.88-5.337c-.122-.17-.195-.137-.334-.035-1.014.747-2.033 1.485-3.055 2.23-.652-2.49.405-6.211 3.626-8.166 3.161-1.92 7.478-1.256 9.9 1.566 2.567 2.99 2.59 7.282.039 10.266-2.532 2.96-6.61 3.34-9.297 1.925" mask="url(#f)"/>
            </g>
            <path fill="#FFF" d="M15.612 12.222a.317.317 0 0 1-.087.451 5367.757 5367.757 0 0 1-4.356 3.167c-1.732 1.257-3.466 2.511-5.193 3.774-.192.14-.286.178-.456-.06-1.798-2.5-3.611-4.988-5.426-7.476-.155-.211-.136-.278.192-.511.901-.639 1.473-1.139 2.35-1.715.29-.19.318-.11.424.037.746 1.031 1.503 2.053 2.235 3.094.167.238.27.235.486.077 2.187-1.6 4.383-3.19 6.573-4.788.154-.112.251-.215.415.016.938 1.317 1.893 2.622 2.842 3.932l.001.002z"/>
        </g>
        <g filter="url(#g)" transform="translate(123 197)">
            <g transform="translate(9.286 .011)">
                <mask id="i" fill="#fff">
                    <use xlink:href="#h"/>
                </mask>
                <path fill="#E23E57" d="M10.964 3.497a2.136 2.136 0 0 0-2.121 2.137c.006 1.147.973 2.107 2.12 2.105 1.164-.001 2.14-.985 2.124-2.141a2.138 2.138 0 0 0-2.123-2.101M4.514 14.91l2.047-1.496c.298-.217.593-.438.898-.645.139-.094.16-.165.055-.308a1040.004 1040.004 0 0 1-3.88-5.337c-.122-.17-.195-.137-.334-.035-1.014.747-2.033 1.485-3.055 2.23-.652-2.49.405-6.211 3.626-8.166 3.161-1.92 7.478-1.256 9.9 1.566 2.567 2.99 2.59 7.282.039 10.266-2.532 2.96-6.61 3.34-9.297 1.925" mask="url(#i)"/>
            </g>
            <path fill="#FFF" d="M15.612 12.222a.317.317 0 0 1-.087.451 5367.757 5367.757 0 0 1-4.356 3.167c-1.732 1.257-3.466 2.511-5.193 3.774-.192.14-.286.178-.456-.06-1.798-2.5-3.611-4.988-5.426-7.476-.155-.211-.136-.278.192-.511.901-.639 1.473-1.139 2.35-1.715.29-.19.318-.11.424.037.746 1.031 1.503 2.053 2.235 3.094.167.238.27.235.486.077 2.187-1.6 4.383-3.19 6.573-4.788.154-.112.251-.215.415.016.938 1.317 1.893 2.622 2.842 3.932l.001.002z"/>
        </g>
        <g filter="url(#j)" transform="translate(65 50)">
            <g transform="translate(9.286 .011)">
                <mask id="l" fill="#fff">
                    <use xlink:href="#k"/>
                </mask>
                <path fill="#E23E57" d="M10.964 3.497a2.136 2.136 0 0 0-2.121 2.137c.006 1.147.973 2.107 2.12 2.105 1.164-.001 2.14-.985 2.124-2.141a2.138 2.138 0 0 0-2.123-2.101M4.514 14.91l2.047-1.496c.298-.217.593-.438.898-.645.139-.094.16-.165.055-.308a1040.004 1040.004 0 0 1-3.88-5.337c-.122-.17-.195-.137-.334-.035-1.014.747-2.033 1.485-3.055 2.23-.652-2.49.405-6.211 3.626-8.166 3.161-1.92 7.478-1.256 9.9 1.566 2.567 2.99 2.59 7.282.039 10.266-2.532 2.96-6.61 3.34-9.297 1.925" mask="url(#l)"/>
            </g>
            <path fill="#FFF" d="M15.612 12.222a.317.317 0 0 1-.087.451 5367.757 5367.757 0 0 1-4.356 3.167c-1.732 1.257-3.466 2.511-5.193 3.774-.192.14-.286.178-.456-.06-1.798-2.5-3.611-4.988-5.426-7.476-.155-.211-.136-.278.192-.511.901-.639 1.473-1.139 2.35-1.715.29-.19.318-.11.424.037.746 1.031 1.503 2.053 2.235 3.094.167.238.27.235.486.077 2.187-1.6 4.383-3.19 6.573-4.788.154-.112.251-.215.415.016.938 1.317 1.893 2.622 2.842 3.932l.001.002z"/>
        </g>
        <g filter="url(#m)" transform="translate(492 213)">
            <g transform="translate(9.286 .011)">
                <mask id="o" fill="#fff">
                    <use xlink:href="#n"/>
                </mask>
                <path fill="#E23E57" d="M10.964 3.497a2.136 2.136 0 0 0-2.121 2.137c.006 1.147.973 2.107 2.12 2.105 1.164-.001 2.14-.985 2.124-2.141a2.138 2.138 0 0 0-2.123-2.101M4.514 14.91l2.047-1.496c.298-.217.593-.438.898-.645.139-.094.16-.165.055-.308a1040.004 1040.004 0 0 1-3.88-5.337c-.122-.17-.195-.137-.334-.035-1.014.747-2.033 1.485-3.055 2.23-.652-2.49.405-6.211 3.626-8.166 3.161-1.92 7.478-1.256 9.9 1.566 2.567 2.99 2.59 7.282.039 10.266-2.532 2.96-6.61 3.34-9.297 1.925" mask="url(#o)"/>
            </g>
            <path fill="#FFF" d="M15.612 12.222a.317.317 0 0 1-.087.451 5367.757 5367.757 0 0 1-4.356 3.167c-1.732 1.257-3.466 2.511-5.193 3.774-.192.14-.286.178-.456-.06-1.798-2.5-3.611-4.988-5.426-7.476-.155-.211-.136-.278.192-.511.901-.639 1.473-1.139 2.35-1.715.29-.19.318-.11.424.037.746 1.031 1.503 2.053 2.235 3.094.167.238.27.235.486.077 2.187-1.6 4.383-3.19 6.573-4.788.154-.112.251-.215.415.016.938 1.317 1.893 2.622 2.842 3.932l.001.002z"/>
        </g>
    </g>
</svg>
