<svg class="logo-mobile" version="1.1" id="Слой_1" xmlns="http://www.w3.org/2000/svg" xmlns:xlink="http://www.w3.org/1999/xlink" x="0px" y="0px"
	 viewBox="0 0 200 93" style="enable-background:new 0 0 200 93;" xml:space="preserve">
<g>
	<path class="brackets" d="M39.8,92.7H28.9c-5.4,0-9.4-1.3-12-4c-3-3-4.5-7-4.5-11.9V61.2c0-3.1-0.6-5.2-1.8-6.4c-1.4-1.4-3.2-2-5.6-2H0
		V40.3h4.9c2.4,0,4.2-0.7,5.6-2c1.2-1.2,1.8-3.4,1.8-6.4V16.2c0-4.9,1.5-8.9,4.5-11.9c2.6-2.6,6.7-4,12-4h10.9v12.6H34
		c-3.1,0-5.1,0.5-6.1,1.5c-1.1,1.2-1.7,3.5-1.7,6.9v14.5c0,2.4-0.5,4.3-1.4,6c-0.9,1.6-1.8,2.7-2.7,3.2c-0.9,0.5-2,1.1-3.3,1.6
		c1.4,0.5,2.5,1,3.3,1.6c0.9,0.5,1.8,1.6,2.7,3.2c0.9,1.6,1.4,3.6,1.4,6v14.5c0,3.4,0.6,5.7,1.7,6.9c1,1,3,1.5,6.1,1.5h5.7v12.4
		H39.8z"/>
	<g>
		<path class="letter" d="M94.6,74.5H80.9v-4.8c-1.9,1.9-3.9,3.3-6,4.1c-2,0.8-4.6,1.2-7.8,1.2c-6.2,0-11-1.6-14.3-4.9
			c-3.1-3.2-4.6-7.4-4.6-12.6c0-4.7,1.6-8.6,4.9-11.6c3.3-3,8.1-4.6,14.4-4.6h13v-2.8c0-3.1-0.8-5.3-2.5-6.7
			c-1.6-1.4-4.3-2.1-7.9-2.1c-4.4,0-7.9,1.6-10.7,4.8l-8.8-8.7c2.7-3,5.6-5.1,8.5-6.2c3-1.1,6.8-1.7,11.5-1.7
			c15.9,0,23.8,6.6,23.8,19.8v36.8H94.6z M80.6,53.9v-3H70c-5.5,0-8.3,2.1-8.3,6.4c0,4.2,2.8,6.3,8.5,6.3c3.6,0,6.4-0.9,8.3-2.7
			C79.9,59.7,80.6,57.4,80.6,53.9z"/>
		<path class="letter" d="M151.7,56.9c0,5.9-2.2,10.5-6.7,13.6c-4.4,3.1-10.1,4.7-17.1,4.7c-5.2,0-9.6-0.5-13.3-1.6
			c-3.7-1.1-7.2-3.2-10.5-6.4l9.1-9.1c3.4,3.5,8.4,5.3,14.9,5.3c2.7,0,5-0.5,7-1.5c1.9-1,2.9-2.4,2.9-4.3c0-3.1-2-4.8-5.9-5.2
			l-9-0.9c-10.7-1.1-16.1-6.3-16.1-15.7c0-5.6,2.1-9.9,6.3-13.1c4.2-3.1,9.3-4.7,15.3-4.7c9.5,0,16.6,2.2,21.4,6.5l-8.6,8.7
			c-2.8-2.5-7.1-3.8-13-3.8c-2.6,0-4.6,0.5-6,1.6c-1.3,1-2,2.3-2,3.8c0,2.8,1.9,4.4,5.8,4.8l8.8,0.9C146.1,41.5,151.7,47,151.7,56.9
			z"/>
	</g>
	<path class="brackets" d="M200,52.7h-4.9c-2.4,0-4.2,0.7-5.6,2c-1.2,1.2-1.8,3.4-1.8,6.4v15.6c0,4.9-1.5,8.9-4.5,11.9
		c-2.6,2.6-6.7,4-12,4h-11V80h5.7c3.1,0,5.1-0.5,6.1-1.5c1.1-1.2,1.7-3.5,1.7-6.9V57.1c0-2.4,0.5-4.3,1.4-6c0.9-1.6,1.8-2.7,2.7-3.2
		s2-1.1,3.3-1.6c-1.4-0.5-2.5-1-3.3-1.6c-0.9-0.5-1.8-1.6-2.7-3.2s-1.4-3.6-1.4-6V21.3c0-3.4-0.6-5.7-1.7-6.9c-1-1-3-1.5-6.1-1.5
		h-5.7V0.3h11c5.4,0,9.4,1.3,12,4c3,3,4.5,7,4.5,11.9v15.6c0,3.1,0.6,5.2,1.8,6.4c1.4,1.4,3.2,2,5.6,2h4.9V52.7z"/>
</g>
</svg>
