<?xml version="1.0" encoding="utf-8"?>
<!-- Generator: Adobe Illustrator 21.0.0, SVG Export Plug-In . SVG Version: 6.00 Build 0)  -->
<svg version="1.1" id="Capa_1" xmlns="http://www.w3.org/2000/svg" xmlns:xlink="http://www.w3.org/1999/xlink" x="0px" y="0px"
	 viewBox="0 0 480 480" style="enable-background:new 0 0 480 480;" xml:space="preserve">
<style type="text/css">
	.st0{fill:url(#SVGID_1_);}
</style>
<linearGradient id="SVGID_1_" gradientUnits="userSpaceOnUse" x1="-3.2188" y1="457.9813" x2="447.3813" y2="7.3813">
	<stop  offset="0" style="stop-color:#FF303E"/>
	<stop  offset="1" style="stop-color:#0082BE"/>
</linearGradient>
<path class="st0" d="M448,328c-1.2,0-2.3,0.2-3.5,0.4l-19-49.9c32.2-15.5,54.5-48.4,54.5-86.4c0-52.9-43.1-96-96-96
	c-19.3,0-37.3,5.8-52.4,15.6l-34.4-44.2c2.6-3.4,4.5-7.2,5.6-11.4H384V40h-81.1c-3.6-13.8-16-24-30.9-24c-17.6,0-32,14.4-32,32
	c0,0.1,0,0.3,0,0.4l-54,14.7C172.6,26.4,137.4,0,96,0C43.1,0,0,43.1,0,96c0,44.3,30.2,81.6,71,92.6L29.6,416.2
	C13.1,417.5,0,431.2,0,448c0,17.6,14.4,32,32,32s32-14.4,32-32c0-5.2-1.4-10.1-3.6-14.4l41.2-36.4c17.3,16.5,40.6,26.8,66.4,26.8
	c32,0,60.4-15.8,77.8-40l51.6,31c-0.8,2.9-1.4,5.9-1.4,9c0,17.6,14.4,32,32,32s32-14.4,32-32c0-2.6-0.4-5.1-1-7.5l65.5-34.9
	c5.9,6.4,14.2,10.4,23.5,10.4c17.6,0,32-14.4,32-32S465.6,328,448,328z M384,112c44.1,0,80,35.9,80,80s-35.9,80-80,80
	s-80-35.9-80-80S339.9,112,384,112z M272,32c8.8,0,16,7.2,16,16s-7.2,16-16,16s-16-7.2-16-16S263.2,32,272,32z M190.3,78.6l54-14.7
	C249.9,73.4,260.1,80,272,80c4.5,0,8.8-1,12.7-2.7l34.4,44.2c-19,17.6-31,42.6-31,70.5c0,15.9,4,30.9,10.8,44.2l-54.3,34.2
	C227,247.1,199.3,232,168,232c-7.1,0-14,0.8-20.7,2.3L132,184.9c35.1-14.3,60-48.7,60-88.9C192,90,191.4,84.2,190.3,78.6z M16,96
	c0-44.1,35.9-80,80-80s80,35.9,80,80s-35.9,80-80,80S16,140.1,16,96z M32,464c-8.8,0-16-7.2-16-16s7.2-16,16-16s16,7.2,16,16
	S40.8,464,32,464z M49.9,421.5c-1.4-1-3-1.7-4.5-2.5l41.4-227.5c3,0.3,6.1,0.5,9.2,0.5c7.1,0,14-0.8,20.7-2.3l15.3,49.4
	c-35.2,14.3-60,48.7-60,88.9c0,21.4,7.2,41.2,19.1,57.2L49.9,421.5z M168,408c-44.1,0-80-35.9-80-80s35.9-80,80-80s80,35.9,80,80
	S212.1,408,168,408z M254,370.3c6.3-12.8,10-27.1,10-42.3c0-15.9-4-30.9-10.8-44.2l54.3-34.2c11.6,15.4,27.7,27.2,46.4,33.4
	l-26.3,109c-8.5,0.1-16.2,3.6-21.9,9.2L254,370.3z M328,440c-8.8,0-16-7.2-16-16s7.2-16,16-16s16,7.2,16,16S336.8,440,328,440z
	 M416,360c0,2.6,0.4,5.1,1,7.5l-65.5,34.9c-2.4-2.6-5.3-4.8-8.5-6.5l26.4-109.2c4.8,0.7,9.6,1.2,14.6,1.2c9.2,0,18.1-1.4,26.6-3.8
	l19,49.8C421.4,339.8,416,349.2,416,360z M448,376c-8.8,0-16-7.2-16-16s7.2-16,16-16s16,7.2,16,16S456.8,376,448,376z M349.7,158.4
	l-11.4-11.2c-11.8,12-18.3,27.9-18.3,44.8c0,13.2,4,25.8,11.5,36.6l13.1-9.2c-5.6-8.1-8.6-17.6-8.6-27.4
	C336,179.4,340.9,167.4,349.7,158.4z M418.7,188.3c3.3-4.6,5.3-10.2,5.3-16.3c0-15.4-12.6-28-28-28h-4v-16h-16v16h-8
	c-4.4,0-8,3.6-8,8v40v40c0,4.4,3.6,8,8,8h8v16h16v-16h12c15.4,0,28-12.6,28-28C432,202,426.6,193.2,418.7,188.3z M376,160h20
	c6.6,0,12,5.4,12,12s-5.4,12-12,12h-20V160z M404,224h-28v-24h20h8c6.6,0,12,5.4,12,12S410.6,224,404,224z M130.7,92.3
	C134,87.7,136,82.1,136,76c0-15.4-12.6-28-28-28h-4V32H88v16h-8c-4.4,0-8,3.6-8,8v40v40c0,4.4,3.6,8,8,8h8v16h16v-16h12
	c15.4,0,28-12.6,28-28C144,106,138.6,97.2,130.7,92.3z M88,64h20c6.6,0,12,5.4,12,12s-5.4,12-12,12H88V64z M116,128H88v-24h20h8
	c6.6,0,12,5.4,12,12S122.6,128,116,128z M202.7,324.3c3.3-4.6,5.3-10.2,5.3-16.3c0-15.4-12.6-28-28-28h-4v-16h-16v16h-8
	c-4.4,0-8,3.6-8,8v40v40c0,4.4,3.6,8,8,8h8v16h16v-16h12c15.4,0,28-12.6,28-28C216,338,210.6,329.2,202.7,324.3z M160,296h20
	c6.6,0,12,5.4,12,12s-5.4,12-12,12h-20V296z M188,360h-28v-24h20h8c6.6,0,12,5.4,12,12S194.6,360,188,360z M400,40h16v16h-16V40z
	 M432,40h16v16h-16V40z M464,40h16v16h-16V40z"/>
</svg>
