<?xml version="1.0" encoding="utf-8"?>
<!-- Generator: Adobe Illustrator 21.0.0, SVG Export Plug-In . SVG Version: 6.00 Build 0)  -->
<svg version="1.1" id="Capa_1" xmlns="http://www.w3.org/2000/svg" xmlns:xlink="http://www.w3.org/1999/xlink" x="0px" y="0px"
	 viewBox="0 0 480 480" style="enable-background:new 0 0 480 480;" xml:space="preserve">
<style type="text/css">
	.st0{fill:url(#SVGID_1_);}
</style>
<linearGradient id="SVGID_1_" gradientUnits="userSpaceOnUse" x1="43.6625" y1="436.2375" x2="436.2875" y2="43.6125">
	<stop  offset="0" style="stop-color:#FF303E"/>
	<stop  offset="1" style="stop-color:#0082BE"/>
</linearGradient>
<path class="st0" d="M240,176c-35.3,0-64,28.7-64,64s28.7,64,64,64s64-28.7,64-64S275.3,176,240,176z M240,288
	c-26.5,0-48-21.5-48-48s21.5-48,48-48s48,21.5,48,48S266.5,288,240,288z M360,296v-48h40.8c3.7,18.2,19.9,32,39.2,32
	c22.1,0,40-17.9,40-40s-17.9-40-40-40c-19.3,0-35.5,13.8-39.2,32H360v-48c0-2.9-1.5-5.5-4-6.9l-26.5-15.2l56.6-56.6
	c6.3,4.2,13.9,6.7,22,6.7c22.1,0,40-17.9,40-40s-17.9-40-40-40s-40,17.9-40,40c0,8.1,2.5,15.7,6.7,22L315,153.7l-67-38.3V79.2
	c18.2-3.7,32-19.9,32-39.2c0-22.1-17.9-40-40-40s-40,17.9-40,40c0,19.3,13.8,35.5,32,39.2v36.2l-67,38.3L105.3,94
	c4.2-6.3,6.7-13.9,6.7-22c0-22.1-17.9-40-40-40S32,49.9,32,72s17.9,40,40,40c8.1,0,15.7-2.5,22-6.7l56.6,56.6L124,177.1
	c-2.5,1.4-4,4.1-4,6.9v48H79.2c-3.7-18.2-19.9-32-39.2-32c-22.1,0-40,17.9-40,40s17.9,40,40,40c19.3,0,35.5-13.8,39.2-32H120v48
	c0,2.9,1.5,5.5,4,6.9l26.5,15.2L94,374.7c-6.3-4.2-13.9-6.7-22-6.7c-22.1,0-40,17.9-40,40s17.9,40,40,40s40-17.9,40-40
	c0-8.1-2.5-15.7-6.7-22l59.6-59.6l67,38.3v36.2c-18.2,3.7-32,19.9-32,39.2c0,22.1,17.9,40,40,40s40-17.9,40-40
	c0-19.3-13.8-35.5-32-39.2v-36.2l67-38.3l59.6,59.6c-4.2,6.3-6.7,13.9-6.7,22c0,22.1,17.9,40,40,40s40-17.9,40-40s-17.9-40-40-40
	c-8.1,0-15.7,2.5-22,6.7l-56.6-56.6l26.5-15.2C358.5,301.5,360,298.9,360,296z M440,216c13.2,0,24,10.8,24,24s-10.8,24-24,24
	s-24-10.8-24-24S426.8,216,440,216z M408,48c13.2,0,24,10.8,24,24s-10.8,24-24,24s-24-10.8-24-24S394.8,48,408,48z M72,96
	c-13.2,0-24-10.8-24-24s10.8-24,24-24s24,10.8,24,24S85.2,96,72,96z M40,264c-13.2,0-24-10.8-24-24s10.8-24,24-24s24,10.8,24,24
	S53.2,264,40,264z M72,432c-13.2,0-24-10.8-24-24s10.8-24,24-24s24,10.8,24,24S85.2,432,72,432z M408,384c13.2,0,24,10.8,24,24
	s-10.8,24-24,24s-24-10.8-24-24S394.8,384,408,384z M216,40c0-13.2,10.8-24,24-24s24,10.8,24,24s-10.8,24-24,24S216,53.2,216,40z
	 M264,440c0,13.2-10.8,24-24,24s-24-10.8-24-24s10.8-24,24-24S264,426.8,264,440z M344,291.4l-104,59.4l-104-59.4V188.6l104-59.4
	l104,59.4V291.4z"/>
</svg>
