<svg id="Слой_1" data-name="Слой 1" xmlns="http://www.w3.org/2000/svg" xmlns:xlink="http://www.w3.org/1999/xlink" viewBox="0 0 69 81"><defs><style>.cls-1{fill:url(#Безымянный_градиент_29);}.cls-2{fill:url(#Безымянный_градиент_29-2);}.cls-3{fill:url(#Безымянный_градиент_29-3);}.cls-4{fill:url(#Безымянный_градиент_29-4);}.cls-5{fill:url(#Безымянный_градиент_29-5);}.cls-6{fill:url(#Безымянный_градиент_29-6);}.cls-7{fill:url(#Безымянный_градиент_29-7);}.cls-8{fill:url(#Безымянный_градиент_29-8);}</style><linearGradient id="Безымянный_градиент_29" x1="-4249.2" y1="76.08" x2="-4249.2" y2="9.09" gradientTransform="matrix(-1, 0, 0, 1, -4231.97, 0)" gradientUnits="userSpaceOnUse"><stop offset="0" stop-color="#ef3340" stop-opacity="0"/><stop offset="1" stop-color="#1582bc"/></linearGradient><linearGradient id="Безымянный_градиент_29-2" x1="-4312.71" y1="29.05" x2="-4251.2" y2="73.53" xlink:href="#Безымянный_градиент_29"/><linearGradient id="Безымянный_градиент_29-3" x1="-4266.47" y1="-23.57" x2="-4266.47" y2="129.74" xlink:href="#Безымянный_градиент_29"/><linearGradient id="Безымянный_градиент_29-4" x1="-4266.47" y1="79.65" x2="-4266.47" y2="82.04" xlink:href="#Безымянный_градиент_29"/><linearGradient id="Безымянный_градиент_29-5" x1="-4255.17" y1="63.32" x2="-4255.17" y2="19.47" xlink:href="#Безымянный_градиент_29"/><linearGradient id="Безымянный_градиент_29-6" x1="-4296.74" y1="32.53" x2="-4256.48" y2="61.65" xlink:href="#Безымянный_градиент_29"/><linearGradient id="Безымянный_градиент_29-7" x1="-4266.47" y1="-1.91" x2="-4266.47" y2="98.45" xlink:href="#Безымянный_градиент_29"/><linearGradient id="Безымянный_градиент_29-8" x1="-4266.47" y1="65.65" x2="-4266.47" y2="67.24" xlink:href="#Безымянный_градиент_29"/></defs><title>cube (about)</title><polygon class="cls-1" points="-0.04 20.09 34.5 40.03 34.5 79.91 -0.04 59.97 -0.04 20.09"/><polygon class="cls-2" points="69.04 20.09 69.04 59.97 34.5 79.91 34.5 40.03 69.04 20.09"/><polygon class="cls-3" points="-0.04 20.09 34.5 0.15 69.04 20.09 34.5 40.03 -0.04 20.09"/><polygon class="cls-4" points="34.5 80.85 34.5 80.85 34.5 80.85 34.5 80.85"/><polygon class="cls-5" points="11.89 26.67 34.5 39.72 34.5 65.83 11.89 52.77 11.89 26.67"/><polygon class="cls-6" points="57.11 26.67 57.11 52.77 34.5 65.83 34.5 39.72 57.11 26.67"/><polygon class="cls-7" points="11.89 26.67 34.5 13.62 57.11 26.67 34.5 39.72 11.89 26.67"/><polygon class="cls-8" points="34.5 66.44 34.5 66.44 34.5 66.44 34.5 66.44"/></svg>