<?xml version="1.0" encoding="utf-8"?>
<!-- Generator: Adobe Illustrator 21.0.0, SVG Export Plug-In . SVG Version: 6.00 Build 0)  -->
<svg version="1.1" id="Capa_1" xmlns="http://www.w3.org/2000/svg" xmlns:xlink="http://www.w3.org/1999/xlink" x="0px" y="0px"
	 viewBox="0 0 480 480" style="enable-background:new 0 0 480 480;" xml:space="preserve">
<style type="text/css">
	.st0{fill:url(#SVGID_1_);}
</style>
<g>
	<g>
		<linearGradient id="SVGID_1_" gradientUnits="userSpaceOnUse" x1="49.382" y1="430.618" x2="430.618" y2="49.382">
			<stop  offset="0" style="stop-color:#FF303E"/>
			<stop  offset="1" style="stop-color:#0082BE"/>
		</linearGradient>
		<path class="st0" d="M448,272c-10.9,0-20.6,5.5-26.3,13.9L399,274.5c0.7-3.4,1-6.9,1-10.5c0-14.2-5.3-27.1-14.1-37l40.8-27.2
			c5.7,5.1,13.1,8.2,21.2,8.2c17.6,0,32-14.4,32-32s-14.4-32-32-32s-32,14.4-32,32c0,3.7,0.8,7.2,1.9,10.5l-44.7,29.8
			c-8.8-5.4-19.1-8.5-30.2-8.3c-3.6-13.8-16.1-24-31-24c0-1.5-0.1-3-0.2-4.5l80.1-80.1c4.8,2.8,10.2,4.5,16.2,4.5
			c17.6,0,32-14.4,32-32s-14.4-32-32-32s-32,14.4-32,32c0,5.9,1.7,11.4,4.5,16.2L308,160.6c-5-14.4-14.4-26.8-26.7-35.5l20.5-61.4
			c0.7,0.1,1.4,0.2,2.2,0.2c17.6,0,32-14.4,32-32S321.6,0,304,0s-32,14.4-32,32c0,11.2,5.8,21.1,14.6,26.8l-19.5,58.5
			c-8.4-3.4-17.5-5.3-27.1-5.3c-9.6,0-18.7,1.9-27.1,5.4l-19.5-58.6C202.2,53.1,208,43.2,208,32c0-17.6-14.4-32-32-32
			s-32,14.4-32,32s14.4,32,32,32c0.7,0,1.4-0.2,2.2-0.2l20.5,61.4c-12.2,8.6-21.7,21-26.6,35.5L99.5,88.2c2.8-4.8,4.5-10.2,4.5-16.2
			c0-17.6-14.4-32-32-32S40,54.4,40,72s14.4,32,32,32c5.9,0,11.4-1.7,16.2-4.5l71.2,71.2c-18.2,5.6-32.6,20.2-37.5,39.2
			c-5.4,1.4-10.4,3.7-15,6.4l-44.8-29.8c1.2-3.3,1.9-6.8,1.9-10.4c0-17.6-14.4-32-32-32S0,158.4,0,176s14.4,32,32,32
			c8.2,0,15.6-3.2,21.2-8.2L94.1,227c-8.8,9.9-14.1,22.8-14.1,37c0,3.6,0.4,7.1,1,10.5l-22.7,11.3C52.6,277.5,42.9,272,32,272
			c-17.6,0-32,14.4-32,32s14.4,32,32,32s32-14.4,32-32c0-1-0.2-1.9-0.3-2.9l22.6-11.3c9.4,17.9,28.1,30.2,49.7,30.2h12.7l-60.5,60.5
			c-4.8-2.8-10.2-4.5-16.2-4.5c-17.6,0-32,14.4-32,32s14.4,32,32,32s32-14.4,32-32c0-5.9-1.7-11.4-4.5-16.2l71.8-71.8h34.1
			l-27.5,96.2c-0.6,0-1.3-0.2-1.9-0.2c-17.6,0-32,14.4-32,32s14.4,32,32,32s32-14.4,32-32c0-11.3-6-21.2-14.8-26.9L222,320H258
			l28.9,101.1C278,426.8,272,436.7,272,448c0,17.6,14.4,32,32,32s32-14.4,32-32s-14.4-32-32-32c-0.7,0-1.3,0.2-1.9,0.2L274.6,320
			h34.1l71.8,71.8c-2.8,4.8-4.5,10.2-4.5,16.2c0,17.6,14.4,32,32,32s32-14.4,32-32s-14.4-32-32-32c-5.9,0-11.4,1.7-16.2,4.5
			L331.3,320H344c21.6,0,40.3-12.3,49.7-30.2l22.6,11.3c-0.1,1-0.3,1.9-0.3,2.9c0,17.6,14.4,32,32,32s32-14.4,32-32
			S465.6,272,448,272z M448,160c8.8,0,16,7.2,16,16s-7.2,16-16,16s-16-7.2-16-16S439.2,160,448,160z M408,56c8.8,0,16,7.2,16,16
			s-7.2,16-16,16s-16-7.2-16-16S399.2,56,408,56z M304,16c8.8,0,16,7.2,16,16s-7.2,16-16,16s-16-7.2-16-16S295.2,16,304,16z M176,48
			c-8.8,0-16-7.2-16-16s7.2-16,16-16s16,7.2,16,16S184.8,48,176,48z M72,88c-8.8,0-16-7.2-16-16s7.2-16,16-16s16,7.2,16,16
			S80.8,88,72,88z M32,192c-8.8,0-16-7.2-16-16s7.2-16,16-16s16,7.2,16,16S40.8,192,32,192z M32,320c-8.8,0-16-7.2-16-16
			s7.2-16,16-16s16,7.2,16,16S40.8,320,32,320z M72,424c-8.8,0-16-7.2-16-16s7.2-16,16-16s16,7.2,16,16S80.8,424,72,424z M176,464
			c-8.8,0-16-7.2-16-16s7.2-16,16-16s16,7.2,16,16S184.8,464,176,464z M304,432c8.8,0,16,7.2,16,16s-7.2,16-16,16s-16-7.2-16-16
			S295.2,432,304,432z M408,392c8.8,0,16,7.2,16,16s-7.2,16-16,16s-16-7.2-16-16S399.2,392,408,392z M344,304H136
			c-22.1,0-40-17.9-40-40c0-19.8,14.2-36.4,33.8-39.5c3.4-0.5,6.2-3.2,6.7-6.7c3-19.6,19.6-33.8,39.6-33.8c0,0,0,0,0,0
			c4.3,0.3,7.8-2.9,8.3-7c3.5-27.9,27.4-49,55.5-49c30.9,0,56,25.1,56,56c0,2.6-0.2,5.3-0.7,8.5c-0.4,2.8,0.7,5.7,2.9,7.5
			c2.2,1.8,5.3,2.2,7.9,1.2c10.7-4.3,21.9,4.2,21.9,14.1c0,0.3-0.1,0.9-0.1,1.2c-0.1,2.4,0.9,4.7,2.7,6.3c1.8,1.6,4.2,2.2,6.6,1.8
			c2.4-0.4,4.6-0.6,6.7-0.6c22.1,0,40,17.9,40,40S366.1,304,344,304z M448,320c-8.8,0-16-7.2-16-16s7.2-16,16-16s16,7.2,16,16
			S456.8,320,448,320z"/>
	</g>
</g>
</svg>
