<?xml version="1.0" encoding="utf-8"?>
<!-- Generator: Adobe Illustrator 21.0.0, SVG Export Plug-In . SVG Version: 6.00 Build 0)  -->
<svg version="1.1" id="Capa_1" xmlns="http://www.w3.org/2000/svg" xmlns:xlink="http://www.w3.org/1999/xlink" x="0px" y="0px"
	 viewBox="0 0 480 480" style="enable-background:new 0 0 480 480;" xml:space="preserve">
<style type="text/css">
	.st0{fill:url(#SVGID_1_);}
</style>
<linearGradient id="SVGID_1_" gradientUnits="userSpaceOnUse" x1="78.6412" y1="388.0633" x2="401.3523" y2="65.3523">
	<stop  offset="0" style="stop-color:#FF303E"/>
	<stop  offset="1" style="stop-color:#0082BE"/>
</linearGradient>
<path class="st0" d="M265.6,211.2l-3.9,15.5c4.7,1.2,9.3,2.8,13.7,4.7l6.4-14.6C276.5,214.4,271.1,212.6,265.6,211.2z M321.9,247.9
	l-12.6,9.9c3,3.8,5.7,7.9,8,12.1l14-7.7C328.6,257.1,325.4,252.3,321.9,247.9z M296.8,224.8l-8.7,13.4c4,2.6,7.9,5.6,11.4,8.9
	l10.8-11.8C306.1,231.5,301.5,228,296.8,224.8z M214.8,211.1c-5.5,1.4-11,3.2-16.2,5.5l6.4,14.7c4.4-1.9,9-3.5,13.7-4.6L214.8,211.1
	z M240.2,208c-2.8,0-5.7,0.1-8.5,0.3l1.3,16c2.3-0.2,4.7-0.3,7.1-0.3c2.6,0.1,5,0.1,7.4,0.3l1.3-15.9C245.9,208.1,243,208,240.2,208
	z M183.5,224.6c-4.8,3.1-9.3,6.6-13.5,10.4l10.8,11.8c3.6-3.2,7.4-6.2,11.4-8.8L183.5,224.6z M141.9,277.4
	c-1.9,5.3-3.3,10.9-4.3,16.5l15.8,2.8c0.8-4.8,2.1-9.5,3.7-14L141.9,277.4z M158.4,247.6c-3.5,4.5-6.7,9.2-9.5,14.2l14,7.7
	c2.3-4.2,5-8.3,8-12L158.4,247.6z M156.4,339.6l-15.2,5c1.8,5.4,4,10.7,6.7,15.7l14.2-7.5C159.8,348.6,157.9,344.1,156.4,339.6z
	 M169.8,365.1l-12.7,9.7c3.4,4.5,7.3,8.8,11.4,12.7l11-11.6C176,372.5,172.7,368.9,169.8,365.1z M310,365.3
	c-2.9,3.8-6.2,7.4-9.7,10.7l11,11.7c4.2-3.9,8-8.2,11.4-12.7L310,365.3z M338.2,277.7l-15.1,5.3c1.6,4.6,2.8,9.3,3.6,14l15.8-2.7
	C341.5,288.7,340.1,283.1,338.2,277.7z M328,312c0,4.6-0.4,9.3-1.1,13.8l15.8,2.5c0.8-5.4,1.3-10.9,1.3-17.1L328,312z M152,311.6
	l-8-0.5l-8,1c0,5.3,0.4,10.7,1.2,16l15.8-2.4C152.3,321.1,152,316.5,152,311.6z M323.5,339.9c-1.5,4.6-3.4,9-5.7,13.3l14.1,7.5
	c2.7-5,4.9-10.3,6.7-15.7L323.5,339.9z M240,352c-13.2,0-24,10.8-24,24s10.8,24,24,24s24-10.8,24-24S253.2,352,240,352z M240,384
	c-4.4,0-8-3.6-8-8s3.6-8,8-8s8,3.6,8,8S244.4,384,240,384z M240,32c-13.2,0-24,10.8-24,24s10.8,24,24,24s24-10.8,24-24
	S253.2,32,240,32z M240,64c-4.4,0-8-3.6-8-8s3.6-8,8-8s8,3.6,8,8S244.4,64,240,64z M400,192c-13.2,0-24,10.8-24,24s10.8,24,24,24
	s24-10.8,24-24S413.2,192,400,192z M400,224c-4.4,0-8-3.6-8-8s3.6-8,8-8s8,3.6,8,8S404.4,224,400,224z M400,160
	c-22.3,0-38.9,9.7-48,27.1c-26.6-24-59.4-38.7-94.8-42.3C272,127.2,296,94,296,64c0-40.1-20.9-64-56-64s-56,23.9-56,64
	c0,30,24,63.2,38.8,80.9c-35.4,3.6-68.2,18.3-94.8,42.3c-9.1-17.4-25.7-27.1-48-27.1c-35.1,0-56,23.9-56,64
	c0,38.1,38.6,81.3,48.2,91.4C74,406.5,148.5,480,240,480s166-73.5,167.8-164.6c9.6-10.1,48.2-53.3,48.2-91.4
	C456,183.9,435.1,160,400,160z M200,64c0-31,14.2-48,40-48s40,17,40,48c0,28.2-27.8,62.5-40,76.2C227.8,126.5,200,92.2,200,64z
	 M84.8,294.6c-1,1.2-1.9,2.3-2.8,3.3c-0.4,0.4-0.7,0.8-1,1.2s-0.6,0.7-1,1.1c-12.2-13.7-40-48-40-76.2c0-31,14.2-48,40-48
	c19.2,0,32,9.5,37.3,27.1v0.1c1.8,6.2,2.7,13.1,2.7,20.8c0,2-0.2,4.1-0.5,6.2c-0.1,0.7-0.2,1.3-0.3,2c-0.2,1.5-0.6,3-0.9,4.5
	c-0.2,0.7-0.4,1.4-0.6,2.1c-0.4,1.6-1,3.2-1.5,4.8c-0.2,0.5-0.4,1.1-0.6,1.6c-0.8,2.1-1.7,4.3-2.6,6.4c-0.2,0.4-0.4,0.9-0.6,1.3
	c-0.8,1.7-1.6,3.4-2.5,5.1c-0.4,0.7-0.7,1.4-1.1,2c-0.8,1.5-1.6,2.9-2.5,4.4c-0.4,0.6-0.7,1.3-1.1,1.9c-1,1.7-2.1,3.4-3.2,5.1
	c-0.2,0.3-0.3,0.6-0.5,0.8c-1.3,1.9-2.6,3.8-3.9,5.7c-0.4,0.5-0.7,1-1.1,1.5c-1,1.3-1.9,2.6-2.9,3.9c-0.4,0.6-0.8,1.1-1.2,1.6
	c-0.9,1.2-1.9,2.4-2.8,3.6c-0.3,0.4-0.7,0.9-1,1.3c-1.2,1.5-2.4,2.9-3.5,4.3C85,294.4,84.9,294.5,84.8,294.6z M200,384
	c0-31,14.2-48,40-48s40,17,40,48c0,28.2-27.8,62.5-40,76.2C227.8,446.5,200,412.2,200,384z M259,462.7c15-18.2,37-49.9,37-78.7
	c0-40.1-20.9-64-56-64s-56,23.9-56,64c0,28.8,22.1,60.5,37,78.7c-73.8-9.3-131.4-71.6-133-147.5c0.4-0.5,0.9-1,1.5-1.6
	c0.3-0.4,0.6-0.7,1-1.1c0.5-0.5,1-1.1,1.5-1.7s1-1.2,1.6-1.8c0.5-0.6,1-1.2,1.6-1.8c0.7-0.8,1.3-1.6,2-2.4c0.6-0.7,1.1-1.3,1.7-2
	c0.8-0.9,1.5-1.9,2.3-2.9c0.6-0.7,1.2-1.4,1.7-2.2c0.9-1.1,1.8-2.3,2.7-3.5c0.5-0.7,1.1-1.4,1.6-2.1c1.2-1.6,2.4-3.4,3.7-5.1
	c0.2-0.3,0.5-0.7,0.7-1c1.5-2.1,2.9-4.3,4.3-6.5c0.4-0.7,0.8-1.3,1.2-2c1-1.6,2-3.2,3-4.9c0.5-0.9,1-1.8,1.5-2.7
	c0.8-1.5,1.7-3,2.5-4.5c0.5-1,1-2,1.5-3c0.7-1.5,1.4-3,2.1-4.5c0.5-1,0.9-2.1,1.3-3.1c0.6-1.5,1.2-3,1.8-4.5
	c0.4-1.1,0.8-2.1,1.1-3.2c0.5-1.6,1-3.1,1.4-4.7c0.3-1,0.6-2,0.8-3c0.4-1.7,0.7-3.4,1-5.1c0.1-0.9,0.3-1.7,0.4-2.6
	c0.3-2.6,0.5-5.1,0.5-7.6c0-3.4-0.2-6.6-0.5-9.7c-0.1-0.6-0.1-1.2-0.2-1.8c-0.4-3.2-0.8-6.2-1.5-9.1C162.5,175.4,200,160,240,160
	s77.5,15.4,106.1,43.4c-0.6,2.9-1.1,6-1.5,9.1c-0.1,0.6-0.1,1.2-0.2,1.8c-0.3,3.1-0.5,6.4-0.5,9.7c0,2.5,0.2,5.1,0.5,7.6
	c0.1,0.9,0.3,1.7,0.4,2.6c0.3,1.7,0.6,3.4,1,5.1c0.2,1,0.5,2,0.8,3c0.4,1.6,0.9,3.1,1.4,4.7c0.4,1.1,0.7,2.1,1.1,3.2
	c0.6,1.5,1.1,3,1.8,4.5c0.4,1,0.9,2.1,1.3,3.1c0.7,1.5,1.4,3,2.1,4.5c0.5,1,1,2,1.5,3c0.8,1.5,1.6,3,2.5,4.5c0.5,0.9,1,1.8,1.5,2.7
	c1,1.7,2,3.3,3,4.9c0.4,0.7,0.8,1.3,1.2,2c1.4,2.2,2.9,4.4,4.3,6.5c0.2,0.4,0.5,0.7,0.7,1c1.2,1.8,2.4,3.5,3.7,5.1
	c0.5,0.7,1.1,1.4,1.6,2.1c0.9,1.2,1.8,2.4,2.7,3.5c0.6,0.8,1.2,1.5,1.7,2.2c0.8,1,1.6,2,2.3,2.9c0.6,0.7,1.1,1.4,1.7,2
	c0.7,0.8,1.4,1.6,2,2.4c0.6,0.6,1.1,1.3,1.6,1.8c0.6,0.6,1.1,1.2,1.6,1.8c0.5,0.6,1,1.2,1.5,1.7c0.4,0.4,0.7,0.7,1,1.1
	c0.5,0.6,1,1.1,1.5,1.6C390.4,391.1,332.8,453.4,259,462.7z M400,300.2c-0.3-0.4-0.6-0.7-1-1.1c-0.3-0.4-0.7-0.8-1-1.2
	c-0.9-1-1.8-2.1-2.8-3.3c-0.1-0.1-0.2-0.3-0.3-0.4c-1.1-1.3-2.3-2.8-3.5-4.3c-0.3-0.4-0.7-0.8-1-1.3c-0.9-1.1-1.8-2.3-2.8-3.6
	c-0.4-0.5-0.8-1.1-1.2-1.6c-1-1.3-1.9-2.6-2.9-3.9c-0.4-0.5-0.7-1-1.1-1.5c-1.3-1.8-2.6-3.7-3.9-5.7c-0.2-0.3-0.3-0.6-0.5-0.8
	c-1.1-1.7-2.2-3.4-3.2-5.1c-0.4-0.6-0.8-1.3-1.1-1.9c-0.8-1.4-1.7-2.9-2.5-4.4c-0.4-0.7-0.7-1.4-1.1-2c-0.9-1.7-1.7-3.4-2.5-5.1
	c-0.2-0.4-0.4-0.9-0.6-1.3c-1-2.1-1.8-4.3-2.6-6.4c-0.2-0.5-0.4-1.1-0.6-1.6c-0.6-1.6-1.1-3.2-1.5-4.8c-0.2-0.7-0.4-1.4-0.6-2.1
	c-0.4-1.5-0.7-3-0.9-4.5c-0.1-0.7-0.2-1.3-0.3-2c-0.3-2.1-0.5-4.2-0.5-6.2c0-7.6,0.9-14.6,2.7-20.8v-0.1c5.3-17.6,18-27.1,37.3-27.1
	c25.8,0,40,17,40,48C440,252.2,412.2,286.5,400,300.2z M80,192c-13.2,0-24,10.8-24,24s10.8,24,24,24s24-10.8,24-24S93.2,192,80,192z
	 M80,224c-4.4,0-8-3.6-8-8s3.6-8,8-8s8,3.6,8,8S84.4,224,80,224z M274.3,250.3L240,284.7l-10.3-10.3l-11.3,11.3l16,16
	c1.6,1.6,3.6,2.3,5.7,2.3s4.1-0.8,5.7-2.3l40-40L274.3,250.3z M312,56h16v16h-16V56z M344,24h16v16h-16V24z M344,56h16v16h-16V56z
	 M344,88h16v16h-16V88z M152,56h16v16h-16V56z M120,88h16v16h-16V88z M120,56h16v16h-16V56z M120,24h16v16h-16V24z"/>
</svg>
