<?xml version="1.0" encoding="UTF-8"?>
<svg width="114px" height="36px" viewBox="0 0 114 36" version="1.1" xmlns="http://www.w3.org/2000/svg" xmlns:xlink="http://www.w3.org/1999/xlink">
    <defs>
        <polygon id="path-1" points="0.109550735 0.108385714 28.0106671 0.108385714 28.0106671 28.2673575 0.109550735 28.2673575"></polygon>
    </defs>
    <g id="final" stroke="none" stroke-width="1" fill="none" fill-rule="evenodd">
        <g id="320px_menu" transform="translate(-15.000000, -17.000000)">
            <g id="Group-4" transform="translate(15.000000, 11.000000)">
                <g id="Group-7" transform="translate(0.000000, 6.000000)">
                    <g id="Group-11">
                        <g id="Group-6">
                            <g id="Group-3" transform="translate(16.556604, 0.020186)">
                                <mask id="mask-2" fill="white">
                                    <use xlink:href="#path-1"></use>
                                </mask>
                                <g id="Clip-2"></g>
                                <path d="M19.5488151,6.29427857 C17.4693057,6.29453571 15.754933,8.03835 15.7665226,10.1413929 C15.7779849,12.2063786 17.5016547,13.9334786 19.5483057,13.93065 C21.6233575,13.9276929 23.3630745,12.1571357 23.335183,10.0764643 C23.3075462,7.99540714 21.6041264,6.29389286 19.5488151,6.29427857 M8.04719717,26.8381929 C9.28244717,25.9273929 10.4900604,25.0358786 11.6990745,24.1460357 C12.2301594,23.7551786 12.7564047,23.3568643 13.3000981,22.9843929 C13.5471736,22.8150643 13.5844896,22.6868786 13.3982915,22.4298643 C11.0829142,19.2338357 8.77352264,16.0333071 6.47826792,12.8224929 C6.2611217,12.5188071 6.13198019,12.57615 5.88452264,12.7602643 C4.07666887,14.1042214 2.25849906,15.4340357 0.437145283,16.7731071 C-0.72614717,12.2938071 1.1581217,5.59356429 6.90160755,2.07456429 C12.5387491,-1.37937857 20.2359142,-0.186107143 24.5541311,4.89362143 C29.1310132,10.2774214 29.1715132,18.0023786 24.62265,23.37255 C20.1094472,28.70055 12.8391877,29.3862214 8.04719717,26.8381929" id="Fill-1" fill="#E23E57" mask="url(#mask-2)"></path>
                            </g>
                            <path d="M27.8370127,21.9993043 C28.0153146,22.2484757 27.9609325,22.5998614 27.7176778,22.7848757 C27.7058335,22.7940043 27.6938618,22.8028757 27.6818901,22.8116186 C25.0935835,24.7129329 22.504258,26.6127043 19.9141684,28.5113186 C16.8267439,30.7745614 13.7352439,33.0322757 10.654442,35.30439 C10.3133759,35.5558757 10.1460269,35.6251757 9.84176745,35.1979329 C6.63640896,30.6979329 3.40328632,26.2181186 0.166725,21.7406186 C-0.108114623,21.3604329 -0.0756382075,21.2402186 0.510720283,20.8204329 C2.11658349,19.6710043 3.13545142,18.7710043 4.70157877,17.7329186 C5.21776274,17.3906614 5.26730519,17.5371043 5.45605047,17.8006757 C6.78529104,19.6562186 8.13669198,21.4958186 9.44020613,23.3696186 C9.73797028,23.7977614 9.92098443,23.7922329 10.3068807,23.5073186 C14.2077439,20.6264186 18.1222344,17.7644186 22.0279373,14.8902043 C22.3021401,14.6884757 22.4752203,14.5033329 22.7678901,14.9182329 C24.4398524,17.2892186 26.1427627,19.63809 27.8340835,21.99519 L27.8370127,21.9993043 Z" id="Fill-4" fill="#3F3D56"></path>
                        </g>
                    </g>
                    <text id="TurnKey-Lender" font-family="AvenirNext-Medium, Avenir Next" font-size="16" font-weight="400" line-spacing="16">
                        <tspan x="52" y="18.2719727" fill="#3F3D56">Turn</tspan>
                        <tspan x="82.528" y="18" font-family="AvenirNext-Bold, Avenir Next" font-weight="bold" fill="#E23E57">Key</tspan>
                        <tspan x="52" y="34.2719727" fill="#3F3D56">Lender</tspan>
                    </text>
                </g>
            </g>
        </g>
    </g>
</svg>