<svg id="Слой_1" data-name="Слой 1" xmlns="http://www.w3.org/2000/svg" viewBox="0 0 325 326"><defs><style>.cls-1{fill:#ccc;}.cls-2{fill:#b3b3b3;}.cls-3{fill:#e6e6e6;}</style></defs><title>illustrations</title><path class="cls-1" d="M322.5,31.13v47.5L303.75,97.38H21.25L2.5,78.63V31.13A28.09,28.09,0,0,1,30.63,3H294.38A28.09,28.09,0,0,1,322.5,31.13Z"/><path class="cls-2" d="M322.5,31.13v47.5L303.75,97.38H162.5V3H294.38A28.09,28.09,0,0,1,322.5,31.13Z"/><path class="cls-3" d="M322.5,78.63V294.88A28.09,28.09,0,0,1,294.38,323H30.63A28.09,28.09,0,0,1,2.5,294.88V78.63Z"/><path class="cls-1" d="M322.5,78.63V294.88A28.09,28.09,0,0,1,294.38,323H162.5V78.63Z"/><circle class="cls-2" cx="49.38" cy="49.88" r="9.38"/><circle class="cls-2" cx="86.88" cy="49.88" r="9.38"/><circle class="cls-2" cx="124.38" cy="49.88" r="9.38"/><path class="cls-2" d="M275.63,153.63H237.5a9.38,9.38,0,0,1,0-18.75h38.13a9.38,9.38,0,0,1,0,18.75Z"/><path class="cls-2" d="M275.63,191.13H200a9.38,9.38,0,0,1,0-18.75h75.63a9.38,9.38,0,0,1,0,18.75Z"/><path class="cls-2" d="M275.63,228.63H200a9.38,9.38,0,0,1,0-18.75h75.63a9.38,9.38,0,0,1,0,18.75Z"/><path class="cls-2" d="M275.63,266.13H200a9.38,9.38,0,0,1,0-18.75h75.63a9.38,9.38,0,0,1,0,18.75Z"/></svg>