<svg id="Слой_1" data-name="Слой 1" xmlns="http://www.w3.org/2000/svg" viewBox="0 0 325 325"><defs><style>.cls-1{fill:#e6e6e6;}.cls-2{fill:#ccc;}</style></defs><title>illustrations</title><path class="cls-1" d="M315.38,134.75l-16-3.94a135.63,135.63,0,0,0-17.63-42.75l8.06-13.5a9.33,9.33,0,0,0-1.31-11.44L261.88,36.5a9.33,9.33,0,0,0-11.44-1.31l-13.5,8.06a135.62,135.62,0,0,0-42.75-17.63l-3.94-16a9.24,9.24,0,0,0-9-7.12h-37.5a9.24,9.24,0,0,0-9,7.12l-3.94,16A135.63,135.63,0,0,0,88.06,43.25l-13.5-8.06A9.33,9.33,0,0,0,63.13,36.5L36.5,63.13a9.33,9.33,0,0,0-1.31,11.44l8.06,13.5a135.62,135.62,0,0,0-17.63,42.75l-16,3.94a9.24,9.24,0,0,0-7.12,9v37.5a9.24,9.24,0,0,0,7.12,9l16,3.94a135.63,135.63,0,0,0,17.62,42.75l-8.06,13.5a9.33,9.33,0,0,0,1.31,11.44L63.13,288.5a9.33,9.33,0,0,0,11.44,1.31l13.5-8.06a135.62,135.62,0,0,0,42.75,17.63l3.94,16a9.24,9.24,0,0,0,9,7.12h37.5a9.24,9.24,0,0,0,9-7.12l3.94-16a135.63,135.63,0,0,0,42.75-17.63l13.5,8.06a9.33,9.33,0,0,0,11.44-1.31l26.62-26.63a9.33,9.33,0,0,0,1.31-11.44l-8.06-13.5a135.62,135.62,0,0,0,17.63-42.75l16-3.94a9.24,9.24,0,0,0,7.12-9v-37.5A9.24,9.24,0,0,0,315.38,134.75ZM162.5,265.63A103.13,103.13,0,1,1,265.63,162.5,103.31,103.31,0,0,1,162.5,265.63Z"/><path class="cls-2" d="M322.5,143.75v37.5a9.24,9.24,0,0,1-7.12,9l-16,3.94a135.63,135.63,0,0,1-17.63,42.75l8.06,13.5a9.33,9.33,0,0,1-1.31,11.44L261.88,288.5a9.33,9.33,0,0,1-11.44,1.31l-13.5-8.06a135.62,135.62,0,0,1-42.75,17.63l-3.94,16a9.24,9.24,0,0,1-9,7.12H162.5V265.63a103.13,103.13,0,1,0,0-206.25V2.5h18.75a9.24,9.24,0,0,1,9,7.12l3.94,16a135.63,135.63,0,0,1,42.75,17.62l13.5-8.06a9.33,9.33,0,0,1,11.44,1.31L288.5,63.13a9.33,9.33,0,0,1,1.31,11.44l-8.06,13.5a135.62,135.62,0,0,1,17.63,42.75l16,3.94A9.24,9.24,0,0,1,322.5,143.75Z"/></svg>