<svg id="Слой_1" data-name="Слой 1" xmlns="http://www.w3.org/2000/svg" viewBox="0 0 325 325"><defs><style>.cls-1{fill:#e6e6e6;}.cls-2{fill:#ccc;}.cls-3{fill:#b3b3b3;}</style></defs><title>illustrations</title><path class="cls-1" d="M12.38,265.75A9.37,9.37,0,0,1,3,256.38v-37.5a9.38,9.38,0,0,1,18.75,0v37.5A9.37,9.37,0,0,1,12.38,265.75Z"/><path class="cls-2" d="M313.63,265.75a9.37,9.37,0,0,1-9.37-9.37v-37.5a9.38,9.38,0,0,1,18.75,0v37.5A9.37,9.37,0,0,1,313.63,265.75Z"/><path class="cls-1" d="M317,247.56,166.37,191.31a10.42,10.42,0,0,0-6.75,0L9,247.56a9.47,9.47,0,0,0,0,17.63l150.62,56.25a10.4,10.4,0,0,0,6.75,0L317,265.19a9.47,9.47,0,0,0,0-17.63Z"/><path class="cls-2" d="M323,256.38a9.4,9.4,0,0,1-6,8.81L166.37,321.44A10.6,10.6,0,0,1,163,322V190.75a10.63,10.63,0,0,1,3.37.56L317,247.56A9.4,9.4,0,0,1,323,256.38Z"/><path class="cls-2" d="M163,210.06,39,256.38l124,46.31,124-46.31Z"/><polygon class="cls-3" points="287 256.38 163 302.69 163 210.06 287 256.38"/><path class="cls-1" d="M266.94,266.31l-26.62-9.94,26.62-9.94a9.42,9.42,0,0,0,5.44-12.19,9.53,9.53,0,0,0-12-5.44l-47.31,17.63-23.44-8.81,26.63-9.94a9.4,9.4,0,0,0-6.56-17.62L163,227.69l-46.69-17.63a9.4,9.4,0,0,0-6.56,17.62l26.63,9.94-23.44,8.81L65.63,228.81a9.3,9.3,0,0,0-12,5.44,9.42,9.42,0,0,0,5.44,12.19l26.62,9.94-26.62,9.94a9.42,9.42,0,0,0-5.44,12.19,9.53,9.53,0,0,0,12,5.44l47.31-17.63,23.44,8.81-26.63,9.94a9.4,9.4,0,0,0,6.56,17.63L163,285.06l46.69,17.63a10.6,10.6,0,0,0,3.37.56,9.07,9.07,0,0,0,8.63-6,9.42,9.42,0,0,0-5.44-12.19l-26.63-9.94,23.44-8.81,47.31,17.63a9.51,9.51,0,0,0,3.19.56,9.14,9.14,0,0,0,8.81-6A9.42,9.42,0,0,0,266.94,266.31ZM163,265.19l-23.25-8.81L163,247.56l23.25,8.81Z"/><path class="cls-1" d="M12.38,134.5A9.37,9.37,0,0,1,3,125.13V106.38a9.38,9.38,0,0,1,18.75,0v18.75A9.37,9.37,0,0,1,12.38,134.5Z"/><path class="cls-1" d="M12.38,190.75A9.37,9.37,0,0,1,3,181.38V162.63a9.38,9.38,0,0,1,18.75,0v18.75A9.37,9.37,0,0,1,12.38,190.75Z"/><path class="cls-1" d="M12.38,78.25A9.37,9.37,0,0,1,3,68.88V50.13a9.38,9.38,0,0,1,18.75,0V68.88A9.37,9.37,0,0,1,12.38,78.25Z"/><path class="cls-2" d="M313.63,134.5a9.37,9.37,0,0,1-9.37-9.37V106.38a9.38,9.38,0,0,1,18.75,0v18.75A9.37,9.37,0,0,1,313.63,134.5Z"/><path class="cls-2" d="M313.63,190.75a9.37,9.37,0,0,1-9.37-9.37V162.63a9.38,9.38,0,0,1,18.75,0v18.75A9.37,9.37,0,0,1,313.63,190.75Z"/><path class="cls-2" d="M313.63,78.25a9.37,9.37,0,0,1-9.37-9.37V50.13a9.38,9.38,0,0,1,18.75,0V68.88A9.37,9.37,0,0,1,313.63,78.25Z"/><path class="cls-1" d="M49.88,97a9.37,9.37,0,0,1-9.37-9.37V68.88a9.38,9.38,0,0,1,18.75,0V87.63A9.37,9.37,0,0,1,49.88,97Z"/><path class="cls-1" d="M49.88,153.25a9.37,9.37,0,0,1-9.37-9.37V125.13a9.38,9.38,0,0,1,18.75,0v18.75A9.37,9.37,0,0,1,49.88,153.25Z"/><path class="cls-1" d="M49.88,209.5a9.37,9.37,0,0,1-9.37-9.37V181.38a9.38,9.38,0,0,1,18.75,0v18.75A9.37,9.37,0,0,1,49.88,209.5Z"/><path class="cls-1" d="M49.88,40.75a9.37,9.37,0,0,1-9.37-9.37v-20a9.38,9.38,0,0,1,18.75,0v20A9.37,9.37,0,0,1,49.88,40.75Z"/><path class="cls-2" d="M276.13,97a9.37,9.37,0,0,1-9.37-9.37V68.88a9.38,9.38,0,0,1,18.75,0V87.63A9.37,9.37,0,0,1,276.13,97Z"/><path class="cls-2" d="M276.13,153.25a9.37,9.37,0,0,1-9.37-9.37V125.13a9.38,9.38,0,0,1,18.75,0v18.75A9.37,9.37,0,0,1,276.13,153.25Z"/><path class="cls-2" d="M276.13,209.5a9.37,9.37,0,0,1-9.37-9.37V181.38a9.38,9.38,0,0,1,18.75,0v18.75A9.37,9.37,0,0,1,276.13,209.5Z"/><path class="cls-2" d="M276.13,40.75a9.37,9.37,0,0,1-9.37-9.37v-20a9.38,9.38,0,0,1,18.75,0v20A9.37,9.37,0,0,1,276.13,40.75Z"/><path class="cls-2" d="M272.38,278.5a9.14,9.14,0,0,1-8.81,6,9.51,9.51,0,0,1-3.19-.56l-47.31-17.63-23.44,8.81,26.63,9.94a9.42,9.42,0,0,1,5.44,12.19,9.07,9.07,0,0,1-8.63,6,10.6,10.6,0,0,1-3.37-.56L163,285.06V265.19l23.25-8.81L163,247.56V227.69l46.69-17.63a9.4,9.4,0,0,1,6.56,17.62l-26.63,9.94,23.44,8.81,47.31-17.63a9.53,9.53,0,0,1,12,5.44,9.42,9.42,0,0,1-5.44,12.19l-26.62,9.94,26.62,9.94A9.42,9.42,0,0,1,272.38,278.5Z"/></svg>