<?xml version="1.0" encoding="utf-8"?>
<!-- Generator: Adobe Illustrator 21.0.0, SVG Export Plug-In . SVG Version: 6.00 Build 0)  -->
<svg version="1.1" id="Слой_1" xmlns="http://www.w3.org/2000/svg" xmlns:xlink="http://www.w3.org/1999/xlink" x="0px" y="0px"
	 viewBox="0 0 63.4 63.7" style="enable-background:new 0 0 63.4 63.7;" xml:space="preserve">
<style type="text/css">
	.st0{fill:url(#co-founder-business-entrepneur-startup_1_);}
</style>
<linearGradient id="co-founder-business-entrepneur-startup_1_" gradientUnits="userSpaceOnUse" x1="9.225" y1="5.325" x2="55.025" y2="51.125" gradientTransform="matrix(1 0 0 -1 0 65)">
	<stop  offset="0" style="stop-color:#FF303E"/>
	<stop  offset="1" style="stop-color:#0082BE"/>
</linearGradient>
<path id="co-founder-business-entrepneur-startup" class="st0" d="M34.7,8.1h2v2h-2V8.1z M13,53.9l1.4-1.4l2,2L15,55.9L13,53.9z
	 M53.4,41.5l-3-3c-0.2-0.2-0.5-0.3-0.7-0.3c-0.3,0-0.5,0.1-0.7,0.3l-0.1,0.3l-0.9-1v-2.6c0-0.3-0.1-0.5-0.3-0.7L42,28.8v-6.6
	c0-0.3-0.1-0.5-0.3-0.7L40,19.8v-1.6c0,0,1-0.4,1-1v-4V-0.1h-2v12H25v-12h-2v13.3v4c0,0.6,0,1,1,1v1.6l-3.7,3.7
	c-0.2,0.2-0.3,0.4-0.3,0.7v2.6l-4.7,4.7c-0.2,0.2-0.3,0.4-0.3,0.7v5.6l-1.1,1l-0.4-0.3c-0.4-0.4-1.1-0.4-1.5,0l-3,3l-9,9l1.4,1.4
	l8.3-8.3l10.6,10.6L12,62.5l1.4,1.4l9-9l3-3c0.4-0.4,0.4-1,0-1.4l-0.3-0.3l1.1-1.1c0.2,0,0.3,0.1,0.5,0.1c0.4,0,0.8-0.1,1.1-0.2
	c0.3,1.3,1.5,2.2,2.9,2.2c1.1,0,2-0.7,2.5-1.5c0.4,0.2,0.9,0.3,1.5,0.3h1.6l1,1.1L37,51.4c-0.4,0.4-0.4,1,0,1.4l3,3l8,8l1.4-1.4
	l-7.3-7.2l3.5-3.8l7.1-7.7L62,53l1.4-1.4L53.4,41.5z M39,13.9v2H25v-2H39z M21.7,52.8L11.1,42.2l1.6-1.6l0.3,0.3l10,10l0.3,0.3
	L21.7,52.8z M15.1,40.2l1.4-1.3c0.2-0.2,0.4-0.4,0.4-0.7v-5.6l3-3v1.6c0,0.3,0.1,0.5,0.3,0.7l3.7,3.7v10.6c0,0.7,0.1,1.4,0.5,1.9
	l-0.8,0.7L15.1,40.2z M34,47.2V31.9h-2v15.3v1c0,0.6-0.4,1-1,1s-1-0.4-1-1v-2V31.9h-2v14.3c0,0.6-0.4,1-1,1s-1-0.4-1-1V29.9h-2v2.9
	l-2-2v-2.6v-2v-1.6l3.7-3.7c0.2-0.2,0.3-0.4,0.3-0.7v-2.3h12v2.3c0,0.3,0.1,0.5,0.3,0.7l1.7,1.7v19.6c0,0.6-0.4,1-1,1s-1-0.4-1-1
	V31.9h-2v10.3v5c0,0.6-0.4,1-1,1S34,47.8,34,47.2z M37.4,48.5L37.4,48.5c0.3-0.4,0.5-0.8,0.5-1.3V45c0,0.1,0.6,0.2,1,0.2
	c1.7,0,3-1.3,3-3V31.5l4,4v2.6c0,0.3,0,0.5,0.1,0.7l1.3,1.3L43,45l-4.3,4.7L37.4,48.5z M39.2,52.1c0.1-0.1,0.2-0.1,0.2-0.2l5-5.5
	l5.3-5.7l1.6,1.6L47.8,46l-7.1,7.7l-1.6-1.6L39.2,52.1z M51,49.5l2-2l1.4,1.4l-2,2L51,49.5z M31.7,59.2c-3.3,0-6.6-0.6-9.6-1.9
	L21.3,59c3.3,1.4,6.8,2.1,10.4,2.1c2.8,0,5.6-0.4,8.3-1.3l-0.6-1.9C36.9,58.8,34.3,59.2,31.7,59.2z M56.7,34.2c0,2.3-0.3,4.7-1,6.9
	l1.9,0.6c0.7-2.4,1-4.9,1-7.4c0-10.4-6.1-20-15.6-24.5l-0.8,1.8C51,15.5,56.7,24.4,56.7,34.2z M7.6,40.9c-0.6-2.1-0.9-4.4-0.9-6.7
	c0-9.7,5.7-18.6,14.4-22.7l-0.8-1.8C10.8,14.1,4.7,23.8,4.7,34.2c0,2.5,0.3,4.9,1,7.3L7.6,40.9z"/>
</svg>
