<svg id="Слой_1" data-name="Слой 1" xmlns="http://www.w3.org/2000/svg" xmlns:xlink="http://www.w3.org/1999/xlink" viewBox="0 0 128 150"><defs><style>.cls-1{fill:url(#Безымянный_градиент_11);}.cls-2{fill:url(#Безымянный_градиент_11-2);}.cls-3{fill:url(#Безымянный_градиент_11-3);}.cls-4{fill:url(#Безымянный_градиент_11-4);}.cls-5{fill:url(#Безымянный_градиент_11-5);}.cls-6{fill:url(#Безымянный_градиент_11-6);}.cls-7{fill:url(#Безымянный_градиент_11-7);}.cls-8{fill:url(#Безымянный_градиент_11-8);}</style><linearGradient id="Безымянный_градиент_11" x1="116.13" y1="141.14" x2="116.13" y2="16.61" gradientTransform="matrix(-1, 0, 0, 1, 148.03, 0)" gradientUnits="userSpaceOnUse"><stop offset="0" stop-color="#ff303e" stop-opacity="0.3"/><stop offset="1" stop-color="#0082be"/></linearGradient><linearGradient id="Безымянный_градиент_11-2" x1="-1.92" y1="53.71" x2="112.41" y2="136.39" xlink:href="#Безымянный_градиент_11"/><linearGradient id="Безымянный_градиент_11-3" x1="84.03" y1="-44.09" x2="84.03" y2="240.88" xlink:href="#Безымянный_градиент_11"/><linearGradient id="Безымянный_градиент_11-4" x1="84.03" y1="147.78" x2="84.03" y2="152.22" xlink:href="#Безымянный_градиент_11"/><linearGradient id="Безымянный_градиент_11-5" x1="105.04" y1="117.42" x2="105.04" y2="35.91" xlink:href="#Безымянный_градиент_11"/><linearGradient id="Безымянный_градиент_11-6" x1="27.77" y1="60.19" x2="102.61" y2="114.31" xlink:href="#Безымянный_градиент_11"/><linearGradient id="Безымянный_градиент_11-7" x1="84.03" y1="-3.83" x2="84.03" y2="182.71" xlink:href="#Безымянный_градиент_11"/><linearGradient id="Безымянный_градиент_11-8" x1="84.03" y1="121.74" x2="84.03" y2="124.7" xlink:href="#Безымянный_градиент_11"/></defs><title>cube</title><polygon class="cls-1" points="-0.2 37.06 64 74.13 64 148.25 -0.2 111.19 -0.2 37.06"/><polygon class="cls-2" points="128.19 37.06 128.19 111.19 64 148.25 64 74.13 128.19 37.06"/><polygon class="cls-3" points="-0.19 37.06 64 0 128.19 37.06 64 74.13 -0.19 37.06"/><polygon class="cls-4" points="64 150 64 150 64 150 64 150"/><polygon class="cls-5" points="21.98 49.29 64 73.56 64 122.08 21.98 97.81 21.98 49.29"/><polygon class="cls-6" points="106.02 49.29 106.02 97.81 64 122.08 64 73.56 106.02 49.29"/><polygon class="cls-7" points="21.98 49.29 64 25.03 106.02 49.29 64 73.56 21.98 49.29"/><polygon class="cls-8" points="64 123.22 64 123.22 64 123.22 64 123.22"/></svg>