<?xml version="1.0" encoding="utf-8"?>
<!-- Generator: Adobe Illustrator 21.0.0, SVG Export Plug-In . SVG Version: 6.00 Build 0)  -->
<svg version="1.1" id="Capa_1" xmlns="http://www.w3.org/2000/svg" xmlns:xlink="http://www.w3.org/1999/xlink" x="0px" y="0px"
	 viewBox="0 0 480 480" style="enable-background:new 0 0 480 480;" xml:space="preserve">
<style type="text/css">
	.st0{fill:url(#SVGID_1_);}
</style>
<linearGradient id="SVGID_1_" gradientUnits="userSpaceOnUse" x1="42.3258" y1="517.6259" x2="437.6242" y2="122.3275">
	<stop  offset="0" style="stop-color:#FF303E"/>
	<stop  offset="1" style="stop-color:#0082BE"/>
</linearGradient>
<path class="st0" d="M440,240c4.4,0,8-3.6,8-8v-24h24c4.4,0,8-3.6,8-8v-32c0-2.6-1.3-5.1-3.5-6.6l-232-160c-2.7-1.9-6.4-1.9-9.1,0
	l-232,160c-2.2,1.5-3.5,4-3.5,6.6v32c0,4.4,3.6,8,8,8h24v24c0,4.4,3.6,8,8,8h8v160h-8c-4.4,0-8,3.6-8,8v24H8c-4.4,0-8,3.6-8,8v32
	c0,4.4,3.6,8,8,8h464c4.4,0,8-3.6,8-8v-32c0-4.4-3.6-8-8-8h-24v-24c0-4.4-3.6-8-8-8h-8V240H440L440,240z M240,17.7L446.3,160H33.7
	L240,17.7z M40,192H16v-16h448v16h-24h-80H120H40z M424,416h8v16h-64v-16h8H424z M384,400V240h32v160H384z M368,400h-8
	c-4.4,0-8,3.6-8,8v24h-24V321.4c0-33.5-18.6-63.7-48.6-78.7c-24.6-12.3-54.1-12.3-78.7,0c-30,15-48.6,45.2-48.6,78.7V432h-24v-24
	c0-4.4-3.6-8-8-8h-8V240h8c4.4,0,8-3.6,8-8v-24h224v24c0,4.4,3.6,8,8,8h8v160H368z M312,321.4V432H168V321.4
	c0-27.4,15.2-52.1,39.8-64.4c20.2-10,44.2-10,64.4,0C296.8,269.3,312,294,312,321.4z M56,224h-8v-16h64v16h-8H56z M96,240v160H64
	V240H96L96,240z M48,416h8h48h8v16H48V416z M440,448h24v16H16v-16h24h80h40h160h40H440z M424,224h-48h-8v-16h64v16H424z M240,64
	c-22.1,0-40,17.9-40,40s17.9,40,40,40s40-17.9,40-40S262.1,64,240,64z M240,128c-13.2,0-24-10.8-24-24s10.8-24,24-24s24,10.8,24,24
	S253.2,128,240,128z M260.8,353.6l-28-21c1.3-2.7,4-4.6,7.2-4.6c4.4,0,8,3.6,8,8h16c0-10.4-6.7-19.2-16-22.5V304h-16v9.5
	c-9.3,3.3-16,12.1-16,22.5c0,2.5,1.2,4.9,3.2,6.4l28,21c-1.3,2.7-4,4.6-7.2,4.6c-4.4,0-8-3.6-8-8h-16c0,10.4,6.7,19.2,16,22.5v9.5
	h16v-9.5c9.3-3.3,16-12.1,16-22.5C264,357.5,262.8,355.1,260.8,353.6z"/>
</svg>
