<?xml version="1.0" encoding="utf-8"?>
<!-- Generator: Adobe Illustrator 21.0.0, SVG Export Plug-In . SVG Version: 6.00 Build 0)  -->
<svg version="1.1" id="Слой_1" xmlns="http://www.w3.org/2000/svg" xmlns:xlink="http://www.w3.org/1999/xlink" x="0px" y="0px"
	 viewBox="0 0 2500 642" style="enable-background:new 0 0 2500 642;" xml:space="preserve">
<style type="text/css">
	.st0{fill:#B3B3B3;}
</style>
<g>
	<path class="st0" d="M97.2,506.2l28.7-96.3h113.7l26.9,96.3h105.3L267.1,138.8c-6-21.6-19.2-31.7-41.9-31.7H76.3v34.7h12.6
		c15.6,0,23.9,6,23.9,17.9c0,7.8-1.8,14.4-7.8,32.3L0.3,506.2H97.2z M225.2,344.6h-84.4L185.7,198L225.2,344.6z M493.2,506.2V137.6
		c0-19.1-11.3-30.5-29.9-30.5h-92.1v34.7h6c15.6,0,22.1,6.6,22.1,22.1v342.2L493.2,506.2L493.2,506.2z M652.8,506.2V137.6
		c0-19.1-11.4-30.5-29.9-30.5h-92.2v34.7h6c15.6,0,22.1,6.6,22.1,22.1v342.2L652.8,506.2L652.8,506.2z M814.8,506.2V237.5
		c0-19.1-11.4-30.5-29.9-30.5h-91v34.1h5.4c15.6,0,22.1,7.2,22.1,22.7v242.3L814.8,506.2L814.8,506.2L814.8,506.2z M816.6,143.6
		c0-26.9-19.7-43.1-53.8-43.1c-33.5,0-53.8,16.2-53.8,43.1s20.3,43.1,53.8,43.1C796.8,186.7,816.6,170.5,816.6,143.6z M894.2,292.6
		c31.1-14.9,65.2-23.3,92.2-23.3c25.1,0,34.1,9,34.1,35.3v6.6c-38.3,6-50.2,8.4-71.8,13.2c-12.1,2.8-23.9,6.6-35.3,11.3
		c-37.7,15-55.7,44.3-55.7,89.1c0,56.8,24.5,84.4,75.4,84.4c18.5,0,35.3-3.5,50.2-9.6c13.2-6,20.9-10.8,40.1-25.7v4.2
		c0,18.6,9.6,28.1,28.1,28.1h85.6v-32.3h-4.2c-16.2,0-22.2-7.2-22.2-26.4V305.1c0-76-26.3-102.3-102.3-102.3
		c-24.5,0-48.4,3-71.8,8.4c-23.3,5.4-35.3,10.2-63.4,24L894.2,292.6L894.2,292.6z M1020.4,362.6v58c-15.6,16.1-34.7,25.7-50.9,25.7
		c-16.7,0-22.7-8.4-22.7-30.5c0-22.2,4.8-32.3,21.5-38.9C981,371.6,997.1,366.8,1020.4,362.6L1020.4,362.6z M1273.4,506.2V304
		c15.6-17.3,31.7-25.1,50.2-25.1c19.8,0,24.5,7.8,24.5,37.7v189.6h93.3V302.8c0-47.3-3.6-62.2-18.6-78.4c-12.6-13.8-31.7-21-56.3-21
		c-36.4,0-62.2,11.4-96.9,43.7v-12c0-18.6-9.5-28.1-28.7-28.1h-88.5v34.1h5.4c15.6,0,22.2,7.2,22.2,22.7v242.3L1273.4,506.2
		L1273.4,506.2z M1718.5,443.4H1588l124.5-174.7V207h-195.1c-22.2,0-32.3,10.1-32.3,32.3v54.4h34.7v-5.4c0-13.7,7.2-20.3,22.1-20.3
		h67l-125.7,176.5v61.6h235.2L1718.5,443.4L1718.5,443.4z M2499.7,320.7C2499.7,137,2362.7,0,2178.9,0
		c-183.7,0-321.3,137-321.3,320.7c0,184.3,137.6,321.3,321.3,321.3C2362.7,642,2499.7,505,2499.7,320.7L2499.7,320.7z M2436.3,320.7
		c0,151.4-108.9,261.5-257.3,261.5c-149,0-257.3-110.1-257.3-261.5c0-150.8,108.3-260.9,257.3-260.9
		C2327.4,59.8,2436.3,169.9,2436.3,320.7L2436.3,320.7z M2095.8,490V199.8h-52.1c-25.7,0-35.9,10.2-35.9,35.9V490L2095.8,490
		L2095.8,490L2095.8,490z M2262.1,490h87.4V235.7c0-25.7-9.6-35.9-35.9-35.9h-51.5V490z M2222.6,490V153.2c0-26.9-9-35.9-35.9-35.9
		h-78.4v37.1h4.8l8.4,0.6c3,0,6,1.8,8.4,4.2c3.6,4.2,4.8,8.4,4.8,17.3V490H2222.6L2222.6,490z"/>
</g>
</svg>
