<?xml version="1.0" encoding="utf-8"?>
<!-- Generator: Adobe Illustrator 21.0.0, SVG Export Plug-In . SVG Version: 6.00 Build 0)  -->
<svg version="1.1" id="Capa_1" xmlns="http://www.w3.org/2000/svg" xmlns:xlink="http://www.w3.org/1999/xlink" x="0px" y="0px"
	 viewBox="0 0 480 480" style="enable-background:new 0 0 480 480;" xml:space="preserve">
<style type="text/css">
	.st0{fill:url(#SVGID_1_);}
</style>
<linearGradient id="SVGID_1_" gradientUnits="userSpaceOnUse" x1="23.939" y1="464.481" x2="456.061" y2="32.359">
	<stop  offset="0" style="stop-color:#FF303E"/>
	<stop  offset="1" style="stop-color:#0082BE"/>
</linearGradient>
<path class="st0" d="M424,304v-24c0-32.6-24.5-59.5-56-63.4V192h16c52.9,0,96-43.1,96-96S436.9,0,384,0H280c-13.9,0-27.4,3.1-40,9
	c-12.6-5.8-26.1-9-40-9H96C43.1,0,0,43.1,0,96s43.1,96,96,96h16v24.6c-31.5,4-56,30.9-56,63.4v24c-22.1,0-40,17.9-40,40v96
	c0,22.1,17.9,40,40,40h128c22.1,0,40-17.9,40-40v-96c0-22.1-17.9-40-40-40v-24c0-32.6-24.5-59.5-56-63.4V192h72
	c13.9,0,27.4-3.1,40-9c12.6,5.8,26.1,9,40,9h72v24.6c-31.5,4-56,30.9-56,63.4v24c-22.1,0-40,17.9-40,40v96c0,22.1,17.9,40,40,40h128
	c22.1,0,40-17.9,40-40v-96C464,321.9,446.1,304,424,304z M208,344v96c0,13.2-10.8,24-24,24H56c-13.2,0-24-10.8-24-24v-96
	c0-13.2,10.8-24,24-24h128C197.2,320,208,330.8,208,344z M168,280v24H72v-24c0-26.5,21.5-48,48-48S168,253.5,168,280z M236.4,167.2
	c-11.4,5.8-23.6,8.8-36.4,8.8H96c-44.1,0-80-35.9-80-80s35.9-80,80-80h104c7.7,0,15.2,1.1,22.4,3.2c-5.2,3.9-10,8.3-14.4,13.3
	c-2.7-0.3-5.4-0.5-8.1-0.5H96c-35.3,0-64,28.7-64,64s28.7,64,64,64h104c4.3,0,8.6-0.4,12.9-1.3c12.5-2.6,23.8-8.8,32.8-18
	c11.8-12,18.3-27.9,18.3-44.8c0-3.2-0.3-6.3-0.8-9.3c-0.1-0.6-0.2-1.1-0.2-1.7c-0.5-2.9-1.2-5.8-2.1-8.6c-0.2-0.5-0.4-1-0.6-1.6
	c-2-5.8-4.9-11.3-8.6-16.3c-0.2-0.3-0.3-0.6-0.5-0.8c4.3-3.3,9.2-5.8,14.4-7.4C275,63.7,280,79.4,280,96c0,18.3-6.1,35.5-17.5,49.9
	C255.4,154.8,246.6,162,236.4,167.2z M196.9,144H96c-26.5,0-48-21.5-48-48s21.5-48,48-48h100.9C188.5,62.5,184,78.9,184,96
	S188.5,129.5,196.9,144z M232,96c0-2.1,0.2-4.2,0.5-6.3c0.1-0.5,0.1-1,0.2-1.5c0.3-2,0.8-4.1,1.4-6.1c0-0.1,0.1-0.2,0.1-0.3
	c0.6-1.9,1.3-3.8,2.1-5.6c0.2-0.5,0.4-0.9,0.6-1.4c0.9-1.8,1.9-3.6,3-5.4c0,0,0-0.1,0.1-0.1c0,0,0,0.1,0.1,0.1
	c1.1,1.7,2.1,3.5,3,5.4c0.2,0.5,0.4,0.9,0.6,1.4c0.8,1.8,1.6,3.7,2.1,5.6c0,0.1,0.1,0.2,0.1,0.3c0.6,2,1,4,1.4,6.1
	c0.1,0.5,0.2,1,0.2,1.5c0.3,2.1,0.5,4.2,0.5,6.3c0,2.1-0.2,4.2-0.5,6.3c-0.1,0.5-0.1,1-0.2,1.5c-0.3,2-0.8,4.1-1.4,6
	c0,0.1-0.1,0.2-0.1,0.3c-0.6,1.9-1.3,3.7-2.1,5.5c-0.2,0.5-0.4,0.9-0.7,1.4c-0.9,1.8-1.9,3.6-3,5.4c0,0,0,0.1-0.1,0.1
	c0,0,0-0.1-0.1-0.1c-1.1-1.7-2.1-3.5-3-5.4c-0.2-0.5-0.4-0.9-0.6-1.4c-0.8-1.8-1.5-3.6-2.1-5.5c0-0.1-0.1-0.2-0.1-0.3
	c-0.6-2-1-4-1.4-6c-0.1-0.5-0.2-1-0.2-1.5C232.2,100.2,232,98.1,232,96z M280,176c-7.7,0-15.2-1.1-22.4-3.2
	c5.2-3.9,10-8.3,14.4-13.3c2.7,0.3,5.4,0.5,8.1,0.5h104c35.3,0,64-28.7,64-64s-28.7-64-64-64H280c-4.3,0-8.6,0.4-12.9,1.3
	c-12.5,2.6-23.8,8.8-32.8,18C222.5,63.3,216,79.2,216,96c0,3.2,0.3,6.3,0.8,9.3c0.1,0.6,0.2,1.1,0.2,1.7c0.5,2.9,1.2,5.8,2.1,8.6
	c0.2,0.5,0.4,1,0.6,1.6c2,5.8,4.9,11.3,8.6,16.3c0.2,0.3,0.3,0.6,0.5,0.8c-4.3,3.3-9.2,5.8-14.4,7.4C205,128.3,200,112.6,200,96
	c0-18.3,6.1-35.5,17.5-49.9c7.1-8.9,15.9-16.1,26.1-21.3C255.1,19,267.3,16,280,16h104c44.1,0,80,35.9,80,80s-35.9,80-80,80H280z
	 M283.1,48H384c26.5,0,48,21.5,48,48s-21.5,48-48,48H283.1c8.5-14.5,12.9-30.9,12.9-48S291.5,62.5,283.1,48z M312,280
	c0-26.5,21.5-48,48-48s48,21.5,48,48v24h-96V280z M448,440c0,13.2-10.8,24-24,24H296c-13.2,0-24-10.8-24-24v-96
	c0-13.2,10.8-24,24-24h128c13.2,0,24,10.8,24,24V440z M120,336c-22.1,0-40,17.9-40,40c0,12.5,6,24.3,16,31.8V440c0,4.4,3.6,8,8,8h32
	c4.4,0,8-3.6,8-8v-32.2c10-7.5,16-19.3,16-31.8C160,353.9,142.1,336,120,336z M132,396.6c-2.5,1.4-4,4.1-4,6.9V432h-16v-28.4
	c0-2.8-1.5-5.5-4-6.9c-7.5-4.4-12-12.1-12-20.6c0-13.2,10.8-24,24-24s24,10.8,24,24C144,384.5,139.5,392.3,132,396.6z M360,336
	c-22.1,0-40,17.9-40,40c0,12.5,6,24.3,16,31.8V440c0,4.4,3.6,8,8,8h32c4.4,0,8-3.6,8-8v-32.2c10-7.5,16-19.3,16-31.8
	C400,353.9,382.1,336,360,336z M372,396.6c-2.5,1.4-4,4.1-4,6.9V432h-16v-28.4c0-2.8-1.5-5.5-4-6.9c-7.5-4.4-12-12.1-12-20.6
	c0-13.2,10.8-24,24-24s24,10.8,24,24C384,384.5,379.5,392.3,372,396.6z M176,432h16v16h-16V432z M416,432h16v16h-16V432z"/>
</svg>
