<?xml version="1.0" encoding="utf-8"?>
<!-- Generator: Adobe Illustrator 21.0.0, SVG Export Plug-In . SVG Version: 6.00 Build 0)  -->
<svg version="1.1" id="Capa_1" xmlns="http://www.w3.org/2000/svg" xmlns:xlink="http://www.w3.org/1999/xlink" x="0px" y="0px"
	 viewBox="0 0 480 480" style="enable-background:new 0 0 480 480;" xml:space="preserve">
<style type="text/css">
	.st0{fill:url(#SVGID_1_);}
</style>
<linearGradient id="SVGID_1_" gradientUnits="userSpaceOnUse" x1="21.1125" y1="458.8875" x2="458.8875" y2="21.1125">
	<stop  offset="0" style="stop-color:#FF303E"/>
	<stop  offset="1" style="stop-color:#0082BE"/>
</linearGradient>
<path class="st0" d="M98.3,210.3L64,244.7l-18.3-18.3l-11.3,11.3l24,24c1.6,1.6,3.6,2.3,5.7,2.3c2,0,4.1-0.8,5.7-2.3l40-40
	L98.3,210.3z M434.3,210.3L400,244.7l-18.3-18.3l-11.3,11.3l24,24c1.6,1.6,3.6,2.3,5.7,2.3s4.1-0.8,5.7-2.3l40-40L434.3,210.3z
	 M98.3,42.3L64,76.7L45.7,58.3L34.3,69.7l24,24C59.9,95.2,62,96,64,96c2,0,4.1-0.8,5.7-2.3l40-40L98.3,42.3z M320,280v-32h16.5
	c4,35.9,34.5,64,71.5,64c39.7,0,72-32.3,72-72s-32.3-72-72-72c-37,0-67.5,28.1-71.5,64H320v-32c0-0.7-0.1-1.5-0.3-2.2
	c-0.1-0.2-0.2-0.4-0.3-0.6c-0.2-0.5-0.4-0.9-0.6-1.3c-0.1-0.2-0.3-0.4-0.5-0.6c-0.3-0.4-0.6-0.7-0.9-1c-0.2-0.2-0.4-0.4-0.6-0.5
	c-0.2-0.1-0.3-0.3-0.5-0.4c-0.2-0.1-0.5-0.2-0.7-0.3c-0.2-0.1-0.3-0.2-0.4-0.3l-11.5-5.1l59.4-59.4C375.4,138.1,391,144,408,144
	c39.7,0,72-32.3,72-72S447.7,0,408,0s-72,32.3-72,72c0,17,5.9,32.6,15.8,44.9l-63.7,63.7L248,162.8v-19.3c35.9-4,64-34.5,64-71.5
	c0-39.7-32.3-72-72-72s-72,32.3-72,72c0,37,28.1,67.5,64,71.5v19.3l-40.1,17.8l-63.7-63.7C138.1,104.6,144,89,144,72
	c0-39.7-32.3-72-72-72S0,32.3,0,72s32.3,72,72,72c17,0,32.6-5.9,44.9-15.8l59.4,59.4l-11.5,5.1c-0.2,0.1-0.3,0.2-0.4,0.3
	c-0.2,0.1-0.5,0.2-0.7,0.3c-0.2,0.1-0.3,0.3-0.5,0.4c-0.2,0.2-0.4,0.3-0.6,0.5c-0.3,0.3-0.6,0.6-0.9,1c-0.2,0.2-0.3,0.4-0.5,0.6
	c-0.2,0.4-0.4,0.9-0.6,1.3c-0.1,0.2-0.2,0.4-0.3,0.6c-0.2,0.7-0.3,1.4-0.3,2.1v32h-16.5c-4-35.9-34.5-64-71.5-64
	c-39.7,0-72,32.3-72,72s32.3,72,72,72c37,0,67.5-28.1,71.5-64H160v32c0,3.2,1.9,6,4.8,7.3l11.5,5.1l-59.4,59.4
	C104.6,341.9,89,336,72,336c-39.7,0-72,32.3-72,72s32.3,72,72,72s72-32.3,72-72c0-17-5.9-32.6-15.8-44.9l63.7-63.7l40.1,17.8v19.3
	c-35.9,4-64,34.5-64,71.5c0,39.7,32.3,72,72,72s72-32.3,72-72c0-37-28.1-67.5-64-71.5v-19.3l40.1-17.8l63.7,63.7
	C341.9,375.4,336,391,336,408c0,39.7,32.3,72,72,72s72-32.3,72-72s-32.3-72-72-72c-17,0-32.6,5.9-44.9,15.8l-59.4-59.4l11.5-5.1
	C318.1,286,320,283.2,320,280z M408,184c30.9,0,56,25.1,56,56s-25.1,56-56,56s-56-25.1-56-56S377.1,184,408,184z M408,16
	c30.9,0,56,25.1,56,56s-25.1,56-56,56s-56-25.1-56-56S377.1,16,408,16z M72,128c-30.9,0-56-25.1-56-56s25.1-56,56-56s56,25.1,56,56
	S102.9,128,72,128z M72,296c-30.9,0-56-25.1-56-56s25.1-56,56-56s56,25.1,56,56S102.9,296,72,296z M72,464c-30.9,0-56-25.1-56-56
	s25.1-56,56-56s56,25.1,56,56S102.9,464,72,464z M408,352c30.9,0,56,25.1,56,56s-25.1,56-56,56s-56-25.1-56-56S377.1,352,408,352z
	 M184,72c0-30.9,25.1-56,56-56s56,25.1,56,56s-25.1,56-56,56S184,102.9,184,72z M176,274.8v-62.5l56,24.9v62.5L176,274.8z M296,408
	c0,30.9-25.1,56-56,56s-56-25.1-56-56s25.1-56,56-56S296,377.1,296,408z M240,223.2l-17.4-7.7L187.7,200l52.3-23.2l52.3,23.2
	l-34.9,15.5L240,223.2z M304,274.8l-56,24.9v-62.5l56-24.9V274.8z M434.3,42.3L400,76.7l-18.3-18.3l-11.3,11.3l24,24
	c1.6,1.6,3.6,2.3,5.7,2.3s4.1-0.8,5.7-2.3l40-40L434.3,42.3z M266.3,42.3L232,76.7l-18.3-18.3l-11.3,11.3l24,24
	c1.6,1.6,3.6,2.3,5.7,2.3s4.1-0.8,5.7-2.3l40-40L266.3,42.3z M98.3,378.3L64,412.7l-18.3-18.3l-11.3,11.3l24,24
	c1.6,1.6,3.6,2.3,5.7,2.3c2,0,4.1-0.8,5.7-2.3l40-40L98.3,378.3z M434.3,378.3L400,412.7l-18.3-18.3l-11.3,11.3l24,24
	c1.6,1.6,3.6,2.3,5.7,2.3s4.1-0.8,5.7-2.3l40-40L434.3,378.3z M266.3,378.3L232,412.7l-18.3-18.3l-11.3,11.3l24,24
	c1.6,1.6,3.6,2.3,5.7,2.3s4.1-0.8,5.7-2.3l40-40L266.3,378.3z"/>
</svg>
