<?xml version="1.0" encoding="utf-8"?>
<!-- Generator: Adobe Illustrator 21.0.0, SVG Export Plug-In . SVG Version: 6.00 Build 0)  -->
<svg version="1.1" id="Capa_1" xmlns="http://www.w3.org/2000/svg" xmlns:xlink="http://www.w3.org/1999/xlink" x="0px" y="0px"
	 viewBox="0 0 480 480" style="enable-background:new 0 0 480 480;" xml:space="preserve">
<style type="text/css">
	.st0{fill:url(#SVGID_1_);}
</style>
<g>
	<g>
		<linearGradient id="SVGID_1_" gradientUnits="userSpaceOnUse" x1="11.729" y1="468.271" x2="468.271" y2="11.729">
			<stop  offset="0" style="stop-color:#FF303E"/>
			<stop  offset="1" style="stop-color:#0082BE"/>
		</linearGradient>
		<path class="st0" d="M440,280c22.1,0,40-17.9,40-40s-17.9-40-40-40c-8.1,0-15.7,2.5-22,6.7L351.3,140L418,73.3
			c6.3,4.2,13.9,6.7,22,6.7c22.1,0,40-17.9,40-40S462.1,0,440,0s-40,17.9-40,40c0,8.1,2.5,15.7,6.7,22L340,128.7L273.3,62
			c4.2-6.3,6.7-13.9,6.7-22c0-22.1-17.9-40-40-40s-40,17.9-40,40c0,8.1,2.5,15.7,6.7,22L140,128.7L73.3,62c4.2-6.3,6.7-13.9,6.7-22
			C80,17.9,62.1,0,40,0S0,17.9,0,40s17.9,40,40,40c1,0,1.9-0.2,2.9-0.3l47.9,98.2L62,206.7c-6.3-4.2-13.9-6.7-22-6.7
			c-22.1,0-40,17.9-40,40s17.9,40,40,40c19.3,0,35.5-13.8,39.2-32h45.9l31.4,64.3L62,406.7c-6.3-4.2-13.9-6.7-22-6.7
			c-22.1,0-40,17.9-40,40s17.9,40,40,40s40-17.9,40-40c0-1-0.2-1.9-0.3-2.9l111.2-54.3l16.6,34c-4.7,6.6-7.5,14.5-7.5,23.2
			c0,22.1,17.9,40,40,40s40-17.9,40-40c0-19.3-13.8-35.5-32-39.2v-45.9l64.3-31.4l94.4,94.4c-4.2,6.3-6.7,13.9-6.7,22
			c0,22.1,17.9,40,40,40s40-17.9,40-40s-17.9-40-40-40c-3.6,0-7,0.6-10.4,1.5l-56.4-107.7l43.6-21.3C423.4,277.2,431.4,280,440,280z
			 M440,16c13.2,0,24,10.8,24,24s-10.8,24-24,24s-24-10.8-24-24S426.8,16,440,16z M40,264c-13.2,0-24-10.8-24-24s10.8-24,24-24
			s24,10.8,24,24S53.2,264,40,264z M40,464c-13.2,0-24-10.8-24-24s10.8-24,24-24s24,10.8,24,24S53.2,464,40,464z M440,416
			c13.2,0,24,10.8,24,24s-10.8,24-24,24s-24-10.8-24-24S426.8,416,440,416z M328.7,140L305,163.6l-46.4-88.5
			c1.1-0.6,2.3-1.1,3.3-1.8L328.7,140z M301,190.4l21.8,41.6h-63.5L301,190.4z M248,220.7V89.2l45.2,86.3L248,220.7z M218,73.3
			c4.2,2.8,8.9,4.8,14,5.9v141.5L151.3,140L218,73.3z M40,64c-13.2,0-24-10.8-24-24s10.8-24,24-24s24,10.8,24,24S53.2,64,40,64z
			 M58.5,75.3c1.2-0.6,2.4-1.2,3.5-1.9l66.7,66.7l-25.9,25.9L58.5,75.3z M79.2,232c-1-5.1-3.1-9.8-5.9-14l24.9-24.9l19,38.9H79.2z
			 M110.2,181.1l29.8-29.8l80.7,80.7H135L110.2,181.1z M142.9,248h77.8l-52.3,52.3L142.9,248z M75.3,421.5c-0.6-1.2-1.2-2.4-1.9-3.5
			l90.5-90.5l20,41L75.3,421.5z M175.8,315.5l56.2-56.2V345l-33.7,16.5L175.8,315.5z M205.3,375.8l26.7-13.1v38
			c-4.4,0.9-8.4,2.6-12.2,4.8L205.3,375.8z M264,440c0,13.2-10.8,24-24,24s-24-10.8-24-24s10.8-24,24-24S264,426.8,264,440z M240,64
			c-13.2,0-24-10.8-24-24s10.8-24,24-24s24,10.8,24,24S253.2,64,240,64z M248,337.1v-77.8l52.3,52.3L248,337.1z M259.3,248h71.8
			l20.2,38.6l-35.9,17.5L259.3,248z M410.2,398.9l-82.7-82.7l31.4-15.3L410.2,398.9z M365.8,279.6L349.2,248h51.6
			c0.9,4.4,2.6,8.4,4.8,12.2L365.8,279.6z M400.8,232h-60l-28-53.5l27.2-27.2l66.7,66.7C403.9,222.2,401.8,226.9,400.8,232z
			 M440,216c13.2,0,24,10.8,24,24s-10.8,24-24,24s-24-10.8-24-24S426.8,216,440,216z"/>
	</g>
</g>
</svg>
