<?xml version="1.0" encoding="utf-8"?>
<!-- Generator: Adobe Illustrator 21.0.0, SVG Export Plug-In . SVG Version: 6.00 Build 0)  -->
<svg version="1.1" id="Capa_1" xmlns="http://www.w3.org/2000/svg" xmlns:xlink="http://www.w3.org/1999/xlink" x="0px" y="0px"
	 viewBox="0 0 480 480" style="enable-background:new 0 0 480 480;" xml:space="preserve">
<style type="text/css">
	.st0{fill:url(#SVGID_1_);}
</style>
<linearGradient id="SVGID_1_" gradientUnits="userSpaceOnUse" x1="34.9575" y1="462.2755" x2="454.2755" y2="42.9575">
	<stop  offset="0" style="stop-color:#FF303E"/>
	<stop  offset="1" style="stop-color:#0082BE"/>
</linearGradient>
<path class="st0" d="M416,336.5V8c0-4.4-3.6-8-8-8H80c-0.2,0-0.3,0.1-0.5,0.1c-0.7,0-1.4,0.2-2.1,0.4c-0.3,0.1-0.5,0.2-0.7,0.3
	c-0.8,0.4-1.7,0.9-2.3,1.6l-72,72c-0.7,0.7-1.2,1.5-1.6,2.3c-0.1,0.2-0.2,0.5-0.3,0.8c-0.2,0.7-0.4,1.4-0.4,2.1
	C0.1,79.7,0,79.8,0,80v344c0,4.4,3.6,8,8,8h332.2c9.9,27.9,36.5,48,67.8,48c39.7,0,72-32.3,72-72C480,371,451.9,340.5,416,336.5z
	 M72,27.3V72H27.3L72,27.3z M349.3,366.4c-0.6,0.8-1.2,1.6-1.7,2.5c-0.7,1-1.3,2.1-1.9,3.2c-0.5,0.9-1,1.7-1.5,2.6
	c-0.6,1.1-1.1,2.3-1.6,3.4c-0.4,0.9-0.8,1.8-1.2,2.7c-0.5,1.2-0.9,2.4-1.4,3.7c-0.3,0.9-0.7,1.8-0.9,2.7c-0.4,1.3-0.7,2.7-1,4
	c-0.2,0.9-0.5,1.8-0.6,2.7c-0.3,1.5-0.5,3.1-0.7,4.6c-0.1,0.8-0.2,1.5-0.3,2.3c-0.2,2.3-0.4,4.7-0.4,7.1c0,2.7,0.2,5.4,0.5,8H16V88
	h64c4.4,0,8-3.6,8-8V16h312v320.4c-1.5,0.2-3,0.5-4.6,0.7c-0.7,0.1-1.4,0.2-2,0.3c-2.2,0.5-4.4,1-6.6,1.7c-0.8,0.2-1.5,0.6-2.3,0.8
	c-1.4,0.5-2.8,0.9-4.1,1.5c-0.9,0.4-1.7,0.8-2.6,1.2c-1.2,0.5-2.4,1.1-3.5,1.7c-0.9,0.5-1.7,1-2.6,1.5c-1.1,0.6-2.2,1.3-3.2,1.9
	c-0.8,0.6-1.7,1.2-2.5,1.7c-1,0.7-2,1.4-3,2.2c-0.8,0.6-1.6,1.3-2.3,2c-0.9,0.8-1.8,1.6-2.7,2.5c-0.7,0.7-1.4,1.4-2.1,2.2
	c-0.8,0.9-1.7,1.8-2.5,2.7c-0.7,0.8-1.3,1.6-1.9,2.4C350.8,364.4,350.1,365.4,349.3,366.4z M408,464c-26,0-47.9-17.9-54.2-42
	c-0.6-2.2-1-4.5-1.3-6.7c0-0.2-0.1-0.3-0.1-0.5c-0.3-2.3-0.5-4.5-0.5-6.8c0-30.9,25.1-56,56-56s56,25.1,56,56S438.9,464,408,464z
	 M434.3,378.3L400,412.7l-18.3-18.3l-11.3,11.3l24,24c1.6,1.6,3.6,2.3,5.7,2.3s4.1-0.8,5.7-2.3l40-40L434.3,378.3z M167.2,268.4
	l-56-112c-2.7-5.4-11.6-5.4-14.3,0l-56,112c-1.2,2.5-1.1,5.4,0.4,7.8s4,3.8,6.8,3.8h112c2.8,0,5.3-1.4,6.8-3.8
	C168.3,273.8,168.4,270.9,167.2,268.4z M60.9,264l43.1-86.1l43.1,86.1H60.9z M375.2,268.4l-56-112c-2.7-5.4-11.6-5.4-14.3,0l-56,112
	c-1.2,2.5-1.1,5.4,0.4,7.8s4,3.8,6.8,3.8h112c2.8,0,5.3-1.4,6.8-3.8C376.3,273.8,376.4,270.9,375.2,268.4z M268.9,264l43.1-86.1
	l43.1,86.1H268.9z M261.7,194.3l-32-32l-11.3,11.3l18.3,18.3H160v16h76.7l-18.3,18.3l11.3,11.3l32-32
	C264.8,202.5,264.8,197.5,261.7,194.3z M368,32h16v16h-16V32z M368,64h16v16h-16V64z M336,32h16v16h-16V32z M32,384h16v16H32V384z
	 M64,384h16v16H64V384z M32,352h16v16H32V352z"/>
</svg>
