<?xml version="1.0" encoding="utf-8"?>
<!-- Generator: Adobe Illustrator 21.0.0, SVG Export Plug-In . SVG Version: 6.00 Build 0)  -->
<svg version="1.1" id="Capa_1" xmlns="http://www.w3.org/2000/svg" xmlns:xlink="http://www.w3.org/1999/xlink" x="0px" y="0px"
	 viewBox="0 0 480 480" style="enable-background:new 0 0 480 480;" xml:space="preserve">
<style type="text/css">
	.st0{fill:url(#SVGID_1_);}
</style>
<linearGradient id="SVGID_1_" gradientUnits="userSpaceOnUse" x1="13.9375" y1="461.7915" x2="457.5205" y2="18.2085">
	<stop  offset="0" style="stop-color:#FF303E"/>
	<stop  offset="1" style="stop-color:#0082BE"/>
</linearGradient>
<path class="st0" d="M456,212h-8V92V12c0-4.4-3.6-8-8-8H48C21.5,4,0,25.5,0,52v376c0,26.5,21.5,48,48,48h392c4.4,0,8-3.6,8-8V356h8
	c13.2,0,24-10.8,24-24v-96C480,222.8,469.2,212,456,212z M48,20h384v64H48c-17.6,0-32-14.4-32-32S30.4,20,48,20z M248,236
	c0,4.4-3.6,8-8,8s-8-3.6-8-8s3.6-8,8-8S248,231.6,248,236z M272,380c-4.4,0-8-3.6-8-8s3.6-8,8-8s8,3.6,8,8S276.4,380,272,380z
	 M432,460h-32v-40c0-13.2-10.8-24-24-24h-17.5c-3.3-9.3-12.1-16-22.5-16c-13.2,0-24,10.8-24,24s10.8,24,24,24
	c10.4,0,19.2-6.7,22.5-16H376c4.4,0,8,3.6,8,8v40H280v-65.5c9.3-3.3,16-12.1,16-22.5c0-13.2-10.8-24-24-24s-24,10.8-24,24
	c0,10.4,6.7,19.2,16,22.5V460h-80V324c0-4.4,3.6-8,8-8h25.5c3.3,9.3,12.1,16,22.5,16c13.2,0,24-10.8,24-24s-10.8-24-24-24
	c-10.4,0-19.2,6.7-22.5,16H192c-13.2,0-24,10.8-24,24v136H48c-17.6,0-32-14.4-32-32v-8h89.5c3.3,9.3,12.1,16,22.5,16
	c13.2,0,24-10.8,24-24s-10.8-24-24-24c-10.4,0-19.2,6.7-22.5,16H16v-48h80c13.2,0,24-10.8,24-24v-25.5c9.3-3.3,16-12.1,16-22.5
	c0-13.2-10.8-24-24-24s-24,10.8-24,24c0,10.4,6.7,19.2,16,22.5V332c0,4.4-3.6,8-8,8H16V212h41.5c3.3,9.3,12.1,16,22.5,16
	c13.2,0,24-10.8,24-24s-10.8-24-24-24c-10.4,0-19.2,6.7-22.5,16H16v-48h120c13.2,0,24,10.8,24,24v41.5c-9.3,3.3-16,12.1-16,22.5
	c0,13.2,10.8,24,24,24s24-10.8,24-24c0-10.4-6.7-19.2-16-22.5V172c0-22.1-17.9-40-40-40H16V87.7c0.1,0.1,0.3,0.2,0.4,0.3
	c1.9,1.6,3.9,3.1,6,4.5c0.3,0.2,0.7,0.4,1,0.6c2.2,1.3,4.4,2.4,6.8,3.4c0.3,0.1,0.7,0.2,1,0.4c2.4,0.9,5,1.7,7.6,2.2
	c0.2,0,0.5,0.1,0.7,0.1c2.8,0.5,5.6,0.8,8.5,0.8h184v113.5c-9.3,3.3-16,12.1-16,22.5c0,13.2,10.8,24,24,24s24-10.8,24-24
	c0-10.4-6.7-19.2-16-22.5V100h184v16h-80c-22.1,0-40,17.9-40,40v9.5c-9.3,3.3-16,12.1-16,22.5c0,13.2,10.8,24,24,24s24-10.8,24-24
	c0-10.4-6.7-19.2-16-22.5V156c0-13.2,10.8-24,24-24h80v80h-53.8H376c-30.8,0-57.1,19.5-67.4,46.8c-0.1,0.2-0.2,0.4-0.2,0.6
	c-0.6,1.7-1.2,3.4-1.7,5.1c-0.2,0.8-0.4,1.7-0.7,2.6c-0.3,1.2-0.6,2.5-0.8,3.8c-0.2,1.2-0.4,2.4-0.6,3.7c-0.1,1.1-0.3,2.2-0.4,3.2
	c0,0.5-0.1,0.9-0.2,1.4c-0.1,0.8,0,1.6,0,2.5c0,0.8-0.1,1.5-0.1,2.3c0,0.4,0.1,0.9,0.1,1.3c0,1.4,0.1,2.7,0.2,4
	c0.1,1.1,0.2,2.1,0.3,3.2c0.2,1.5,0.4,3,0.7,4.4c0.2,0.8,0.3,1.7,0.5,2.5c0.4,1.6,0.8,3.2,1.2,4.8c0.2,0.6,0.4,1.3,0.6,1.9
	c0.6,1.7,1.2,3.4,1.8,5c0.2,0.5,0.4,1,0.6,1.5c0.7,1.7,1.5,3.3,2.4,4.9c0.3,0.5,0.5,1,0.8,1.5c0.8,1.5,1.8,3,2.7,4.5
	c0.4,0.6,0.8,1.1,1.1,1.7c0.9,1.3,1.9,2.6,2.9,3.9c0.5,0.6,1,1.2,1.6,1.8c0.7,0.8,1.3,1.6,2,2.3c0.4,0.4,0.8,0.7,1.2,1.1
	c0.6,0.6,1.2,1.2,1.8,1.7c1.1,1,2.2,2.1,3.4,3c0.7,0.6,1.5,1.2,2.3,1.8c1.1,0.8,2.1,1.6,3.2,2.4c1.1,0.8,2.3,1.5,3.5,2.2
	c0.8,0.5,1.6,1,2.4,1.4c1.8,1,3.6,1.9,5.5,2.7c0.3,0.1,0.5,0.3,0.8,0.4c8.8,3.8,18.4,5.9,28.5,5.9h56L432,460L432,460z M344,404
	c0,4.4-3.6,8-8,8s-8-3.6-8-8s3.6-8,8-8S344,399.6,344,404z M232,308c0-4.4,3.6-8,8-8s8,3.6,8,8s-3.6,8-8,8S232,312.4,232,308z
	 M120,412c0-4.4,3.6-8,8-8c4.4,0,8,3.6,8,8s-3.6,8-8,8S120,416.4,120,412z M104,284c0-4.4,3.6-8,8-8s8,3.6,8,8s-3.6,8-8,8
	S104,288.4,104,284z M72,204c0-4.4,3.6-8,8-8s8,3.6,8,8s-3.6,8-8,8S72,208.4,72,204z M168,228c4.4,0,8,3.6,8,8s-3.6,8-8,8
	s-8-3.6-8-8S163.6,228,168,228z M328,188c0,4.4-3.6,8-8,8s-8-3.6-8-8s3.6-8,8-8S328,183.6,328,188z M464,332c0,4.4-3.6,8-8,8h-16
	h-64c-13.2,0-25.4-4.6-35-12.4c-0.3-0.2-0.5-0.4-0.8-0.6c-1-0.8-1.9-1.7-2.9-2.6c-0.4-0.4-0.9-0.8-1.3-1.3c-0.8-0.8-1.6-1.7-2.4-2.6
	c-0.4-0.5-0.9-1-1.3-1.5c-0.8-1-1.5-2-2.2-3c-0.3-0.4-0.6-0.9-0.9-1.3c-0.7-1.1-1.4-2.3-2.1-3.4c-0.2-0.4-0.4-0.8-0.6-1.2
	c-0.6-1.2-1.2-2.5-1.8-3.7c-0.2-0.4-0.4-0.8-0.5-1.2c-0.5-1.3-1-2.5-1.4-3.8c-0.2-0.5-0.3-1-0.5-1.6c-0.4-1.2-0.7-2.4-0.9-3.7
	c-0.2-0.7-0.3-1.4-0.4-2.1c-0.2-1.1-0.4-2.2-0.5-3.3c-0.1-0.9-0.2-1.7-0.2-2.6c-0.1-1-0.1-2-0.2-3c0-1,0-1.9,0-2.9c0-1,0.1-2,0.2-3
	c0.1-0.9,0.2-1.7,0.3-2.5c0.1-1,0.3-1.9,0.4-2.8c0.2-1,0.4-2.1,0.7-3.1c0.1-0.6,0.3-1.2,0.5-1.8c6.8-23.7,29.5-41,56.1-41H440h16
	c4.4,0,8,3.6,8,8V332z M376,252c-17.6,0-32,14.4-32,32s14.4,32,32,32s32-14.4,32-32S393.6,252,376,252z M376,300
	c-8.8,0-16-7.2-16-16s7.2-16,16-16s16,7.2,16,16S384.8,300,376,300z"/>
</svg>
